<svg id="그룹_7223" data-name="그룹 7223" xmlns="http://www.w3.org/2000/svg" width="68.128" height="71.691" viewBox="0 0 68.128 71.691">
  <rect id="사각형_4194" data-name="사각형 4194" width="68.127" height="48.204" transform="translate(0 23.488)" fill="#009dda"/>
  <path id="패스_51967" data-name="패스 51967" d="M448.374,379.419c-2.585-1.687-8.542,2.634-5.338,5.34-.318,1.317-1.946,1.2-3.05,1.782-2.276,1.194-4.927,2.295-7.248,3.385-.76.358-1.341.251-1.906.712-1.567-.313-1.085-1.683-1.716-2.848-.862-1.593-2.571-2.687-3.622-4.1-.686-.919-.8-1.979-1.718-2.67.423-.959,3.56-2.687,2.67-4.277,0-1.968-.738-2.589-1.524-3.74a14,14,0,0,0-4.386-.712c-.555.486-1.446.672-1.908,1.246a19.323,19.323,0,0,1-1.144,1.782c-.062,2.153.42,3.244,1.908,3.914-.245,2.219-1.626,4.16-2.48,5.881-.861,1.738-1.006,3.84-2.288,5.167l-.192.176c-.791-1.115-2.117-1.7-3.05-2.67-2.043-2.124-3.795-5.12-6.294-6.767a3.761,3.761,0,0,1,.956-2.5c-.022-3.024-2.051-4.891-5.53-4.806-.769.766-1.9,1.2-2.67,1.958-.406.4-.5,1.063-.954,1.424,0,2.279,1.961,3.9,3.624,4.631-.931,4.56-.439,10.581-.954,14.25-.178,1.268.411,3.344-.19,4.274a6.489,6.489,0,0,0,.38,3.028c11.378.741,22.923-.354,34.133-.354,3.98,0,8.91.334,11.63-.18,1.037-.192,2.5.249,3.242-.178.192-.059.382-.119.572-.176a45.326,45.326,0,0,0-.762-9.973c-.3-1.291.245-2.8-.382-3.745.118-2.568,2.316-1.65,3.242-3.206,1.374-2.3-1.526-5.613-3.052-6.052m-45-.9c-.76-.138-.69-.334-1.336-.532a.858.858,0,0,0-.952.178c-.4.342-.283.983-.572,1.426v.178a1.465,1.465,0,0,1-1.144-1.066l-.19-.183c.527-.489.676-1.222,1.142-1.778.446-.3.89-.594,1.336-.892a4.112,4.112,0,0,1,1.716.534,2,2,0,0,0,.382.9,9.334,9.334,0,0,1-.382,1.241m19.258,0c-.185-.869-.261-2.183-1.144-2.49a3.023,3.023,0,0,0-1.144,1.6h-.382a2.069,2.069,0,0,0-.382-.537c.235-1.438,1.2-1.707,2.1-2.49h1.336c1.688,1.623,1.274,2.221,0,3.914Zm26.506,5.7c-.3.287-.417.636-.764.892v.178c-.468-.266-.534-1.173-.572-1.782l-.19-.178c-1.287-.017-1.633.188-2.1.89-.318-.057-.636-.117-.952-.174a5.7,5.7,0,0,1,0-1.961c.6-.541,1.319-1.047,1.906-1.6h.76a6.666,6.666,0,0,0,1.528,1.07,6.072,6.072,0,0,1,.382,2.67" transform="translate(-390.275 -372.291)" fill="#ffca05"/>
  <path id="패스_51968" data-name="패스 51968" d="M401.181,401.594l-.366-.2-.344-.1c-.074,0-.085.088-.04.263s.09.359.126.541c.064.3.124.6.187.9s.114.579.171.847a1.234,1.234,0,0,1-.584.387,3.4,3.4,0,0,1-.75.1,5.531,5.531,0,0,1-.487-1.452c-.162-.7-.315-1.467-.456-2.3-.073-.415-.147-.833-.223-1.246s-.147-.805-.207-1.17-.114-.729-.157-1.065a8.132,8.132,0,0,1-.067-.866,2.374,2.374,0,0,1,1.319-.76,8.088,8.088,0,0,1,2.133-.323,5.527,5.527,0,0,1,1.948.522,1.841,1.841,0,0,1,1.277,1.863,3.463,3.463,0,0,1-.168,1.149,2.036,2.036,0,0,1-.639.809,4.632,4.632,0,0,1-.639.442,7.623,7.623,0,0,1-.9.468c.339.169.7.342,1.082.51s.812.365,1.286.594a1.4,1.4,0,0,1-.368.945.855.855,0,0,1-.555.247c-.223-.064-.653-.223-1.289-.487a8.467,8.467,0,0,1-1.287-.613m-1.55-4.317a7.665,7.665,0,0,0,.174,1.033c.118.575.2.988.246,1.223a6.663,6.663,0,0,0,1.592-.529,3.545,3.545,0,0,0,1.374-.892l.088-.252.024-.223a.706.706,0,0,0-.582-.766,4.165,4.165,0,0,0-1-.187,6.8,6.8,0,0,0-1.222.121c-.463.088-.691.244-.69.47" transform="translate(-389.48 -355.651)" fill="#fff"/>
  <path id="패스_51969" data-name="패스 51969" d="M405.949,400.071c-.349.04-.7.074-1.063.093s-.624.031-.8.031a5.282,5.282,0,0,1,.031.992,8.732,8.732,0,0,0-.016.885,8.973,8.973,0,0,1,1.471-.206,10.751,10.751,0,0,1,1.377.007l.368-.007.4-.057c.145-.017.306-.048.486-.081s.4-.071.669-.106a1.4,1.4,0,0,1,.385.736.814.814,0,0,1-.214.7,7.531,7.531,0,0,1-1.472.23,9.224,9.224,0,0,1-1.636.06,3.559,3.559,0,0,0-.987.057c-.339.064-.667.126-.985.176a1.389,1.389,0,0,1-.624-.067.918.918,0,0,1-.577-.365,1.336,1.336,0,0,1-.183-.553,2.52,2.52,0,0,1-.017-.631,4.8,4.8,0,0,0,.062-.849,5.141,5.141,0,0,0-.062-.864c-.021-.152-.04-.287-.061-.4l-.031-.247.016-.344.062-.3a2.4,2.4,0,0,0,.092-.543,5.339,5.339,0,0,0,0-.577c-.01-.226-.022-.449-.038-.669a4.951,4.951,0,0,1-.007-.658,1.474,1.474,0,0,1,.254-.968,2.856,2.856,0,0,1,1.438-.213c.41-.014.8-.024,1.163-.031s.638-.017.823-.017a2.02,2.02,0,0,0,.385-.047.815.815,0,0,0,.37-.156.854.854,0,0,1,.653.418.965.965,0,0,1,.13.952,2.058,2.058,0,0,1-.636.219c-.171.021-.342.043-.517.074a6.636,6.636,0,0,1-1.04.054c-.446,0-.812,0-1.1.024l-.247.036-.107.223a2.7,2.7,0,0,0-.04.648,3.543,3.543,0,0,1-.007.631l.045.271.263.054c.112,0,.256,0,.432-.01a7.233,7.233,0,0,0,.738-.067c.391-.043.76-.081,1.11-.117s.667-.055.954-.055a1.256,1.256,0,0,1,.315.726,1,1,0,0,1-.268.771c-.289.01-.6.033-.949.064s-.61.057-.807.074" transform="translate(-386.212 -355.697)" fill="#fff"/>
  <path id="패스_51970" data-name="패스 51970" d="M413.562,394.991a3.877,3.877,0,0,1,3.09,1.066,3.676,3.676,0,0,1,1.108,2.748,4.664,4.664,0,0,1-.263,1.624,3.289,3.289,0,0,1-.584.985,3.568,3.568,0,0,1-.745.588,8.692,8.692,0,0,0-.811.532c-.138.105-.289.216-.449.339a1.868,1.868,0,0,1-.482.266,2.645,2.645,0,0,1-.512.116c-.213.026-.532.054-.957.074a1.339,1.339,0,0,1-.985.171q-.4-.122-.484-.81a9.522,9.522,0,0,1-.043-1.208c.005-.543.014-1.127.026-1.764.024-.6.043-1.232.062-1.87s.017-1.189.007-1.652q-.018-.861.356-1.052a1.393,1.393,0,0,1,1.025,0l.259-.057a.881.881,0,0,1,.382-.1m2.089,5.3a1.872,1.872,0,0,0,.344-.781,4.55,4.55,0,0,0,.105-1,.882.882,0,0,0-.112-.351,1.713,1.713,0,0,1-.149-.361,1.389,1.389,0,0,0-.94-1.063,4.817,4.817,0,0,0-1.08-.162,1.174,1.174,0,0,0-.423.061c-.1.041-.157.176-.18.406-.012.149-.026.442-.043.88s-.026.933-.026,1.486v2.312a2.514,2.514,0,0,0,.577-.057,1.145,1.145,0,0,0,.494-.287,2.92,2.92,0,0,1,.734-.517,2.218,2.218,0,0,0,.7-.57" transform="translate(-379.678 -355.768)" fill="#fff"/>
  <path id="패스_51971" data-name="패스 51971" d="M415.231,402.026a3,3,0,0,1,.85-.206,3.649,3.649,0,0,0,.765-.155,2.359,2.359,0,0,0,.069-.935c-.014-.577-.031-1.066-.055-1.467s-.035-.8-.035-1.211.007-.8.021-1.192c-.014-.081-.135-.1-.361-.078a1.447,1.447,0,0,1-.584-.024,1.123,1.123,0,0,1-.112-.705,1.575,1.575,0,0,1,.2-.705,5.813,5.813,0,0,1,1-.135c.3-.01.588-.035.874-.071a3.088,3.088,0,0,1,1.1.054,1.82,1.82,0,0,1,.89.619,1.384,1.384,0,0,1-.111.61.985.985,0,0,1-.455.382,3.526,3.526,0,0,0-.422-.085c-.168-.021-.254,0-.264.071q.031,1.1-.019,2.419t0,2.3l.164.156h.23a1.664,1.664,0,0,1,.472.088,1.149,1.149,0,0,1,.508.325c-.092.285-.169.522-.232.705a1.184,1.184,0,0,1-.282.461,4.266,4.266,0,0,1-1.144.052,4.657,4.657,0,0,0-.937,0c-.261.026-.572.057-.926.1a9.316,9.316,0,0,1-1.134.071,2.4,2.4,0,0,1-.266-.817.9.9,0,0,1,.2-.627" transform="translate(-377.067 -355.672)" fill="#fff"/>
  <path id="패스_51972" data-name="패스 51972" d="M420.532,399.207c-.164-.294-.287-.5-.368-.619-.014.6-.022,1.236-.028,1.915a11.228,11.228,0,0,0,.062,1.519l.105.361a2.162,2.162,0,0,1,.123.465,2.082,2.082,0,0,1-.589.4,2.443,2.443,0,0,1-.764.164,1.8,1.8,0,0,1-.522-1.018c-.04-.353-.066-.669-.078-.952-.012-.484-.028-.928-.045-1.348a11.521,11.521,0,0,1,.028-1.343q.052-.866.078-1.816a10.313,10.313,0,0,1,.062-1.106.659.659,0,0,1,.634-.492.944.944,0,0,1,.791.175,6.118,6.118,0,0,1,.731.924c.3.439.567.838.8,1.189a7.536,7.536,0,0,0,.651.823c.235.261.458.531.671.814l.209.3.212.3c.083-.4.173-.847.273-1.348s.194-.968.273-1.414a8.175,8.175,0,0,1,.3-1.049,2.854,2.854,0,0,1,.759-1.064,1.364,1.364,0,0,1,.677.406,1.393,1.393,0,0,1,.465.811,4.061,4.061,0,0,0-.439.975c-.093.321-.18.672-.264,1.045-.069.413-.147.842-.23,1.287s-.152.873-.209,1.286a4.02,4.02,0,0,1-.4,1.158.981.981,0,0,1-.81.6,1.035,1.035,0,0,1-.942-.532c-.264-.382-.444-.638-.536-.767q-.5-.633-.862-1.073c-.247-.294-.371-.439-.371-.439s-.145-.178-.439-.529" transform="translate(-374.599 -355.769)" fill="#fff"/>
  <path id="패스_51973" data-name="패스 51973" d="M430.467,399.451a.763.763,0,0,1,.42.584.849.849,0,0,1-.19.7c-.311.019-.525.026-.643.022l-.318-.022-.27-.014-.183.057-.05.174.022.278a2.773,2.773,0,0,0,.254.741,1.574,1.574,0,0,1,.185.686c.036.152-.059.33-.282.546a.71.71,0,0,1-.695.216,1.024,1.024,0,0,1-.233-.486,5.028,5.028,0,0,1-.135-.574,2.366,2.366,0,0,1-.707.733,2.714,2.714,0,0,1-1.54.34,2.436,2.436,0,0,1-2.537-1.526,7.079,7.079,0,0,1-.589-2.571,5.224,5.224,0,0,1,.581-2.272,3.08,3.08,0,0,1,1.642-1.545c.245-.1.52-.192.826-.294a2.583,2.583,0,0,1,.855-.156,4.842,4.842,0,0,1,1.49.283,1.66,1.66,0,0,1,1.139,1.03,1.06,1.06,0,0,1-.19.648.694.694,0,0,1-.617.24,3.489,3.489,0,0,0-.309-.339l-.254-.209a.983.983,0,0,0-.4-.206,2.28,2.28,0,0,0-.665-.078,2.62,2.62,0,0,0-.862.183,4.068,4.068,0,0,0-.776.354,1.944,1.944,0,0,0-.821,1.18,5.652,5.652,0,0,0-.211,1.462,3.57,3.57,0,0,0,.406,1.6,1.391,1.391,0,0,0,1.331.809,1.452,1.452,0,0,0,.842-.228,2.543,2.543,0,0,0,.56-.544l.117-.256.079-.311-.3-.017h-.308c-.161-.005-.315-.016-.46-.019a2.969,2.969,0,0,0-.544.05.792.792,0,0,1-.543-.432c-.156-.261-.093-.517.19-.783a3.161,3.161,0,0,1,1.258-.064q1.13.049,1.441.064c.187.007.536,0,1.037-.014s.823-.031.952-.031" transform="translate(-371.28 -355.703)" fill="#fff"/>
  <path id="패스_51974" data-name="패스 51974" d="M413.682,401.541c-.18-.648-.337-1.151-.479-1.512-.054-.145-.116-.294-.187-.442a1.594,1.594,0,0,1-.138-.475c-.022-.166-.071-.432-.147-.8a5.056,5.056,0,0,0-.342-1.063c-.076-.183-.734-1.614-.89-1.986,0,0-1.312-.823-2.048.121-.207.2-.867.924-.976,1.077a1.844,1.844,0,0,0-.242.47,9.9,9.9,0,0,0-.522,1.678c-.14.624-.264,1.194-.372,1.7-.067.418-.147.817-.245,1.191s-.024.088-.111.4a1.874,1.874,0,0,0-.09.273,3.722,3.722,0,0,0-.124.779,1.284,1.284,0,0,0,.676.778.907.907,0,0,0,.869-.166,8.277,8.277,0,0,0,.2-.874c.059-.33.005-.192.09-.57.086-.4.019-.187.121-.638a4.48,4.48,0,0,1,.219-.779c.041-.045.2-.066.486-.048a5.316,5.316,0,0,0,.717-.007c.218-.029.522-.079.918-.138s.61-.067.641-.007a1.418,1.418,0,0,1,.136.4c.038.168.073.314.107.429.074.244.171.53.285.871a2.253,2.253,0,0,1,.106.992,1.007,1.007,0,0,0,1,.429.972.972,0,0,0,.7-.531c-.062-.377-.185-.893-.363-1.545m-2.461-2.488c-.01.041-.088.067-.237.088s-.4.054-.771.1a5.055,5.055,0,0,1-.729.05c-.152,0-.233-.043-.245-.121a3.433,3.433,0,0,1,.18-.994c.1-.259.2-.556.308-.887l.13-.176c.045-.047.356-.387.569-.62.206.479.48,1.109.491,1.175.085.252.164.513.233.786a1.639,1.639,0,0,1,.073.6" transform="translate(-383.081 -355.807)" fill="#fff"/>
  <path id="패스_51975" data-name="패스 51975" d="M405.946,408.208c0-.147.005-.454.014-.911s-.009-.7-.06-.729c-.1-.054-.515.358-1.251,1.239a5.853,5.853,0,0,1-1.424,1.424c-.2-.026-.517-.306-.947-.85s-.7-.881-.819-1.033c-.2-.256-.435-.57-.7-.942s-.458-.536-.572-.511c-.1.054-.145.391-.145,1.016s-.009,1.116-.031,1.481c-.031.506-.043.956-.04,1.343s0,.767-.005,1.141a.825.825,0,0,1-.868.51.812.812,0,0,1-.788-.493c0-.219.014-.539.047-.961s.048-.807.048-1.149c0-.779.029-1.585.086-2.426s.124-1.65.2-2.43.29-1.165.613-1.2.717.2,1.184.707a11.634,11.634,0,0,1,.774.886c.332.423.664.824.994,1.222.073.1.258.335.55.719a2.627,2.627,0,0,0,.517.591c.105.014.3-.171.572-.563s.467-.672.574-.85a5.693,5.693,0,0,1,.468-.672c.164-.209.327-.4.486-.577a3.466,3.466,0,0,1,.539-.563,1.993,1.993,0,0,1,.43-.276,1.037,1.037,0,0,1,.788.33,1.019,1.019,0,0,1,.389.98c-.031.235-.048.655-.057,1.262s0,1.26.012,1.954c0,.729,0,1.441.007,2.143s0,1.26-.026,1.671c-.232.463-.518.672-.866.624s-.575-.323-.691-.829c-.009-.475-.012-1.115-.007-1.913s.007-1.256.007-1.365" transform="translate(-389.241 -350.132)" fill="#fff"/>
  <path id="패스_51976" data-name="패스 51976" d="M413.861,406.542a5.282,5.282,0,0,1,1.942.829,2.093,2.093,0,0,1,.814,1.908,2.609,2.609,0,0,1-.346,1.353,6.211,6.211,0,0,1-1.3,1.286,3.339,3.339,0,0,1-1.472.676,7,7,0,0,1-1.089.168,7.414,7.414,0,0,1-.8-.06,3.41,3.41,0,0,1-.994-.273.7.7,0,0,1-.137-.634,1.135,1.135,0,0,1,.422-.7c.4.019.771.05,1.108.086a2.66,2.66,0,0,0,1.8-.422,4.158,4.158,0,0,0,.874-.762,1.5,1.5,0,0,0,.23-.365,1.038,1.038,0,0,0,.1-.432.753.753,0,0,0-.164-.48,1.482,1.482,0,0,0-.423-.347,3.456,3.456,0,0,0-1.185-.418,12.9,12.9,0,0,0-1.281-.173,4.723,4.723,0,0,1-1.583-.465,1.552,1.552,0,0,1-.835-1.488,3.925,3.925,0,0,1,.206-1.3,2.487,2.487,0,0,1,.651-1.108,4.957,4.957,0,0,1,1.154-.733,3.149,3.149,0,0,1,1.313-.368,4.843,4.843,0,0,1,1.9.392,2.524,2.524,0,0,1,1.218.867.975.975,0,0,1,.017.532,1.7,1.7,0,0,1-.558.79,3.388,3.388,0,0,1-.453-.249c-.156-.1-.275-.183-.356-.247a2.774,2.774,0,0,0-.719-.418,2.161,2.161,0,0,0-.81-.156,2.056,2.056,0,0,0-.921.233,2.112,2.112,0,0,0-.75.6,1.281,1.281,0,0,0-.239.563,2.279,2.279,0,0,0-.048.55l.192.27.366.142c.327.045.674.092,1.04.147s.736.121,1.106.206" transform="translate(-381.057 -350.426)" fill="#fff"/>
  <path id="패스_51977" data-name="패스 51977" d="M420.385,404.908c-.14-.014-.387-.031-.734-.055a1.316,1.316,0,0,0-.662.055,7.8,7.8,0,0,0-.086,1.4c-.014.783,0,1.384.034,1.8a5.967,5.967,0,0,1-.029,1.077c-.038.378-.06.7-.06.973a2.827,2.827,0,0,0,.079.354c.043.152.1.34.187.567a1.4,1.4,0,0,1-.762.574,1.072,1.072,0,0,1-.83-.028,1.828,1.828,0,0,1-.32-.664,2.643,2.643,0,0,1-.123-.7c0-.273.019-.588.052-.945a6.365,6.365,0,0,0,.019-1.09q-.036-.633,0-1.934a3.71,3.71,0,0,0-.071-1.37,1.107,1.107,0,0,0-.6-.036c-.306.036-.594.067-.866.088l-.354.111-.385.188a1.042,1.042,0,0,1-.7-.482,1.1,1.1,0,0,1-.221-.878,1.834,1.834,0,0,1,.655-.422,3.769,3.769,0,0,1,.971-.249c.4-.045.807-.078,1.211-.1s.774-.035,1.106-.047c.283-.01.809-.007,1.583.009s1.427.052,1.968.1a1.768,1.768,0,0,1,.238.645,2.443,2.443,0,0,1-.04.786,5.36,5.36,0,0,1-.736.23,1.945,1.945,0,0,1-.522.038" transform="translate(-377.868 -349.862)" fill="#fff"/>
  <path id="패스_51978" data-name="패스 51978" d="M422.551,408.153c-.359.045-.728.074-1.1.1s-.648.035-.83.035a5.326,5.326,0,0,1,.033,1.025,8.355,8.355,0,0,0-.014.916,8.8,8.8,0,0,1,1.519-.216,10.244,10.244,0,0,1,1.424.01l.38-.01.416-.054c.147-.024.315-.052.5-.088a6.79,6.79,0,0,1,.691-.105,1.409,1.409,0,0,1,.4.757.84.84,0,0,1-.221.722,7.661,7.661,0,0,1-1.519.238,10.4,10.4,0,0,1-1.7.064,3.535,3.535,0,0,0-1.02.059c-.351.067-.69.128-1.016.178a1.35,1.35,0,0,1-.646-.071.958.958,0,0,1-.6-.372,1.429,1.429,0,0,1-.192-.574,2.686,2.686,0,0,1-.016-.651,5.281,5.281,0,0,0,.064-.878,5.532,5.532,0,0,0-.064-.887c-.022-.162-.043-.3-.062-.415l-.033-.254.016-.361.064-.311a2.6,2.6,0,0,0,.1-.563q.013-.293,0-.6c-.012-.233-.026-.463-.042-.693a5.547,5.547,0,0,1-.007-.676,1.51,1.51,0,0,1,.264-1,2.975,2.975,0,0,1,1.486-.221l1.2-.031c.377-.014.66-.017.85-.017a2.349,2.349,0,0,0,.4-.047.956.956,0,0,0,.384-.162.891.891,0,0,1,.672.432,1,1,0,0,1,.137.985,2.128,2.128,0,0,1-.658.223c-.176.024-.354.048-.534.078a6.048,6.048,0,0,1-1.075.057c-.463,0-.842,0-1.135.024l-.257.04-.111.23a2.778,2.778,0,0,0-.04.669,3.957,3.957,0,0,1-.007.651c-.012.152,0,.244.047.28l.271.057c.116,0,.263,0,.446-.009a7.02,7.02,0,0,0,.762-.073c.4-.043.785-.08,1.146-.121s.69-.054.987-.054a1.269,1.269,0,0,1,.325.75,1.019,1.019,0,0,1-.278.793c-.3.012-.622.033-.978.064s-.632.057-.835.079" transform="translate(-374.209 -349.935)" fill="#fff"/>
  <path id="패스_51979" data-name="패스 51979" d="M426.517,409.416a2.866,2.866,0,0,0-.394-.206.959.959,0,0,0-.359-.105c-.08,0-.093.088-.042.277s.093.378.133.57c.066.318.131.636.2.949s.121.608.181.9a1.289,1.289,0,0,1-.617.4,3.687,3.687,0,0,1-.79.105,5.651,5.651,0,0,1-.513-1.536q-.259-1.115-.484-2.423c-.076-.446-.154-.885-.235-1.32s-.154-.85-.22-1.236-.119-.769-.164-1.12a7.769,7.769,0,0,1-.069-.918,2.472,2.472,0,0,1,1.386-.8,8.443,8.443,0,0,1,2.255-.349,6,6,0,0,1,2.053.555,1.939,1.939,0,0,1,1.346,1.965,3.557,3.557,0,0,1-.178,1.211,2.167,2.167,0,0,1-.67.857,5.129,5.129,0,0,1-.677.468,7.516,7.516,0,0,1-.947.489c.354.183.736.361,1.141.541s.857.387,1.358.631a1.492,1.492,0,0,1-.389.992.886.886,0,0,1-.586.261c-.235-.067-.686-.237-1.36-.513a8.352,8.352,0,0,1-1.355-.648m-1.64-4.554a8.556,8.556,0,0,0,.18,1.087c.128.617.214,1.047.263,1.3a7.287,7.287,0,0,0,1.678-.56,3.779,3.779,0,0,0,1.453-.942l.1-.27.022-.233a.748.748,0,0,0-.614-.807,4.864,4.864,0,0,0-1.059-.2,7.133,7.133,0,0,0-1.293.135c-.487.092-.728.256-.726.492" transform="translate(-371.162 -350.218)" fill="#fff"/>
  <path id="패스_51980" data-name="패스 51980" d="M411.991,410.017c-.19-.709-.361-1.263-.511-1.654-.059-.159-.124-.321-.2-.484a1.856,1.856,0,0,1-.15-.515c-.021-.183-.074-.473-.156-.878a5.7,5.7,0,0,0-.363-1.161c-.081-.2-.786-1.763-.954-2.174,0,0-1.4-.9-2.188.138-.219.213-.926,1.006-1.042,1.175a2.2,2.2,0,0,0-.261.51,11.2,11.2,0,0,0-.555,1.839c-.149.683-.283,1.3-.4,1.853-.071.456-.157.892-.261,1.3s-.028.1-.119.432a2.6,2.6,0,0,0-.1.3,4.158,4.158,0,0,0-.131.85,1.384,1.384,0,0,0,.722.85.951.951,0,0,0,.928-.181,8.987,8.987,0,0,0,.216-.956c.064-.361.005-.209.1-.624.092-.432.017-.2.126-.695a4.3,4.3,0,0,1,.237-.85c.043-.055.218-.073.518-.059a4.976,4.976,0,0,0,.764-.007c.232-.033.56-.081.982-.149s.65-.074.686-.01a1.763,1.763,0,0,1,.147.441c.041.181.08.34.114.468.079.263.181.581.3.956a2.413,2.413,0,0,1,.112,1.08,1.042,1.042,0,0,0,1.823-.112c-.069-.415-.2-.975-.391-1.687m-2.63-2.718c-.01.041-.093.071-.251.1s-.432.057-.826.112a5.916,5.916,0,0,1-.779.054c-.162-.007-.249-.048-.261-.135a3.934,3.934,0,0,1,.19-1.084c.105-.287.214-.608.332-.969l.137-.192c.05-.05.38-.422.607-.679.219.52.517,1.215.524,1.286.092.275.176.562.251.859a1.691,1.691,0,0,1,.078.653" transform="translate(-384.658 -350.084)" fill="#fff"/>
</svg>
