<svg id="그룹_7212" data-name="그룹 7212" xmlns="http://www.w3.org/2000/svg" width="76.557" height="76.555" viewBox="0 0 76.557 76.555">
  <path id="패스_51812" data-name="패스 51812" d="M722.814,330.151l7.36-1.028V318.881l-7.37-1.028a31.678,31.678,0,0,0-1.068-3.985l5.856-4.564-5.122-8.87-6.861,2.779a32.175,32.175,0,0,0-2.934-2.95l2.768-6.833-8.87-5.122-4.491,5.762a31.521,31.521,0,0,0-4.09-1.116l-1-7.2H686.746l-1,7.134a31.7,31.7,0,0,0-4.178,1.1l-4.4-5.647-8.87,5.12,2.672,6.593a32.644,32.644,0,0,0-3.112,3.093l-6.563-2.661-5.12,8.872,5.554,4.331a31.588,31.588,0,0,0-1.149,4.284l-6.959.971V329.18l6.973.975a31.484,31.484,0,0,0,1.158,4.277l-5.549,4.327,5.122,8.87,6.574-2.663a31.861,31.861,0,0,0,3.119,3.085l-2.668,6.584,8.869,5.12,4.412-5.656a31.164,31.164,0,0,0,4.184,1.087l.992,7.121h10.244l1-7.21a32.187,32.187,0,0,0,4.089-1.122l4.484,5.749,8.872-5.12-2.774-6.842a31.989,31.989,0,0,0,2.927-2.96l6.848,2.777,5.12-8.87-5.858-4.569a31.558,31.558,0,0,0,1.054-3.99" transform="translate(-653.618 -285.753)" fill="#d71921"/>
  <path id="패스_51813" data-name="패스 51813" d="M681.169,309.791l3.807.34a2.646,2.646,0,0,1,2.419,2.437s-.017,1.752-1.31,2.241l2.267,5.151-2.568-.23-1.607-3.75-.873-.078-.347,3.9-2.57-.23Z" transform="translate(-634.127 -268.251)" fill="#fff" fill-rule="evenodd"/>
  <path id="패스_51814" data-name="패스 51814" d="M674.132,303.685a2.894,2.894,0,0,1,1.173,4.357s-1.709,3.278-4.462,1.536c0,0-3.053-1.232-.944-4.7a3.355,3.355,0,0,1,4.232-1.192" transform="translate(-642.304 -272.952)" fill="#fff" fill-rule="evenodd"/>
  <path id="패스_51815" data-name="패스 51815" d="M683.649,302.838s6.577.418,5.215,6.235c0,0-.691,4.614-4.676,4.363,0,0-2.535-.4-2.812-.463Z" transform="translate(-633.406 -273.313)" fill="#fff" fill-rule="evenodd"/>
  <path id="패스_51816" data-name="패스 51816" d="M672.349,303.565l1.329-2.1s-3.413-2.661-6.945-1.222a3.4,3.4,0,0,0-1.616,4.555s.5.88,3.093,2.411c0,0,3.183,1.91,1.263,3.634,0,0-1.6,1.968-4.362-1.941l-1.8,2.295s2.217,3.7,5.886,2.72a4.374,4.374,0,0,0,3.594-3.909,4.8,4.8,0,0,0-2.656-4.633s-3.017-1.109-2.437-2.138c0,0,.045-1.46,2.134-.752a8.833,8.833,0,0,1,2.511,1.077" transform="translate(-646.557 -275.512)" fill="#fff" fill-rule="evenodd"/>
  <path id="패스_51817" data-name="패스 51817" d="M668,310.48l4.692.061,1.12,8L671.1,318.5l-.191-2.106-1.666-.024-.381,2.231-2.631-.034Z" transform="translate(-644.436 -267.749)" fill="#fff" fill-rule="evenodd"/>
  <path id="패스_51818" data-name="패스 51818" d="M668.206,311.813l1.315.017.018,2.018-1.4-.02Z" transform="translate(-643.047 -266.779)" fill="#65b345"/>
  <path id="패스_51819" data-name="패스 51819" d="M675.451,313.339l.731-1.094s-1.457-2.39-4.681-.337a3.963,3.963,0,0,0,.484,4.916s2.628,1.526,4.367-.712l-.755-1.225a2.007,2.007,0,0,1-2.269.634,1.575,1.575,0,0,1-.358-2.324,1.813,1.813,0,0,1,2.482.142" transform="translate(-641.072 -267.316)" fill="#fff" fill-rule="evenodd"/>
  <path id="패스_51820" data-name="패스 51820" d="M672.632,309.46l8.467-.771.068,2.459-2.66.213.093,8.016-2.169.314-1.023-8.127-2.607.064Z" transform="translate(-639.774 -269.054)" fill="#fff" fill-rule="evenodd"/>
  <path id="패스_51821" data-name="패스 51821" d="M678.566,303.563l2.179.28,1.52,3.417.689-3.385,1.487.194-.84,7.289-1.19-.153-2.3-4.373-.5,3.908-2.017-.361Z" transform="translate(-636.167 -272.785)" fill="#fff" fill-rule="evenodd"/>
  <path id="패스_51822" data-name="패스 51822" d="M663.258,308.344l7.636,1.077-.307,2.191-4.661-.655-.39,2.751,4.55.641-.332,2.356-4.379-.614-.83,5.9-3.088-.435Z" transform="translate(-647.911 -269.305)" fill="#fff" fill-rule="evenodd"/>
  <path id="패스_51823" data-name="패스 51823" d="M679.963,310.61s3.05-.157,2.9,3.582a3.334,3.334,0,0,1-3.586,3.2s-3.29-.043-2.649-3.921a3.12,3.12,0,0,1,3.332-2.857" transform="translate(-636.923 -267.656)" fill="#fff" fill-rule="evenodd"/>
  <path id="패스_51824" data-name="패스 51824" d="M673.185,303.888l2.146-.226.486,4.664,2.277-.238-.481-4.565,2.018-.213.717,6.8-6.251.656Z" transform="translate(-639.371 -272.969)" fill="#fff" fill-rule="evenodd"/>
  <path id="패스_51825" data-name="패스 51825" d="M683.916,310.073l1.834-.348,1.824,2.8,1.127-3.179,1.706-.26-1.689,4.523.405,2.666-1.914.287-.427-2.8Z" transform="translate(-631.558 -268.763)" fill="#fff" fill-rule="evenodd"/>
  <path id="패스_51826" data-name="패스 51826" d="M683.992,304.734,683,308.983s1.868.973,2.684-1.464a2.153,2.153,0,0,0-1.69-2.786" transform="translate(-632.226 -271.933)" fill="#65b345"/>
  <path id="패스_51827" data-name="패스 51827" d="M682.122,310.971s1.956-.149,1.846,1.091c0,0,.149,1.448-2.027.928Z" transform="translate(-632.996 -267.395)" fill="#65b345"/>
  <path id="패스_51828" data-name="패스 51828" d="M679.157,311.751s1.576-.128,1.3,1.884a1.574,1.574,0,0,1-1.737,1.158,1.476,1.476,0,0,1-1.1-1.982,1.394,1.394,0,0,1,1.536-1.059" transform="translate(-636.193 -266.83)" fill="#65b345"/>
  <path id="패스_51829" data-name="패스 51829" d="M671.994,304.587s1.576-.128,1.3,1.884a1.577,1.577,0,0,1-1.739,1.158,1.474,1.474,0,0,1-1.1-1.982,1.4,1.4,0,0,1,1.536-1.059" transform="translate(-641.41 -272.045)" fill="#65b345"/>
  <path id="패스_51830" data-name="패스 51830" d="M689.875,304.257l2.6.032-.169,12.593-2.339-.03.1-7.439-3.487.108Z" transform="translate(-629.62 -272.28)" fill="#fff" fill-rule="evenodd"/>
  <path id="패스_51831" data-name="패스 51831" d="M688.393,304.7l1.73-.965,2.5-.017-.16,12.174-1.527,1.33.113-12.537Z" transform="translate(-628.298 -272.674)" fill="#529539"/>
  <path id="패스_51832" data-name="패스 51832" d="M691.085,304.658l1.575-.969-2.6-.088-1.679,1.124Z" transform="translate(-628.309 -272.757)" fill="#72be44"/>
</svg>
