<svg id="그룹_7216" data-name="그룹 7216" xmlns="http://www.w3.org/2000/svg" width="86.715" height="61.346" viewBox="0 0 86.715 61.346">
  <path id="패스_51879" data-name="패스 51879" d="M329.808,298.075l-.379-4.277-5.8.689.679,4.884" transform="translate(-323.633 -291.792)" fill="#db3f2c"/>
  <path id="패스_51880" data-name="패스 51880" d="M324.026,299.81l2.59,18.61,3.967.263,5.331-13.864,5.174,12.61,6.159-.733,2.077-22.658-5.243-.845-.724,15.518L335.648,296.4l-5.39,10.439-.736-8.327" transform="translate(-323.347 -292.233)"/>
  <path id="패스_51881" data-name="패스 51881" d="M343.475,296.166l-.734-3.273-3.538.209.242,3" transform="translate(-312.297 -292.451)" fill="#ea9a41"/>
  <path id="패스_51882" data-name="패스 51882" d="M339.343,294.748l1.728,21.223,3.271-.033.3-7.09c.131-3.2,3.56-6.161,4.712-1.583a9.413,9.413,0,0,1,0,2.635c-.064,1.491-.128,3.01-.188,4.488l4.23.556c-.335-3.681.555-12.024-3.785-13.476a6.026,6.026,0,0,0-5.062.448l-.372-3.529-.8-3.572" transform="translate(-312.195 -291.1)"/>
  <path id="패스_51883" data-name="패스 51883" d="M363.651,294.342l-.246,3.277,5.153-.145-.1,3.717-4.5.268-.191,13.081-3.045.343-1.429-13.146-3.887-.251-.221-3.7,4.721.686-.266-4.443" transform="translate(-300.66 -291.624)"/>
  <path id="패스_51884" data-name="패스 51884" d="M357.818,295.043l-.128-2.148,4.341-.257-.2,2.719" transform="translate(-298.837 -292.637)" fill="#3b9449"/>
  <path id="패스_51885" data-name="패스 51885" d="M371.34,298.712l.975.671,2.558-2.018-2.21-2.231" transform="translate(-288.898 -290.819)" fill="#55bad7"/>
  <path id="패스_51886" data-name="패스 51886" d="M376.155,295.606c-1.548-1.519-5.06-1.338-6.738.057a5.23,5.23,0,0,0-2.01,5.549A6.362,6.362,0,0,0,370.9,305.1c.847.41,1.827.52,2.658.912,3.105,1.455-.893,5.1-3.06.807l-3.935,1.573c.994,2.582,3.99,4.355,6.639,4.585a5.881,5.881,0,0,0,5.843-4.842c.344-2.352-1.149-3.864-3.166-4.766-1.137-.506-3.461-1.006-4.037-2.3-.745-1.662,1.087-2.507,2.539-2.224l.441.3" transform="translate(-292.378 -291.252)"/>
  <path id="패스_51887" data-name="패스 51887" d="M351.665,295.049l-1.649.1-.238,3.105,2.16-.026" transform="translate(-304.597 -290.881)" fill="#335197"/>
  <path id="패스_51888" data-name="패스 51888" d="M353.141,298.267l.79-.009,1.574.468.7,2.347c-.067-.23-3.054-.318-3.439-.278a4.192,4.192,0,0,0-3.1,2.008c-1.531,2.058-2.172,7.949-.767,10.291a5.38,5.38,0,0,0,4.044,1.744c.771-.1,1.395-.826,2.031-1.322l1.341-1.685.532,2.418,3.073-.325c-.1-3.2-.225-6.406-.285-9.608-.041-2.171.138-4.5-.539-6.6-.843-2.608-2.9-2.848-5.364-2.682l-.869.05" transform="translate(-305.8 -290.919)"/>
  <path id="패스_51889" data-name="패스 51889" d="M350.927,300.833c-1.547,1.286-1.391,5.967,1.288,5.464,2.471-.461,3.164-5.259.321-5.772a1.871,1.871,0,0,0-1.609.308" transform="translate(-304.48 -286.93)" fill="#d96097"/>
  <path id="패스_51890" data-name="패스 51890" d="M366.046,294.866c-.031.354-1.163.2-1.35.15-1.5-.4-.762-2.181.5-2.285.85-.069,2.554.506,2.286,1.6-.048.194-1.108,2.425-1.113,2.423l-.47-.213Z" transform="translate(-294.344 -292.572)"/>
  <path id="패스_51891" data-name="패스 51891" d="M362.892,316.4a2.831,2.831,0,0,1,1.654-1.586,1.973,1.973,0,0,1,2.212,1.141c.518,1.88-.665,3.057-2.264,3.874a7.122,7.122,0,0,0-2.029,1.3c-1.576,1.609-1.756,3.553-2.067,5.677-.038.27-.074.541-.114.807l4.092.492c.256.028.42-1.7.446-1.894a3.294,3.294,0,0,1,1.2-2.561c1.156-.689,2.609-.892,3.589-1.87a7.053,7.053,0,0,0,1.818-3.572,6.583,6.583,0,0,0,.088-2.17,6.76,6.76,0,0,0-5.34-5.284,7.13,7.13,0,0,0-3.492.035,6.378,6.378,0,0,0-2.628,1.491,7.062,7.062,0,0,0-1.578,2.834" transform="translate(-298.258 -279.592)"/>
  <path id="패스_51892" data-name="패스 51892" d="M358.77,313.193l-.678,2.454,3.885,1.114,1.2-2.282" transform="translate(-298.544 -277.67)" fill="#3b9449"/>
  <path id="패스_51893" data-name="패스 51893" d="M363.416,322.855c-.57-1.628-3.525-2.414-4.054-.311a2.051,2.051,0,0,0,1.179,2.309,2.566,2.566,0,0,0,2.532-.081,2.188,2.188,0,0,0,.344-1.916" transform="translate(-297.662 -271.789)"/>
  <path id="패스_51894" data-name="패스 51894" d="M349.469,326.56l.057,2.99,4.5-.27-.183-3.085" transform="translate(-304.822 -268.204)" fill="#ffca05"/>
  <path id="패스_51895" data-name="패스 51895" d="M343.315,313.991l-.332-3.024-5.326.638.22,3.7" transform="translate(-313.422 -279.291)" fill="#c6679c"/>
  <path id="패스_51896" data-name="패스 51896" d="M337.785,315.629c.059,1.374.159,2.744.245,4.111.131,2.074.15,4.156.406,6.218a12.612,12.612,0,0,0,1.436,5.117c1.958,3.219,6.892,5.354,10.526,3.98a7.111,7.111,0,0,0,3.318-2.72,12.443,12.443,0,0,0,1.621-5.411c.261-2.086-.339-15.473-.392-16.4l-5.259.845c.1.826.46,4.533.506,4.965.218,2.022.356,4.049.437,6.081.073,1.813.346,3.888-.209,5.654-.567,1.818-2.647,3.2-4.548,2.207-2.246-1.168-2.393-4.111-2.409-6.321-.022-2.91-.213-9.346-.242-9.643" transform="translate(-313.329 -279.615)"/>
  <path id="패스_51897" data-name="패스 51897" d="M354.446,335.449l-.437-7.37c2.813-.432,6.1-1.837,7.052-4.763.729-2.269.791-5.4-.653-7.433a5.956,5.956,0,0,0-4.9-2.393,16.673,16.673,0,0,0-6.871,1.837l1.184,15.422.249,5.065" transform="translate(-305.429 -277.454)"/>
  <path id="패스_51898" data-name="패스 51898" d="M351,316.082l.757,5.8s5.808-1.445,4.016-4.668c0,0-.99-2.046-4.773-1.135" transform="translate(-303.705 -275.737)" fill="#f48120"/>
</svg>
