<svg id="그룹_7209" data-name="그룹 7209" xmlns="http://www.w3.org/2000/svg" width="77.021" height="64.513" viewBox="0 0 77.021 64.513">
  <path id="패스_45044" data-name="패스 45044" d="M384.351,216.405s-15.624-25.052-32.773-10.31,3.966,56.042,18.326,59.175c24.4,5.326,58.154-21.275,51.411-41.01-6.874-20.115-30.551-14.2-36.964-7.856" transform="translate(-345.167 -201.449)" fill="#e01b22"/>
  <rect id="사각형_4186" data-name="사각형 4186" width="10.563" height="3.282" transform="translate(11.473 27.413) rotate(-71.999)" fill="#fff"/>
  <path id="패스_45045" data-name="패스 45045" d="M360.211,213.107l3.9.7-1.581,8.809,6.109,1.1-.518,2.9-10.007-1.794Z" transform="translate(-335.743 -192.961)" fill="#fff"/>
  <path id="패스_45046" data-name="패스 45046" d="M348.8,226.823l3.7.32a2.925,2.925,0,0,0,.273,1.46,2.041,2.041,0,0,0,1.581,1.026,1.876,1.876,0,0,0,1.332-.2,1.157,1.157,0,0,0,.294-1.792,4.981,4.981,0,0,0-1.859-1.032,8.4,8.4,0,0,1-3.387-2.088,3.148,3.148,0,0,1-.719-2.618,3.413,3.413,0,0,1,.836-1.763,3.769,3.769,0,0,1,1.887-1.113,7.844,7.844,0,0,1,3.149-.033,6.284,6.284,0,0,1,3.522,1.46,3.988,3.988,0,0,1,1.058,3.109l-3.662-.335a2.014,2.014,0,0,0-.425-1.336,1.961,1.961,0,0,0-1.23-.582,1.565,1.565,0,0,0-1.063.133.9.9,0,0,0-.451.653.709.709,0,0,0,.2.586,3.134,3.134,0,0,0,1.224.664,16.243,16.243,0,0,1,3.453,1.669,3.887,3.887,0,0,1,1.379,1.647,3.642,3.642,0,0,1,.213,1.953,4.1,4.1,0,0,1-1,2.15,4.248,4.248,0,0,1-2.091,1.28,7.492,7.492,0,0,1-3.085.074q-3.178-.48-4.215-1.913a5.028,5.028,0,0,1-.906-3.38" transform="translate(-342.532 -188.778)" fill="#fff"/>
  <path id="패스_45047" data-name="패스 45047" d="M362.3,222.773l-1.5,2.371,1.3.823-1.115,1.764-1.3-.823-1.408,2.228a1.453,1.453,0,0,0-.263.579.513.513,0,0,0,.276.458,3.087,3.087,0,0,0,.826.308l-.874,1.766a8.827,8.827,0,0,1-1.757-.836,3.313,3.313,0,0,1-1.154-1.052,1.665,1.665,0,0,1-.175-1.09,4.959,4.959,0,0,1,.76-1.649l1.4-2.207-.864-.55,1.115-1.763.866.546.724-1.144Z" transform="translate(-337.911 -186.121)" fill="#fff"/>
  <path id="패스_45048" data-name="패스 45048" d="M361.41,228.272a2.312,2.312,0,0,0,.434,1.464,1.247,1.247,0,0,0,1.956-.048,2.383,2.383,0,0,0,.339-1.522,2.259,2.259,0,0,0-.427-1.431,1.192,1.192,0,0,0-.969-.448,1.241,1.241,0,0,0-.983.512,2.284,2.284,0,0,0-.349,1.474m-2.8.083a3.773,3.773,0,0,1,1.039-2.838,4.774,4.774,0,0,1,6.325.009,4.124,4.124,0,0,1-.057,5.387,4.173,4.173,0,0,1-3.038,1.184,4.223,4.223,0,0,1-2.855-.828,3.687,3.687,0,0,1-1.414-2.914" transform="translate(-335.383 -184.795)" fill="#fff"/>
  <path id="패스_45049" data-name="패스 45049" d="M364.793,225.043l2.57.461-.213,1.2a2.916,2.916,0,0,1,.959-.938,1.622,1.622,0,0,1,1.026-.116,2.86,2.86,0,0,1,1.26.627l-1.208,1.839a2.181,2.181,0,0,0-.731-.342.962.962,0,0,0-.918.3,4.759,4.759,0,0,0-.855,2.323l-.441,2.454-2.758-.494Z" transform="translate(-331.83 -184.271)" fill="#fff"/>
  <path id="패스_45050" data-name="패스 45050" d="M369.333,227.191l2.5,1.208-3.221,6.689-2.5-1.206Zm1.217-2.528,2.5,1.208-.829,1.721-2.5-1.2Z" transform="translate(-329.917 -184.547)" fill="#fff"/>
  <path id="패스_45051" data-name="패스 45051" d="M374.32,231.2a1.914,1.914,0,0,0-.238-1.239,1.368,1.368,0,0,0-2.013-.15,2,2,0,0,0-.484.933Zm2.566,1.811-5.532-.921a1.861,1.861,0,0,0,.192,1.075,1.311,1.311,0,0,0,.97.653,1.514,1.514,0,0,0,.809-.081,1.865,1.865,0,0,0,.567-.394l2.673.722a3.972,3.972,0,0,1-1.77,1.329,5.458,5.458,0,0,1-2.608.059,5.209,5.209,0,0,1-2.179-.785,3.376,3.376,0,0,1-1.142-1.535,4.029,4.029,0,0,1-.188-2.191,3.782,3.782,0,0,1,1.543-2.6,4.114,4.114,0,0,1,3.156-.569,5.275,5.275,0,0,1,2.357.881,3.237,3.237,0,0,1,1.13,1.609,5.209,5.209,0,0,1,.076,2.433Z" transform="translate(-328.099 -182.349)" fill="#fff"/>
  <path id="패스_45052" data-name="패스 45052" d="M373.586,231.951l2.331,1.386a1.366,1.366,0,0,0-.026.831,1.43,1.43,0,0,0,.529.636,1.33,1.33,0,0,0,.828.3.535.535,0,0,0,.448-.223.511.511,0,0,0,.022-.556,5.626,5.626,0,0,0-.778-.914,12.07,12.07,0,0,1-1.319-1.528,2.074,2.074,0,0,1-.328-1.127,1.883,1.883,0,0,1,.377-1.161,1.911,1.911,0,0,1,1.047-.759,2.423,2.423,0,0,1,1.36.031,5.838,5.838,0,0,1,1.7.914,6.546,6.546,0,0,1,1.4,1.255,2.39,2.39,0,0,1,.454,1.089,3.1,3.1,0,0,1-.111,1.3l-2.248-1.3a.929.929,0,0,0,.036-.62,1.311,1.311,0,0,0-.5-.636,1.081,1.081,0,0,0-.641-.257.508.508,0,0,0-.408.206.437.437,0,0,0-.017.484,4.577,4.577,0,0,0,.8.883,7.731,7.731,0,0,1,1.379,1.531,2.216,2.216,0,0,1,.351,1.239,1.982,1.982,0,0,1-.382,1.127,2.271,2.271,0,0,1-1.014.772,2.528,2.528,0,0,1-1.5.081,5.506,5.506,0,0,1-1.966-.989,5.08,5.08,0,0,1-1.911-2.077,2.542,2.542,0,0,1,.085-1.923" transform="translate(-324.646 -181.567)" fill="#fff"/>
  <path id="패스_45053" data-name="패스 45053" d="M370.3,217.427l3.221,1.516-.834,5.855,4.038-4.346,3.123,1.469-7.232,6.454-2.751-1.3Z" transform="translate(-327.188 -189.816)" fill="#fff"/>
  <path id="패스_45054" data-name="패스 45054" d="M381.214,224.068a2.257,2.257,0,0,0-.458-1.438,1.688,1.688,0,0,0-2.452.085,2.335,2.335,0,0,0-.46,1.173Zm3.38,1.82-6.847-.366a2.223,2.223,0,0,0,.38,1.255,1.617,1.617,0,0,0,1.26.65,1.915,1.915,0,0,0,.97-.2,2.247,2.247,0,0,0,.627-.539l3.34.493a4.831,4.831,0,0,1-1.967,1.84,6.718,6.718,0,0,1-3.155.418,6.406,6.406,0,0,1-2.756-.648,4.071,4.071,0,0,1-1.593-1.675,4.771,4.771,0,0,1-.529-2.589,4.494,4.494,0,0,1,1.519-3.308,5.1,5.1,0,0,1,3.764-1.092,6.615,6.615,0,0,1,2.988.738,3.929,3.929,0,0,1,1.595,1.763,6.114,6.114,0,0,1,.425,2.881Z" transform="translate(-323.945 -187.862)" fill="#fff"/>
  <path id="패스_45055" data-name="패스 45055" d="M368.644,218.686s5.965-5.85,7.911-2.3-6.862,11.8-7.733,11.711-7.433-5.7-6.161-9.7,3.435-3.079,5.983.285" transform="translate(-332.548 -191.406)" fill="#ffca05"/>
  <path id="패스_45056" data-name="패스 45056" d="M354.7,209.164l.046-4-1.4.005.009-.818,3.767-.014-.01.818-1.4.005-.046,4Z" transform="translate(-339.216 -199.348)" fill="#d0d2d3"/>
  <path id="패스_45057" data-name="패스 45057" d="M357.4,208.977l.1-.513a1.428,1.428,0,0,1-.569.351,1.343,1.343,0,0,1-.67.05,1.23,1.23,0,0,1-.582-.266.887.887,0,0,1-.309-.5,1.946,1.946,0,0,1,.024-.785l.422-2.184.892.164-.3,1.586a4.446,4.446,0,0,0-.123.9l.13.292.313.156a.7.7,0,0,0,.437-.054l.311-.275a3.848,3.848,0,0,0,.244-.918l.282-1.458.893.162-.66,3.435Z" transform="translate(-337.76 -198.768)" fill="#d0d2d3"/>
  <path id="패스_45058" data-name="패스 45058" d="M360.088,210.035l-.843-.34.679-1.652a2.72,2.72,0,0,0,.221-.7l-.074-.311-.252-.2a.688.688,0,0,0-.439-.036.651.651,0,0,0-.368.226,3.173,3.173,0,0,0-.366.719l-.6,1.467-.84-.34,1.325-3.24.778.313-.2.475a1.364,1.364,0,0,1,1.261-.116,1.286,1.286,0,0,1,.467.308l.24.4.017.425a2.86,2.86,0,0,1-.188.594Z" transform="translate(-336.403 -198.407)" fill="#d0d2d3"/>
  <path id="패스_45059" data-name="패스 45059" d="M360.261,211.068l2.418-3.2-1.11-.854.493-.653,2.978,2.288-.495.653-1.108-.856-2.422,3.2Z" transform="translate(-334.178 -197.875)" fill="#d0d2d3"/>
  <path id="패스_45060" data-name="패스 45060" d="M363.1,212.519l.278-.442a1.423,1.423,0,0,1-.655.114,1.3,1.3,0,0,1-.638-.206,1.24,1.24,0,0,1-.441-.463.913.913,0,0,1-.1-.584,2.059,2.059,0,0,1,.308-.726l1.185-1.882.767.487-.862,1.369a4.445,4.445,0,0,0-.442.8l.014.323.23.263a.709.709,0,0,0,.423.112.668.668,0,0,0,.389-.138,3.9,3.9,0,0,0,.56-.767l.792-1.26.765.487-1.861,2.964Z" transform="translate(-333.251 -196.439)" fill="#d0d2d3"/>
  <path id="패스_45061" data-name="패스 45061" d="M366.658,213.635l-.869-.251.5-1.713a2.84,2.84,0,0,0,.149-.719l-.107-.3-.273-.174a.717.717,0,0,0-.439.012l-.342.264a3.086,3.086,0,0,0-.292.753l-.448,1.517-.873-.249.988-3.358.805.23-.143.492a1.372,1.372,0,0,1,1.244-.251,1.335,1.335,0,0,1,.494.257l.283.373a1.041,1.041,0,0,1,.059.422,3.018,3.018,0,0,1-.126.608Z" transform="translate(-331.699 -195.646)" fill="#d0d2d3"/>
</svg>
