<svg id="그룹_7222" data-name="그룹 7222" xmlns="http://www.w3.org/2000/svg" width="94.793" height="60.082" viewBox="0 0 94.793 60.082">
  <path id="패스_51948" data-name="패스 51948" d="M340,431.468l.389-13.713-2.064-20.1.908-17.939-20.63.8-18.576-.986-28.784.992-15.629-.415-9.477,1.246,1.039,18.452L245.91,417.95l1.146,13.777-.16,7.753,13.351-.959,16.942,1.083,17.688-1.283,23.849.986,21.978-1.06Z" transform="translate(-245.91 -379.523)" fill="#007dc4"/>
  <path id="패스_51949" data-name="패스 51949" d="M266.45,396.82h0v0Z" transform="translate(-230.955 -366.929)" fill="#fff"/>
  <path id="패스_51950" data-name="패스 51950" d="M271.153,397.8s.634-2.324,1.26-5.072c.724-3.18,1.457-6.848,1.491-7.007.268.054,3.328.648,3.612.705-.074.315-4.189,17.628-4.258,17.908-.257-.047-3.4-.55-3.525-.57l-3.963-11.01-5.34,8.831c-.138-.01-2.8-.105-3.064-.128.007-.29-.543-15.071-.555-15.34.238-.042,2.563-.416,2.846-.463.033.325.807,11.392.807,11.392l5.172-11.374,1.7-.031,3.529,12.214.2.294Zm1.908-12.643-1.778,9.4-2-7.509L267.92,385l-2.675.107-3.591,8.338-.676-6.271-.791-1.873-4,.391.676,16.273,2.2,1.2,2.506-.017,4.474-7.669,3.168,8.793,1.611,1.5,3.71.546,3.959-17.9-.562-2.542Z" transform="translate(-238.425 -375.537)" fill="#fff"/>
  <path id="패스_51951" data-name="패스 51951" d="M288.873,391.863s-1.982-1.832-2.653-1.916a3.838,3.838,0,0,0-3.555,1.685c-.2.582.112,9.112.112,9.112l-2.991.162s-.588-3.683-.838-5.846-.691-7.408-.691-7.408l3.8-.23.143,2.285s2.578-2.115,4.308-1.991a7.948,7.948,0,0,1,4.213,2.1Zm1.635-3.4a7.012,7.012,0,0,0-3.225-1.676,6.018,6.018,0,0,0-4.362,1.346l-.093-1.519s-2.21.1-2.763.138-2.58.078-2.58.078l.769,8.958.641,6.123,2.82-.263,2.247-.254-.425-5.086s-.287-3.8.066-4.4a2.429,2.429,0,0,1,2.822-.949,13.921,13.921,0,0,1,2.425,2.316l2.936-3.3Z" transform="translate(-222.921 -374.36)" fill="#fff"/>
  <path id="패스_51952" data-name="패스 51952" d="M277.438,397.543c-1.275.982-4.009,1.251-4.541-.449s-.346-3.3.933-4.287a2.446,2.446,0,0,1,3.206.358c.94,1.073,1.683,3.4.4,4.379m-1.243-7.355a4.914,4.914,0,0,0-5.485,2.521,5.718,5.718,0,0,0,.323,5.8c.973,1.491,2.552,2.525,3.759,2.457,1.436-.085,4.851-.679,5.551-4.4a5.472,5.472,0,0,0-.793-4.051,5.361,5.361,0,0,0-3.354-2.324" transform="translate(-228.317 -371.843)" fill="#fff"/>
  <path id="패스_51953" data-name="패스 51953" d="M282.222,397.788c-.828,4.384-4.814,5.087-6.489,5.184-1.472.085-3.384-1.141-4.54-2.915a6.746,6.746,0,0,1-.391-6.838,5.813,5.813,0,0,1,6.487-3,6.394,6.394,0,0,1,3.985,2.762,6.5,6.5,0,0,1,.947,4.809m-.828-7.422c-2.236-1.8-3.836-1.576-6.073-1.68a5.827,5.827,0,0,0-4.46,2.139,9.859,9.859,0,0,0-2.032,6.767c.287,2.4,1.847,5.684,4.979,6.7s6.579-.318,8.742-3.8,1.082-8.328-1.156-10.127" transform="translate(-229.256 -372.856)" fill="#fff"/>
  <path id="패스_51954" data-name="패스 51954" d="M269.125,409.906a2.52,2.52,0,0,1-2.812.588c-1.778-.655-1.927-2.711-.214-4.068a3.819,3.819,0,0,1,3.033.918,11.029,11.029,0,0,0-.007,2.563m2.051-2.433c-.06-2.931-.878-6.707-5.184-7.116l-.425,1.284s3.385,1.4,3.525,3.648a3.679,3.679,0,0,0-4.832-.772c-2.869,1.707-3.185,7.213-.161,8.343s5.9-1.944,5.9-1.944,1.851,1.7,3.024,1.134l.577-1.042s-2.362-.371-2.43-3.534" transform="translate(-234.219 -364.354)" fill="#fff"/>
  <path id="패스_51955" data-name="패스 51955" d="M287.426,411.377c-1.986-1.084-3.873-3-2.6-6.952s5.195-4.163,7.725-2.673,1.792,5.545,1.792,5.545l-8.048-1.006a4.3,4.3,0,0,0,1.687,3.588c1.811,1.147,4.973-.888,4.973-.888l.615.881c-1.388,1.694-4.161,2.592-6.149,1.505m5.667-3.007s-3.029,1.407-4.372,1.248-1.709-2.518-1.709-2.518l7.844.919a13.084,13.084,0,0,0,.124-2.9,5,5,0,0,0-2.29-3.919,7.678,7.678,0,0,0-4.281-.956c-3.188.743-4.351,3.211-4.813,6.069-.5,3.105,2.827,6.416,6.244,6.193a6.749,6.749,0,0,0,4.365-2.611Z" transform="translate(-218.507 -364.465)" fill="#fff"/>
  <path id="패스_51956" data-name="패스 51956" d="M288.9,402.314a2.8,2.8,0,0,1,1.979,1.823l-4.322-.743a2.642,2.642,0,0,1,2.343-1.08m2.9,2.606a3.378,3.378,0,0,0-3.408-3.372c-2.141-.128-2.857,2.329-2.857,2.329Z" transform="translate(-217.06 -363.49)" fill="#fff"/>
  <path id="패스_51957" data-name="패스 51957" d="M273.269,409.061c-.187.022-2.024.28-2.245.309-.085-.228-3.079-8.34-3.211-8.687.282-.043.817-.156,1.026-.185.076.259,2.381,7.809,2.381,7.809l1.6-.149.031-.173s.4-1.92.731-3.738c.3-1.668.586-3.282.71-4.061.042-.259.2-.385.375-.375.487.031,1.175.159,1.436.176-.586,1.453-2.5,7.833-2.839,9.073m1.23-9.921-.371-.074s-.705,2.744-1.1,4.911c-.337,1.884-.567,3.385-.594,3.537-.24-.064-.793.109-.928.071-.052-.169-2.343-7.773-2.343-7.773l-2.086.361,3.677,9.912,2.941-.373.029-.105c.3-1.1,1.013-3.014,1.545-4.8.712-2.373,1.306-4.5,1.491-4.787l.112-.524Z" transform="translate(-230.496 -365.294)" fill="#fff"/>
  <path id="패스_51958" data-name="패스 51958" d="M274.377,410.587c-.161.04-3.233.425-3.5.489-.093-.266-3.651-10.291-3.769-10.635.318-.054,2.487-.432,2.727-.473.079.264,2.281,7.531,2.281,7.531h.536s.323-2.511.792-4.878c.344-1.73.795-3.368.819-3.5.147.031,1.006.152,1.935.337.833.162,1.381.23,1.526.261-.1.323-3.3,10.7-3.349,10.865m2.247-11.881-2.653-.382-.031.162a21.476,21.476,0,0,0-.907,3.264c-.365,1.832-.577,4.211-.683,4.749l-2.174-7.237-3.664.615.071.88.709,1.395,2.366,6.892.435,1.866.486.828,4.192-.7.664-1.151.275-1.419,2.753-9.247Z" transform="translate(-230.909 -365.835)" fill="#fff"/>
  <path id="패스_51959" data-name="패스 51959" d="M260.163,400.715l-2.359.064v1.108s.131,6.1-.048,9.3l1.847.1.257-7.358a4.553,4.553,0,0,1,5.081.064l.48-.677s-2.535-2.361-5.409-.845Z" transform="translate(-237.285 -364.094)" fill="#fff"/>
  <path id="패스_51960" data-name="패스 51960" d="M265.4,404.871a4.522,4.522,0,0,0-4.878-.322l-.074.043s-.164,7.113-.174,7.433c-.282-.019-2.221-.171-2.483-.188.1-1.991.047-3.584.047-6.321,0-2.357-.083-4.1-.088-4.659.275-.009,2.857-.09,3.185-.1-.042.287-.223,1.488-.223,1.488l.429-.128a5.443,5.443,0,0,1,5.024,1.42c-.086.173-.631,1.07-.762,1.331m1.263-1.543c-.026-.024-2.435-2.376-5.378-1.7l.209-1.458-.19.007-4.007.111v.159c0,.092.249,7.811.038,11.718l-.01.155,3.506.344s.154-7.486.159-7.664a3.992,3.992,0,0,1,4.5.489l.154.121,1.1-2.2Z" transform="translate(-237.622 -364.489)" fill="#fff"/>
  <path id="패스_51961" data-name="패스 51961" d="M284.659,415.084c.074-2.44-.3-8.85-.3-9.5,0-.857.266-5.775.266-5.775l.112-3.131-3.022.057-1.035,18.138Z" transform="translate(-220.591 -367.035)" fill="#fff"/>
  <path id="패스_51962" data-name="패스 51962" d="M264.953,398.68l-5.06.263-.117,8.8s.679,7.452.187,7.628a24.218,24.218,0,0,1-3.484.088l.427-16.444-6.019.3-.613,1.123-.327-.145.162-.949.465-1.336s11.6-.949,12.264-.8a20.023,20.023,0,0,0,2.824.1l.2,1.322.214,1.327-.527-.047Zm2.1-.892L266,396.34s-4.69-.118-8.912.116-7.153.705-7.153.705l-1.028,4.137,1.821.662,1.1-1.407,4.4-.109-.429,15.949,1.329,1.016a28.462,28.462,0,0,0,4.533-.311c.47-.354-.156-4.263-.156-5.316s.156-11.806.156-11.806l2.893-.311.626.779.658.746,1.756.1Z" transform="translate(-243.727 -367.3)" fill="#fff"/>
  <path id="패스_51963" data-name="패스 51963" d="M300.423,403.49a3.7,3.7,0,0,0-4.541,1.206L297,411.237l-2.6.7c-.608-3.287-2.215-9.038-2.215-9.038l-.368-1.313,3.3-.969.346,1.792a4.672,4.672,0,0,1,5.013-1.014Zm.859-.327c-.017-.316.014-3.854.014-3.854l-.743.145a22.487,22.487,0,0,1-3-.059,21.627,21.627,0,0,0-2.578-.188l-3.631.188s-.073,6.859-.038,7.035-.607,6.067-.607,6.067,3.017.378,3.444.354,6.931-.572,6.931-.572.024-1.611.007-1.929-.228-3.1-.244-3.418.461-3.449.446-3.771" transform="translate(-213.301 -365.193)" fill="#fff"/>
  <path id="패스_51964" data-name="패스 51964" d="M281.1,402.818a3.377,3.377,0,0,0-4.476-1.713c-2.013.747-1.682,3.278-1.682,3.278Z" transform="translate(-224.787 -364.02)" fill="#fff"/>
  <path id="패스_51965" data-name="패스 51965" d="M279.424,411.441c-2.255-.2-4.754-1.191-5.179-5.319s3.079-5.9,6-5.559,3.871,4.355,3.871,4.355l-7.769,2.319a4.3,4.3,0,0,0,2.991,2.6c2.117.321,4.192-2.813,4.192-2.813l.916.556c-.588,2.11-2.761,4.047-5.018,3.857m6.048-6.878a6.817,6.817,0,0,0-7.35-5.457c-3.32.252-5.71,4.006-5.084,7.611a6.352,6.352,0,0,0,6.928,5.532c4.059-.382,6.131-4.077,5.506-7.685" transform="translate(-226.23 -365.28)" fill="#fff"/>
  <path id="패스_51966" data-name="패스 51966" d="M293.308,401.887a20.713,20.713,0,0,1-4.671.676c-1.6-.105-2.781-2.457-2.781-3.42s2.888-3.747,3.85-3.959,2.78,1.179,3.848,2.461Zm.418,2.245,1.5,1.282,3.558.538a7.991,7.991,0,0,0,.213-2.248c0-.273-2.056-.992-2.06-1.282a33.3,33.3,0,0,1,.641-5.45l.332-2.464c.105-.963,1.619-8.974,1.619-8.974l-4.59-.619-.952,9.734a15.131,15.131,0,0,0-4.277-1.923c-1.605-.214-5.561,3.1-6.309,4.172s-.214,4.491.429,5.991,3.563,3.026,5.347,2.672a29.215,29.215,0,0,0,4.491-1.389Z" transform="translate(-218.882 -375.598)" fill="#fff"/>
</svg>
