<svg xmlns="http://www.w3.org/2000/svg" width="66.332" height="65.126" viewBox="0 0 66.332 65.126">
  <g id="그룹_7692" data-name="그룹 7692" transform="translate(-15991.121 15966.7)">
    <g id="그룹_7213" data-name="그룹 7213" transform="translate(15991.121 -15966.7)">
      <rect id="사각형_4190" data-name="사각형 4190" width="66.332" height="65.126" fill="#034ea1"/>
      <path id="패스_51833" data-name="패스 51833" d="M398.661,311.957h.767c.8,0,1.31-.442,1.31-1.1,0-.748-.543-1.077-1.336-1.077a3.272,3.272,0,0,0-.741.067Zm-.748-2.639a7.789,7.789,0,0,1,1.438-.128,2.39,2.39,0,0,1,1.688.482,1.448,1.448,0,0,1,.456,1.1,1.528,1.528,0,0,1-1.092,1.472v.028a1.479,1.479,0,0,1,.852,1.17,10.668,10.668,0,0,0,.439,1.593h-.774a7.006,7.006,0,0,1-.378-1.384c-.174-.8-.493-1.1-1.173-1.13h-.707v2.514h-.748Z" transform="translate(-390.041 -275.246)" fill="#fff"/>
      <path id="패스_51834" data-name="패스 51834" d="M405.509,311.876a1.082,1.082,0,0,0-1.042-1.232,1.247,1.247,0,0,0-1.161,1.232Zm-2.214.543a1.33,1.33,0,0,0,1.422,1.445,2.854,2.854,0,0,0,1.153-.206l.14.534a3.4,3.4,0,0,1-1.4.266,1.942,1.942,0,0,1-2.049-2.1,2.032,2.032,0,0,1,1.963-2.255,1.758,1.758,0,0,1,1.714,1.961,2.157,2.157,0,0,1-.024.365Z" transform="translate(-386.655 -274.582)" fill="#fff"/>
      <path id="패스_51835" data-name="패스 51835" d="M409.715,312.245c-.826-.021-1.766.128-1.766.938a.664.664,0,0,0,.707.722,1.054,1.054,0,0,0,1.025-.7l.035-.238Zm.741,1.127a6.969,6.969,0,0,0,.06,1h-.681l-.069-.525h-.026a1.542,1.542,0,0,1-1.275.62,1.189,1.189,0,0,1-1.275-1.2c0-1.006.9-1.555,2.507-1.548v-.085a.856.856,0,0,0-.949-.964,2,2,0,0,0-1.092.309l-.173-.51a2.69,2.69,0,0,1,1.379-.361c1.284,0,1.593.871,1.593,1.706Z" transform="translate(-383.287 -274.579)" fill="#fff"/>
      <path id="패스_51836" data-name="패스 51836" d="M414.9,312.681l-.035-.328a1.119,1.119,0,0,0-1.094-.871c-.785,0-1.249.693-1.249,1.6,0,.85.42,1.548,1.232,1.548a1.148,1.148,0,0,0,1.111-.9l.035-.327Zm.759-3.646v5.039c0,.372.009.793.035,1.077h-.683l-.035-.722h-.017a1.528,1.528,0,0,1-1.412.817,1.907,1.907,0,0,1-1.792-2.117,2,2,0,0,1,1.868-2.241,1.385,1.385,0,0,1,1.258.629h.019v-2.482Z" transform="translate(-379.965 -275.359)" fill="#fff"/>
      <path id="패스_51837" data-name="패스 51837" d="M416.93,310.9h.759v4.168h-.759Zm.361-.766a.487.487,0,0,1,.017-.975.466.466,0,0,1,.482.482.477.477,0,0,1-.491.492Z" transform="translate(-376.276 -275.272)" fill="#fff"/>
      <path id="패스_51838" data-name="패스 51838" d="M420.208,311.332c0-.442-.01-.786-.036-1.13h.672l.043.679h.016a1.552,1.552,0,0,1,1.381-.774c.579,0,1.472.346,1.472,1.777v2.487H423v-2.4c0-.672-.252-1.242-.968-1.242a1.1,1.1,0,0,0-1.016.776l-.054.354v2.514h-.755Z" transform="translate(-373.834 -274.579)" fill="#fff"/>
      <path id="패스_51839" data-name="패스 51839" d="M428.038,311.839,428,311.5a1.077,1.077,0,0,0-1.059-.807c-.724,0-1.239.612-1.239,1.583,0,.81.42,1.495,1.23,1.495a1.089,1.089,0,0,0,1.052-.779l.059-.4Zm.759,1.922a2.443,2.443,0,0,1-.595,1.91,2.287,2.287,0,0,1-1.526.5,2.661,2.661,0,0,1-1.384-.344l.188-.584a2.274,2.274,0,0,0,1.224.335c.776,0,1.343-.406,1.343-1.462v-.46h-.016a1.48,1.48,0,0,1-1.327.7,1.866,1.866,0,0,1-1.776-2.039,2,2,0,0,1,1.887-2.208,1.386,1.386,0,0,1,1.3.717h.017l.026-.622h.67c-.024.29-.033.627-.033,1.137Z" transform="translate(-370.372 -274.579)" fill="#fff"/>
      <path id="패스_51840" data-name="패스 51840" d="M453.02,316.481a85.363,85.363,0,0,0-12.047-1.175,106.332,106.332,0,0,0-16.427,1.289c-.166.021-.318.038-.479.057v-4.165a4.832,4.832,0,0,0,2.433-.142,14.275,14.275,0,0,0,3.154-1.4,22.8,22.8,0,0,0,3.18-1.616,32.624,32.624,0,0,0,2.678-2.343,31.642,31.642,0,0,0,2.347-2.54,25.594,25.594,0,0,0,2.153-2.824,13.531,13.531,0,0,0,1.353-3.256c.486-1.483.48-2.66-.188-3.363a3.316,3.316,0,0,0-3.3-.527,15.34,15.34,0,0,0-3.1,1.6A23.054,23.054,0,0,0,431.6,297.7a33.153,33.153,0,0,0-2.67,2.359,30.219,30.219,0,0,0-2.283,2.594,26.186,26.186,0,0,0-2.186,2.789,9.559,9.559,0,0,0-.712,1.391c-.147-.423-.315-.862-.477-1.31a16.541,16.541,0,0,0-1.339-3.124,22.555,22.555,0,0,0-2-2.955,22.235,22.235,0,0,0-2.468-2.342,16.607,16.607,0,0,0-2.832-1.877,9.858,9.858,0,0,0-3.029-1.279,3.328,3.328,0,0,0-2.831.515,3.279,3.279,0,0,0-.961,2.6,8.964,8.964,0,0,0,.515,3.188,17.973,17.973,0,0,0,1.588,3.043,22.206,22.206,0,0,0,2.006,2.915,21.791,21.791,0,0,0,2.456,2.309,19.418,19.418,0,0,0,2.639,2.248,9.662,9.662,0,0,0,3.129,1.166,4.283,4.283,0,0,0,1.768-.029v4.982a32.921,32.921,0,0,1-8.481-.418c-1.082-.159-2.307-.333-3.752-.494a76.725,76.725,0,0,0-13.109-.043.85.85,0,1,0,.149,1.694,76.98,76.98,0,0,1,12.774.041c1.417.159,2.627.33,3.7.484a39.3,39.3,0,0,0,6.043.549,42.7,42.7,0,0,0,5.54-.41,104.361,104.361,0,0,1,16.194-1.275,84.718,84.718,0,0,1,11.767,1.151.851.851,0,0,0,.294-1.676" transform="translate(-391.59 -286.416)" fill="#f6921e"/>
      <path id="패스_51841" data-name="패스 51841" d="M402.089,320.326a1.794,1.794,0,0,0,1.336-.5,1.562,1.562,0,0,0,.435-1.1,1.477,1.477,0,0,0-.451-1.106,1.82,1.82,0,0,0-1.338-.5h-1.22l-.3.085a.533.533,0,0,0-.083.335v2.406a.37.37,0,0,0,.133.335.818.818,0,0,0,.335.05Zm4.612,4.844a1.061,1.061,0,0,1,.216,1.018,1.312,1.312,0,0,1-.619.8,1.579,1.579,0,0,1-1.068.216,1.5,1.5,0,0,1-1.037-.634l-2.656-3.626-.183-.185-.218-.05h-.285a.45.45,0,0,0-.316.085.545.545,0,0,0-.067.32v3.059a1.061,1.061,0,0,1-.436.883,1.658,1.658,0,0,1-1.9,0,1.078,1.078,0,0,1-.418-.883v-9.859a1.589,1.589,0,0,1,.436-1.253,1.7,1.7,0,0,1,1.186-.351h2.592a5.853,5.853,0,0,1,3.073.766,3.434,3.434,0,0,1,1.688,3.159,4.052,4.052,0,0,1-.486,2.089,4.363,4.363,0,0,1-1.3,1.338l-.233.233a.473.473,0,0,0,.133.415Z" transform="translate(-390.189 -271.225)" fill="#fff"/>
      <path id="패스_51842" data-name="패스 51842" d="M410.1,322.759a1.68,1.68,0,0,0-.569-1.324,2.138,2.138,0,0,0-1.486-.515,2.076,2.076,0,0,0-1.438.515,1.718,1.718,0,0,0-.569,1.324,1.95,1.95,0,0,0,.569,1.4,2,2,0,0,0,1.471.6,2.024,2.024,0,0,0,2.022-2m2.64.017a4.666,4.666,0,0,1-1.27,3.321,4.871,4.871,0,0,1-6.918,0,4.737,4.737,0,0,1-1.236-3.321,4.387,4.387,0,0,1,1.37-3.244,4.5,4.5,0,0,1,3.275-1.338,4.731,4.731,0,0,1,3.342,1.338,4.337,4.337,0,0,1,1.436,3.244" transform="translate(-386.11 -268.69)" fill="#f6921e"/>
      <path id="패스_51843" data-name="패스 51843" d="M415.126,320.037a1.685,1.685,0,0,0-.569-1.322,2.123,2.123,0,0,0-1.488-.517,2.046,2.046,0,0,0-1.436.517,1.708,1.708,0,0,0-.569,1.322,1.933,1.933,0,0,0,.569,1.4,2,2,0,0,0,1.469.6,2.021,2.021,0,0,0,2.024-2m2.639.014a4.67,4.67,0,0,1-1.268,3.325,4.879,4.879,0,0,1-6.918,0,4.736,4.736,0,0,1-1.237-3.325,4.4,4.4,0,0,1,1.37-3.24,4.486,4.486,0,0,1,3.275-1.336,4.712,4.712,0,0,1,3.342,1.336,4.33,4.33,0,0,1,1.436,3.24" transform="translate(-382.448 -270.67)" fill="#f26f21"/>
      <path id="패스_51844" data-name="패스 51844" d="M423.848,324.073a1.24,1.24,0,0,1-.214.949,1.265,1.265,0,0,1-.842.55,1.408,1.408,0,0,1-1.132-.28l-3.714-2.525-.105-.014-.047.1.51,2.475a1.1,1.1,0,0,1-.223.982,1.445,1.445,0,0,1-.84.482,1.414,1.414,0,0,1-.961-.107,1.075,1.075,0,0,1-.588-.783L413.565,315.6a1.117,1.117,0,0,1,.223-.983,1.548,1.548,0,0,1,1.8-.372,1.1,1.1,0,0,1,.594.814l1.013,4.894.076.035.1-.071,2.06-2.921a1.412,1.412,0,0,1,.926-.634,1.306,1.306,0,0,1,.964.209,1.215,1.215,0,0,1,.565.757,1.331,1.331,0,0,1-.251,1.09l-1.517,2.157-.116.351a.592.592,0,0,0,.244.273l2.924,1.92a1.427,1.427,0,0,1,.674.952" transform="translate(-378.666 -271.672)" fill="#fff"/>
      <path id="패스_51845" data-name="패스 51845" d="M421.979,327.269a1.689,1.689,0,0,1-1.9-.24,1.079,1.079,0,0,1-.306-.931l.885-7.03a1.108,1.108,0,0,1,.525-.857,1.5,1.5,0,0,1,1-.162,1.552,1.552,0,0,1,.911.418,1.084,1.084,0,0,1,.318.949l-.885,7.03a1.06,1.06,0,0,1-.541.824m1.312-10.177a1.328,1.328,0,0,1-1.066.32,1.4,1.4,0,0,1-1-.579,1.483,1.483,0,0,1-.27-1.08,1.347,1.347,0,0,1,.558-.952,1.376,1.376,0,0,1,1.08-.287,1.419,1.419,0,0,1,.959.539,1.367,1.367,0,0,1,.3,1.068,1.419,1.419,0,0,1-.562.971" transform="translate(-374.135 -271.381)" fill="#fff"/>
      <path id="패스_51846" data-name="패스 51846" d="M428.031,319.308a1.952,1.952,0,0,0-1.281-.28,2.014,2.014,0,0,0-1.538.745c-.171.18-.233.321-.185.429s.128.135.282.118l2.737-.34.264-.181c.048-.142-.043-.3-.28-.489m3.232.795a1.9,1.9,0,0,1-.171,1.22,1.108,1.108,0,0,1-.905.567l-4.28.525c-.154.021-.23.085-.228.2s.1.23.309.313a2.808,2.808,0,0,0,1.3.145,3,3,0,0,0,1.3-.347,1.142,1.142,0,0,1,.933-.081,1.263,1.263,0,0,1,.641.563,1.114,1.114,0,0,1,.123.861,1.511,1.511,0,0,1-.6.881,5.942,5.942,0,0,1-2.888.726,4.509,4.509,0,0,1-2.665-.715A4.6,4.6,0,0,1,422.168,322a4.447,4.447,0,0,1,.6-3.337,4.13,4.13,0,0,1,1.42-1.438,5.088,5.088,0,0,1,1.8-.7,5.633,5.633,0,0,1,1.833-.024,4.133,4.133,0,0,1,1.585.562,4.009,4.009,0,0,1,1.455,1.69,4.931,4.931,0,0,1,.4,1.346" transform="translate(-372.452 -269.967)" fill="#fff"/>
    </g>
  </g>
</svg>
