<svg id="그룹_7220" data-name="그룹 7220" xmlns="http://www.w3.org/2000/svg" xmlns:xlink="http://www.w3.org/1999/xlink" width="102.364" height="57.688" viewBox="0 0 102.364 57.688">
  <defs>
    <clipPath id="clip-path">
      <path id="패스_51917" data-name="패스 51917" d="M481.192,380.438l2.29,1.963V414.64l-9.738-4.094-15.957-2.862,1.149,1.968-3.6,22.087,13.338,5.566h10.31l6.874-4.915h54.414l6.956,5.734c10.635,0,10.472-9.738,10.472-9.738V409.568l-5.4-7.45H529.876c.494-3.188-1.389-4.172-2.862-4.172l-2.21-.081-.078-3.843h-3.933l-3.517-8.76-4.745-.816-3.684-.081-2.288.57-3.435-4.5Z" transform="translate(-455.335 -380.438)" fill="none"/>
    </clipPath>
    <linearGradient id="linear-gradient" x1="-7.658" y1="6.426" x2="-7.641" y2="6.426" gradientUnits="objectBoundingBox">
      <stop offset="0" stop-color="#e21f26"/>
      <stop offset="0.055" stop-color="#e21f26"/>
      <stop offset="1" stop-color="#f48120"/>
    </linearGradient>
  </defs>
  <path id="패스_51912" data-name="패스 51912" d="M484.394,402.077s-3.619-4.647-8.613-1.272-1.021,8.846-1.021,8.846l-9.365,7.358a17.29,17.29,0,0,1-3.817-13.184,17.811,17.811,0,0,1,6.664-12A17.976,17.976,0,0,1,493.7,394.76Z" transform="translate(-450.881 -375.06)" fill="#ec1c24"/>
  <path id="패스_51913" data-name="패스 51913" d="M473.715,408.588s-3.835-5.347,1.006-8.682,8.71,1.047,8.71,1.047l7.225-5.684a15.49,15.49,0,0,0-21.942-2.525,15.365,15.365,0,0,0-5.742,10.337,14.9,14.9,0,0,0,3.292,11.366Z" transform="translate(-449.854 -373.99)" fill="#fbae17"/>
  <path id="패스_51914" data-name="패스 51914" d="M483.945,398.68s-5.043-4.1-10.351.064-2.589,10.109-2.589,10.109l-3.838,3.014a12.509,12.509,0,0,1-2.763-9.543,12.9,12.9,0,0,1,4.821-8.677,13.005,13.005,0,0,1,18.422,2.119Z" transform="translate(-448.798 -372.928)" fill="#a5cd39"/>
  <path id="패스_51915" data-name="패스 51915" d="M471.66,406.407s-2.8-5.39,1.256-8.587,8.378,1.013,8.378,1.013l3.2-2.511a10.464,10.464,0,0,0-14.818-1.707,10.371,10.371,0,0,0-3.883,6.987,10.063,10.063,0,0,0,2.226,7.671Z" transform="translate(-447.776 -371.812)" fill="#4dbeed"/>
  <path id="패스_51916" data-name="패스 51916" d="M470.45,401.164a5.05,5.05,0,0,1,1.887-3.4,5.025,5.025,0,0,1,6.892.527l1.858-1.462a7.617,7.617,0,0,0-10.778-1.239,7.584,7.584,0,0,0-2.825,5.086,7.347,7.347,0,0,0,1.624,5.577l2.195-1.728a4.888,4.888,0,0,1-.852-3.361" transform="translate(-446.526 -370.639)" fill="#6850a0"/>
  <g id="그룹_7219" data-name="그룹 7219">
    <g id="그룹_7218" data-name="그룹 7218" clip-path="url(#clip-path)">
      <rect id="사각형_4193" data-name="사각형 4193" width="102.526" height="57.689" transform="translate(0 -0.001)" fill="url(#linear-gradient)"/>
    </g>
  </g>
  <path id="패스_51918" data-name="패스 51918" d="M490.108,397.157h-4.637v-8.181q0-.907.093-3.223-.371,1.436-1,3.223l-2.829,8.181h-2.062l-2.9-8.181q-.464-1.322-1-3.247.093,1.69.093,3.247v8.181h-3.826V380.93h5.774l3.406,9.945,3.294-9.945h5.585Z" transform="translate(-443.165 -380.08)" fill="#fff"/>
  <path id="패스_51919" data-name="패스 51919" d="M497.811,383.891l-4.626,10.536a9.527,9.527,0,0,1-1.825,3.059,3.828,3.828,0,0,1-1.419.793c-1.441.454-8.264.216-9.233.216h-.931v-2.461h.636c.94,0,8.03.574,9.2-1.009a7.793,7.793,0,0,0,1.013-2.323l-3.553-8.751,3.928-.537,1.726,5.877,2.024-5.877Z" transform="translate(-437.539 -378.271)" fill="#fff"/>
  <path id="패스_51920" data-name="패스 51920" d="M478.667,395.6a1.482,1.482,0,0,0-.6-1.358,3.1,3.1,0,0,0-1.538-.273h-.707v3.439h.669a2.448,2.448,0,0,0,1.685-.458,1.776,1.776,0,0,0,.487-1.35m4.256,8.616-3.994.415-2.122-5.177h-.982v4.961h-3.784v-12.67h4.927a20.021,20.021,0,0,1,2.008.071,4.489,4.489,0,0,1,1.866.652,3.274,3.274,0,0,1,1.41,2.9,3.773,3.773,0,0,1-2.335,3.492Z" transform="translate(-443.171 -372.205)" fill="#fff"/>
  <path id="패스_51921" data-name="패스 51921" d="M484.217,397.37v-.344c0-1.2-.416-1.809-1.248-1.809q-1.27,0-1.27,2.153Zm3.06.726c0,.337-.007.6-.019.8H481.7a2.122,2.122,0,0,0,.627,1.6,2.311,2.311,0,0,0,1.619.55,5.431,5.431,0,0,0,2.354-.634l.959,1.813a9.508,9.508,0,0,1-4.054.975,5.259,5.259,0,0,1-3.53-1.194,4.678,4.678,0,0,1-1.754-3.731,4.233,4.233,0,0,1,1.592-3.439,5.337,5.337,0,0,1,3.475-1.12,3.929,3.929,0,0,1,3.494,1.593,4.8,4.8,0,0,1,.8,2.787" transform="translate(-438.891 -370.771)" fill="#fff"/>
  <path id="패스_51922" data-name="패스 51922" d="M489.045,399.145v-.812c-.145.033-.4.1-.76.2q-1.612.43-1.612,1.445a1.052,1.052,0,0,0,.29.736.861.861,0,0,0,.652.316,1.35,1.35,0,0,0,.715-.219,1.292,1.292,0,0,0,.517-.577,2.72,2.72,0,0,0,.2-1.087m3.819,3.838h-3.8a3.693,3.693,0,0,1-.126-1,4.033,4.033,0,0,1-2.824,1.211,2.609,2.609,0,0,1-1.9-.811,2.645,2.645,0,0,1-.817-1.934,3.078,3.078,0,0,1,1.284-2.494,7.2,7.2,0,0,1,2.9-1.134l1.464-.311a1.708,1.708,0,0,0-1.607-.9,3.561,3.561,0,0,0-2.236.957l-1.009-1.609a7.46,7.46,0,0,1,4.146-1.249,4.21,4.21,0,0,1,3.565,1.395,5.039,5.039,0,0,1,.634,2.933v2.1a9.777,9.777,0,0,0,.327,2.841" transform="translate(-434.905 -370.771)" fill="#fff"/>
  <path id="패스_51923" data-name="패스 51923" d="M495.936,401.931q0-2.815-1.618-2.813a1.217,1.217,0,0,0-1.1.748,5.422,5.422,0,0,0,.038,4.175,1.3,1.3,0,0,0,1.147.817,1.258,1.258,0,0,0,1.111-.8,4.6,4.6,0,0,0,.418-2.131m3.512,4.553h-3.512v-1.211a5.025,5.025,0,0,1-1.393,1.12,3.383,3.383,0,0,1-1.5.308,3.564,3.564,0,0,1-3.005-1.465,5.312,5.312,0,0,1-1-3.294,4.975,4.975,0,0,1,1.168-3.385,3.741,3.741,0,0,1,2.939-1.339,3.23,3.23,0,0,1,2.789,1.427v-9.738h3.512Z" transform="translate(-430.795 -374.272)" fill="#fff"/>
  <path id="패스_51924" data-name="패스 51924" d="M499.488,404.8H495.9v-9.048h3.584Zm.107-11.711a1.868,1.868,0,0,1-.534,1.36,1.787,1.787,0,0,1-1.329.539,1.89,1.89,0,0,1-1.358-.532,1.717,1.717,0,0,1-.56-1.293,1.93,1.93,0,0,1,.532-1.424,1.9,1.9,0,0,1,1.4-.531,1.764,1.764,0,0,1,1.322.539,1.859,1.859,0,0,1,.524,1.341" transform="translate(-425.862 -372.593)" fill="#fff"/>
  <path id="패스_51925" data-name="패스 51925" d="M508.5,402.983h-3.584v-5.359c0-1.071-.4-1.611-1.21-1.611q-1.452,0-1.452,1.884v5.086H498.67v-9.052h3.584v1.322a3.741,3.741,0,0,1,3.052-1.538,2.864,2.864,0,0,1,2.85,1.538,6.193,6.193,0,0,1,.344,2.461Z" transform="translate(-423.783 -370.771)" fill="#fff"/>
  <path id="패스_51926" data-name="패스 51926" d="M511.644,398.429q0-2.815-1.495-2.813-1.387,0-1.384,2.813a4.706,4.706,0,0,0,.41,2.113,1.219,1.219,0,0,0,1.065.814,1.16,1.16,0,0,0,1.021-.8,4.952,4.952,0,0,0,.384-2.131m3.6,2.018c0,1.509-.079,18.389-.235,19.026q-.941,3.839-5.2,3.838a11.7,11.7,0,0,1-4.09-.793l.525-2.12a5.781,5.781,0,0,0,2.787.76,2.46,2.46,0,0,0,2.279-1.087,3.288,3.288,0,0,0,.328-1.682V401.771a5.369,5.369,0,0,1-1.35,1.111,3.056,3.056,0,0,1-1.44.316,3.421,3.421,0,0,1-2.936-1.484,5.576,5.576,0,0,1-.938-3.275,5.042,5.042,0,0,1,1.142-3.375,3.587,3.587,0,0,1,2.86-1.35,3.032,3.032,0,0,1,2.661,1.431v-1.211h3.6Z" transform="translate(-419.188 -370.771)" fill="#fff"/>
  <path id="패스_51927" data-name="패스 51927" d="M469.853,405.486a2.57,2.57,0,0,0-.676-2.49,5.347,5.347,0,0,0-2.578-.868l-1.217-.187-.893,5.921,1.153.176a4.257,4.257,0,0,0,3.021-.356,3.087,3.087,0,0,0,1.191-2.2m5.082,15.942-6.982-.325-2.309-9.465-1.69-.252-1.284,8.538-6.515-.985,3.294-21.814,8.478,1.282a32.618,32.618,0,0,1,3.437.648,7.675,7.675,0,0,1,3.043,1.6,5.685,5.685,0,0,1,1.675,5.357q-.6,3.953-4.929,5.4Z" transform="translate(-454.737 -368.288)" fill="#fff"/>
  <path id="패스_51928" data-name="패스 51928" d="M473.473,408.5V407.6c-.161.04-.437.111-.835.216-1.177.32-1.764.847-1.764,1.59a1.157,1.157,0,0,0,.316.8.95.95,0,0,0,.714.349,1.479,1.479,0,0,0,.785-.24,1.4,1.4,0,0,0,.567-.634,2.946,2.946,0,0,0,.218-1.189m4.187,4.206h-4.168a4.093,4.093,0,0,1-.138-1.094,4.416,4.416,0,0,1-3.1,1.331,3.049,3.049,0,0,1-2.977-3.009,3.352,3.352,0,0,1,1.4-2.73,7.818,7.818,0,0,1,3.183-1.248l1.6-.339a1.878,1.878,0,0,0-1.759-.989,3.89,3.89,0,0,0-2.452,1.052l-1.106-1.768a8.18,8.18,0,0,1,4.543-1.367,4.627,4.627,0,0,1,3.911,1.526,5.522,5.522,0,0,1,.693,3.216v2.3a10.689,10.689,0,0,0,.358,3.116" transform="translate(-446.637 -364.343)" fill="#fff"/>
  <path id="패스_51929" data-name="패스 51929" d="M478.23,414.7H474.3v-9.919h3.928Zm.119-12.84a2.032,2.032,0,0,1-.586,1.488,1.953,1.953,0,0,1-1.458.594,2.076,2.076,0,0,1-1.486-.584,1.884,1.884,0,0,1-.617-1.417,2.006,2.006,0,0,1,2.124-2.143,1.93,1.93,0,0,1,1.448.594,2.026,2.026,0,0,1,.575,1.467" transform="translate(-441.598 -366.341)" fill="#fff"/>
  <path id="패스_51930" data-name="패스 51930" d="M488.552,412.7h-3.931v-5.874c0-1.177-.442-1.768-1.325-1.768q-1.592,0-1.59,2.065V412.7h-3.931v-9.919h3.931v1.445a4.094,4.094,0,0,1,3.342-1.685,3.135,3.135,0,0,1,3.126,1.685,6.776,6.776,0,0,1,.378,2.7Z" transform="translate(-438.997 -364.343)" fill="#fff"/>
  <path id="패스_51931" data-name="패스 51931" d="M492.315,409.509a4.609,4.609,0,0,0-.448-2.217,1.352,1.352,0,0,0-1.22-.811,1.414,1.414,0,0,0-1.277.83,4.652,4.652,0,0,0-.468,2.276,5.018,5.018,0,0,0,.446,2.305,1.335,1.335,0,0,0,1.182.861c.648,0,1.13-.408,1.448-1.229a5.589,5.589,0,0,0,.337-2.015m4.146-.131a5.693,5.693,0,0,1-1.35,3.85,4.215,4.215,0,0,1-3.332,1.567,3.025,3.025,0,0,1-1.469-.335,5.71,5.71,0,0,1-1.408-1.232v1.331h-3.849V399.994H488.9v5.971a4.874,4.874,0,0,1,1.5-1.218,4.324,4.324,0,0,1,4.863,1.03,5.279,5.279,0,0,1,1.2,3.6" transform="translate(-433.697 -366.199)" fill="#fff"/>
  <path id="패스_51932" data-name="패스 51932" d="M499.589,407.722q0-3.411-1.666-3.411a1.351,1.351,0,0,0-1.2.924,5.721,5.721,0,0,0-.446,2.466,6,6,0,0,0,.446,2.532c.3.627.7.942,1.2.942a1.354,1.354,0,0,0,1.23-.911,6.034,6.034,0,0,0,.435-2.542m4.051-.078a4.974,4.974,0,0,1-1.609,3.8,6.362,6.362,0,0,1-8.186.01,4.964,4.964,0,0,1-1.6-3.793,4.707,4.707,0,0,1,1.619-3.679A5.984,5.984,0,0,1,498,402.541,5.764,5.764,0,0,1,502.031,404a4.714,4.714,0,0,1,1.609,3.641" transform="translate(-428.459 -364.345)" fill="#fff"/>
  <path id="패스_51933" data-name="패스 51933" d="M515.993,402.942l-4.086,9.744h-2.759l-2.025-5.478-1.985,5.478H502.4l-3.554-9.565,3.89-.557,1.647,5.876,2.064-5.677h2.58l1.946,5.677,1.885-5.876Z" transform="translate(-423.654 -364.328)" fill="#fff"/>
</svg>
