<svg id="그룹_7214" data-name="그룹 7214" xmlns="http://www.w3.org/2000/svg" width="87.455" height="56.53" viewBox="0 0 87.455 56.53">
  <path id="패스_51847" data-name="패스 51847" d="M555.163,294.927l.957,3.323.06.3-.06.118c-.119,0-.239-.149-.389-.328-1.317-1.975-4.4-2.665-6.644-2.665-1.047,0-1.8.09-1.8,1.227v11.314c0,3.743.389,5.151,1.436,5.509.449.149.748.27.748.328,0,.09-.119.121-.328.121s-.928-.092-3.024-.092c-2.364,0-3.171.092-3.472.092-.238,0-.271-.092-.271-.18,0-.149.332-.149.75-.238,1.2-.3,1.586-2.965,1.586-6.076V296.9c0-1.137-.75-1.227-1.8-1.227-2.245,0-5.328.69-6.645,2.665-.15.18-.27.328-.389.328l-.061-.118.061-.3.957-3.323Z" transform="translate(-528.58 -294.808)" fill="#009dda"/>
  <path id="패스_51848" data-name="패스 51848" d="M548.948,297.882c0-.959-.061-2.243-1.108-2.634l-.209-.211c0-.18.09-.18.477-.18.36,0,1.018.119,2.127.119.686,0,1.4-.119,2.1-.119.119,0,.508,0,.508.149a.232.232,0,0,1-.209.242c-1.018.3-1.108,1.465-1.108,2.634v10.536c0,2.722,0,4.851,1.345,5.447.242.09.332.18.332.268,0,.06-.15.092-.332.092-.268,0-1.2-.092-2.632-.092-1.676,0-2.485.092-2.755.092-.24,0-.358-.031-.358-.119,0-.06.209-.15.416-.3,1.319-.836,1.408-3.47,1.408-5.387Z" transform="translate(-520.356 -294.858)" fill="#009dda"/>
  <path id="패스_51849" data-name="패스 51849" d="M563.6,310.394l7.662-15.416h3.413c.448,0,.508.029.508.15-.029.15-.238.15-.448.27-.81.449-.9,1.166-.9,2.485v9.727a16.036,16.036,0,0,0,.719,5.326c.359.84,1.137.84,1.137,1.108,0,.09-.18.182-.389.182-.358,0-1.286-.092-2.663-.092-1.588,0-2.784.092-2.964.092s-.209-.121-.209-.182c0-.088.6-.181.987-.6.541-.537.809-1.436.809-3.741V297.013H571.2L563.119,313.6c-.24.448-.449.778-.658.778-.27,0-.389-.449-.6-.9l-7.783-16.253h-.059v12.123c0,3.054.688,3.681,1.616,4.37.24.18.359.27.359.389,0,.09-.119.121-.569.121-.3,0-.809-.092-1.887-.092-1.465,0-2.036.092-2.333.092-.238,0-.33-.062-.33-.152s.3-.237.508-.389c1.348-1.108,1.678-3.021,1.678-5.207V298.451c0-1.977-.242-2.6-1.2-3.114-.209-.119-.387-.18-.387-.33l.477-.149c.658,0,1.32.119,1.977.119.448,0,.928-.119,1.376-.119a1.119,1.119,0,0,1,.539.092c.119.088.811,1.674.959,1.913Z" transform="translate(-517.623 -294.858)" fill="#009dda"/>
  <path id="패스_51850" data-name="패스 51850" d="M570.173,308.067a33.943,33.943,0,0,0,.209,3.473c.18,1.647,1.018,1.8,4.07,1.8,2.907,0,6.168-.149,8.772-1.586a5.377,5.377,0,0,0,1.8-1.616l.268-.15.15.15a.884.884,0,0,1-.061.359l-1.2,3.591h-18.2c-.3,0-.42,0-.42-.09,0-.119.149-.27.537-.359,1.407-.391,1.5-3.8,1.5-5.207V297.982c0-1.139-.059-2.155-1.137-2.7l-.211-.178c0-.18.358-.18.631-.18H582.8l.539,1.737c.24.748.57,1.944.57,2.065l-.182.119c-.09,0-.209-.15-.3-.3-1.524-2.215-4.16-2.874-7.811-2.874h-5.447v7.752h2.9c4.31,0,6.133-.149,6.854-.84a3.528,3.528,0,0,0,.838-1.255l.209-.15c.15,0,.15.18.15.479v4.4c0,.18,0,.479-.119.479l-.18-.147a2.734,2.734,0,0,0-1.016-1.258c-1.438-.961-4.968-.961-6.736-.961h-2.9Z" transform="translate(-506.929 -294.807)" fill="#009dda"/>
  <path id="패스_51851" data-name="패스 51851" d="M557.57,310.968c-.65.142-.835-.308-.923-.719l-.437-2.043,1.31-.28-.287-1.343-1.31.28-.318-1.486-1.935.861.226,1.058-.857.183.287,1.343.857-.181.624,2.912a1.359,1.359,0,0,0,.767,1.087,2.4,2.4,0,0,0,1.4.007,6.071,6.071,0,0,0,1.381-.468l-.093-1.483a2.3,2.3,0,0,1-.689.273" transform="translate(-516.049 -287.198)" fill="#009dda"/>
  <path id="패스_51852" data-name="패스 51852" d="M558.536,312.338a6.143,6.143,0,0,1-1.457.506c-1.11.235-2,.111-2.269-1.165l-.607-2.829-.857.185-.323-1.517.859-.183-.223-1.042,2.1-.935.322,1.507,1.31-.28.325,1.517-1.31.28.42,1.958c.106.5.306.759.818.652a2.475,2.475,0,0,0,.788-.342Zm-.154-1.763a2.3,2.3,0,0,1-.757.327c-.413.09-.6-.071-.714-.581l-.4-1.872,1.31-.28-.361-1.692-1.31.28-.323-1.526-2.271,1.007.218,1.025-.857.187.363,1.69.857-.183.586,2.739a1.516,1.516,0,0,0,.874,1.211,1.735,1.735,0,0,0,.679.121,3.841,3.841,0,0,0,.823-.1,6.165,6.165,0,0,0,1.478-.511l.054-.028-.112-1.756-.06-.1Z" transform="translate(-516.138 -287.305)" fill="#fff"/>
  <path id="패스_51853" data-name="패스 51853" d="M557.015,312.7a2.4,2.4,0,0,1-1.4-.01,1.36,1.36,0,0,1-.769-1.085l-.622-2.914-.857.183-.287-1.344.857-.187-.226-1.056,1.934-.861.32,1.484,1.308-.278.287,1.344-1.306.282.436,2.041c.088.41.273.861.923.719a2.32,2.32,0,0,0,.689-.271l.093,1.481a6.175,6.175,0,0,1-1.383.472m.581-1.768c-.51.109-.71-.152-.816-.648l-.42-1.958,1.31-.28-.327-1.519-1.306.28-.323-1.505-2.1.935.223,1.039-.859.187.327,1.519.857-.187.6,2.827c.271,1.277,1.158,1.4,2.271,1.163a6.071,6.071,0,0,0,1.455-.5l-.107-1.687a2.426,2.426,0,0,1-.788.337" transform="translate(-516.094 -287.251)" fill="#fff"/>
  <path id="패스_51854" data-name="패스 51854" d="M560.544,309.41a1.231,1.231,0,0,1-.876.619l-.335.04a1.149,1.149,0,0,1-.726-.244,1.679,1.679,0,0,1-.563-1.018,1.7,1.7,0,0,1,.1-1.137,1.247,1.247,0,0,1,.885-.632,1.229,1.229,0,0,1,1.056.219,1.7,1.7,0,0,1,.555,1,1.724,1.724,0,0,1-.1,1.158m.62-3.62a3.456,3.456,0,0,0-1.469-.306,4.5,4.5,0,0,0-.976.109c-2.456.524-3.007,2.228-2.7,3.648.465,2.176,2.425,2.566,3.961,2.234s3.154-1.481,2.689-3.655a2.735,2.735,0,0,0-1.5-2.031" transform="translate(-513.936 -287.121)" fill="#009dda"/>
  <path id="패스_51855" data-name="패스 51855" d="M559.486,308.647a1.044,1.044,0,0,1-.757.529,1.075,1.075,0,0,1-.916-.168,1.543,1.543,0,0,1-.492-.918,1.473,1.473,0,0,1,.083-1.016,1.057,1.057,0,0,1,.76-.541l.284-.029a.979.979,0,0,1,.626.213,1.8,1.8,0,0,1,.413,1.93m-1.339-2.2a1.244,1.244,0,0,0-.918,1.661c.185.868.719,1.324,1.519,1.154s1.089-.8.9-1.671c-.175-.823-.717-1.315-1.5-1.144" transform="translate(-513.034 -286.443)" fill="#fff"/>
  <path id="패스_51856" data-name="패스 51856" d="M560.072,311.639c-1.724.368-3.608-.163-4.064-2.305s1.044-3.385,2.772-3.753,3.593.152,4.052,2.295-1.033,3.4-2.76,3.764m2.846-3.781a2.946,2.946,0,0,0-1.6-2.153,4.056,4.056,0,0,0-2.559-.214c-1.616.349-3.328,1.567-2.839,3.862a3.539,3.539,0,0,0,.408,1.068l.055-.033.009.136a3.1,3.1,0,0,0,2.7,1.31,4.886,4.886,0,0,0,1-.107c1.609-.344,3.318-1.566,2.825-3.869" transform="translate(-514.013 -287.196)" fill="#fff"/>
  <path id="패스_51857" data-name="패스 51857" d="M556.122,308.31l.062.106-.008-.138Z" transform="translate(-513.804 -285.087)" fill="#fff"/>
  <path id="패스_51858" data-name="패스 51858" d="M558.787,309.3c-.8.168-1.336-.289-1.521-1.154a1.245,1.245,0,0,1,.916-1.662c.786-.169,1.331.321,1.505,1.144.188.869-.114,1.5-.9,1.673m.436-2.687a1.351,1.351,0,0,0-1.941.415,1.685,1.685,0,0,0-.105,1.134,1.709,1.709,0,0,0,.565,1.02,1.155,1.155,0,0,0,.726.242l.339-.04a1.215,1.215,0,0,0,.874-.617,1.982,1.982,0,0,0-.458-2.153" transform="translate(-513.072 -286.481)" fill="#fff"/>
  <path id="패스_51859" data-name="패스 51859" d="M560.018,311.512c-1.536.33-3.5-.061-3.961-2.234-.3-1.421.247-3.124,2.7-3.651a4.721,4.721,0,0,1,.976-.105,3.436,3.436,0,0,1,1.469.308,2.733,2.733,0,0,1,1.5,2.025c.465,2.179-1.158,3.333-2.689,3.658m-1.277-5.971c-1.726.368-3.23,1.612-2.772,3.753s2.34,2.677,4.066,2.305,3.216-1.619,2.758-3.764-2.326-2.663-4.052-2.295" transform="translate(-513.976 -287.158)" fill="#fff"/>
  <path id="패스_51860" data-name="패스 51860" d="M556.348,309.886l-22.123-3.294-2.592,8.121,7.965,1.293L536.636,332l8.271,1.478,2.97-16.029,7.863,1.023Z" transform="translate(-531.634 -286.315)" fill="#009dda"/>
  <path id="패스_51861" data-name="패스 51861" d="M553.621,320.036l1.151-5.006,2.01,4.668Zm15.164,8.44c-1.386-2.812-2.753-5.44-4.073-7.986-2.19-4.208-4.253-8.181-6.294-12.712l-.157-.353-8.231.885-.095.351c-.518,1.882-1.006,3.684-1.476,5.43-1.529,5.663-2.976,11.017-4.934,17.065l-.192.6,7.384,1.077,1.749-6.048,6.579-.709,2.813,5.563,7.192-2.63Z" transform="translate(-523.115 -285.707)" fill="#009dda"/>
  <path id="패스_51862" data-name="패스 51862" d="M599.806,327.224l-8.5-8.615,4.149-10.429-7.8-.613-3.057,8.556-1.714-7.617-7.84,1.764,4.056,18.007a11.335,11.335,0,0,0-1.555.584l1.033-2.065-10.579-1.965,3.926-15.65-8.184-1.939-5.618,23.718,13.562,2.865c-1.8,2.649-2.181,5.44-.74,7.153a4.28,4.28,0,0,0,3.4,1.393,11.613,11.613,0,0,0,7.083-3.017,12.7,12.7,0,0,0,3.836-5.228,7.667,7.667,0,0,0,.335-1.263l2.634-.593L586.367,324l7.178,7.441Z" transform="translate(-512.352 -285.841)" fill="#009dda"/>
  <path id="패스_51863" data-name="패스 51863" d="M575.44,329.681c3.276-2.758,4.628-6.544,3.021-8.454s-5.571-1.229-8.85,1.531-4.631,6.544-3.021,8.459,5.571,1.225,8.85-1.536" transform="translate(-506.676 -276.449)" fill="#fff"/>
  <path id="패스_51864" data-name="패스 51864" d="M569.383,326.36l7.171-4.141-6.193,2.623-1.11-2.933Z" transform="translate(-504.245 -275.163)" fill="#009dda"/>
  <rect id="사각형_4191" data-name="사각형 4191" width="0.824" height="0.535" transform="matrix(0.653, -0.757, 0.757, 0.653, 70.19, 45.142)" fill="#009dda"/>
  <path id="패스_51865" data-name="패스 51865" d="M567.269,327.007l-.407-.348.535-.624.408.348Z" transform="translate(-505.984 -272.158)" fill="#009dda"/>
  <rect id="사각형_4192" data-name="사각형 4192" width="0.535" height="0.82" transform="matrix(0.739, -0.674, 0.674, 0.739, 63.006, 46.851)" fill="#009dda"/>
  <path id="패스_51866" data-name="패스 51866" d="M571.584,325.89l-.553-.611.4-.358.552.607Z" transform="translate(-502.949 -272.969)" fill="#009dda"/>
</svg>
