<svg id="그룹_7183" data-name="그룹 7183" xmlns="http://www.w3.org/2000/svg" width="64.61" height="79.894" viewBox="0 0 64.61 79.894">
  <path id="패스_44979" data-name="패스 44979" d="M463.384,400.319c.644,2.453-1.187,3.173-2.389,3.373a17.1,17.1,0,0,1-3.651-.194,6.321,6.321,0,0,1,.68-2.4c1.309-2.313,4.718-3.236,5.36-.783m1.141,5.981a5.662,5.662,0,0,1-.317,2.005c-.387,1.189-3.513,2.668-5.248,1.367-.907-.681-1.477-2.358-1.63-4.135,1.259.051,5,.087,6.917-1.147,2.959-1.9.559-7.155-3.089-7.023s-7.759,2.853-6.478,9.114,8.383,5.916,10.355,3.872-.51-4.053-.51-4.053" transform="translate(-424.6 -387.628)" fill="#0097ba"/>
  <path id="패스_44980" data-name="패스 44980" d="M449.318,405.1a1.186,1.186,0,0,0-1.479-.839c-.917.34-.384,1.28-.384,1.28.03-.526.342-.573.811-.4s.1,1.2-1.018,1.133c-1.5-.082-.354-4.991-.188-7.563a4.857,4.857,0,0,0-4.345-5.293,3.752,3.752,0,0,0-3.423,2.005c-.269-2.781-.566-5.356-.61-6.363s-.111-2.505.465-3.015a3.322,3.322,0,0,1,1.57-.681c.639-.124,1.7.34,1.633.821a.892.892,0,0,1-1.152.556c-.272-.217-.064-.881-.064-.881-.689.015-.913.835-.72,1.439s2.159.811,2.568.381a2.12,2.12,0,0,0-.584-2.982c-1.392-.866-4.172-1.083-5.29.927-.707,1.268-.608,2.885-.624,5.744-.018,3.074.616,7.279.762,8.979s.688,6.2-.79,6.113c-.558-.035-.745-.736-.235-1.253-1.18.259-1.556,2.8,1.219,2.467s2.414-5.509,2.122-9.248q-.028-.351-.058-.707a4.893,4.893,0,0,1,1.876-1.582c1.67-.453,3.715,1.071,3.267,5.337-.421,4.014-.03,6.467,2.771,6.158a1.951,1.951,0,0,0,1.9-2.538" transform="translate(-419.066 -383.781)" fill="#0097ba"/>
  <path id="패스_44981" data-name="패스 44981" d="M430.607,383.661a7.8,7.8,0,0,1-3.951,1.229c-2.05.211-6.262-.728-9.556-.529a5.8,5.8,0,0,0-4.66,3.207,16.57,16.57,0,0,1,3.267-1.032,13.9,13.9,0,0,1,4.679.365c.182,3.052-.36,9.8-.176,13.326.242,4.623-.109,7.789,2.786,7.311,2.274-.376,2.167-4.248,2.167-4.248s-.473,2.419-1.593,2.079c-1.789-.544-.216-13.193-.382-16.927-.021-.448-.06-.855-.114-1.23h.026c7.978.374,7.507-3.553,7.507-3.553" transform="translate(-412.441 -383.661)" fill="#0097ba"/>
  <path id="패스_44982" data-name="패스 44982" d="M467.987,440.857s-3.706.607-4.213-1.84c-.584-2.822-.163-4.869,1.716-5.695a5.218,5.218,0,0,1,3.593.212c-1.727,3.033-1.1,7.323-1.1,7.323m2.982,3.207c-.974-2.334-.4-5.873.148-8.626.482-2.44,1.221-3.717.588-4.523-1.454-1.849-2.892.109-2.892.109s1.664-.693.82,1.054a5.737,5.737,0,0,0-5.121-.328,6.2,6.2,0,0,0-3.218,7.682,5.76,5.76,0,0,0,6.954,3.238c1.029,3.147,2.036,4.162,1.948,6.188-.156,3.568-2.367,4.712-5.867,4.314-2.466-.281-4.455-5.115-1.376-6.163,2.232-.76,3.207,1.094,2.453,1.893-1.176,1.246-2.869-.652-2.869-.652-.166,1.465,1.142,2.877,3.74,1.953,2.473-.877,1.727-3.26.446-4.117-2.646-1.768-7.025-.379-7.975,2.314-.873,2.471,1.128,4.876,3.957,5.856,3.766,1.3,8.352.43,9.939-2.911,1.248-2.625-.615-4.733-1.675-7.283" transform="translate(-425.787 -397.111)" fill="#0097ba"/>
  <path id="패스_44983" data-name="패스 44983" d="M494.8,437.879a2.6,2.6,0,0,0,2.013-2.985c-.281-2.539-3.654-2.164-5.212-.075s-1.743,7.089-.265,8.656,4.655.6,5.183-.522a5.822,5.822,0,0,0,.574-1.94s2.093,2.389-.061,4.1-9.31.97-9.686-5.449,4.253-8.507,7.747-8.059,5.072,6.046,1.993,7.463-4.122-1.567-3.516-2.76c0,0,.237,1.567,1.231,1.567" transform="translate(-434.119 -397.525)" fill="#0097ba"/>
  <path id="패스_44984" data-name="패스 44984" d="M452.116,441.579c-.526.625-.551,1.038-1.652,1.648s-1.372.953-2.152.707a1.778,1.778,0,0,1,.17-3.238,5.292,5.292,0,0,1,3.8-.183,3.114,3.114,0,0,0-.171,1.066m4.728,1.116a1.594,1.594,0,0,0-.9.611c.144-.191.978-.237.978.335s-.886.72-1.629.472c-.969-.321-.866-3.2.236-5.486s1.06-4.424-.759-5.91-5.175-1.113-6.947-.008-1.962,3.735-.286,4.727,3.732-.19,3.543-1.564-1.773-1.372-1.773-1.372c1.628.725.91,1.8,0,2.141s-1.687.146-1.735-.884.778-2.339,2.789-2.645a2.791,2.791,0,0,1,3.492,2.264,6.33,6.33,0,0,1-.92,3.646,8.49,8.49,0,0,0-6.371.43c-1.957,1.074-2,5.844.537,6.492s5.352-2.363,5.352-2.363a3.485,3.485,0,0,0,4.706,1.644c1.675-.8.308-2.645-.313-2.532" transform="translate(-421.907 -397.579)" fill="#0097ba"/>
  <path id="패스_44985" data-name="패스 44985" d="M478.464,433.547A4.009,4.009,0,0,1,481,431.678c1.155-.107,2.035,1.41,2.012,3.449s-1.114,8.552.054,8.766,1.8-1.18,1.8-1.18.215,3-2.208,3.214-2.9-1.6-2.9-4.277.919-8.925.123-8.768a3.365,3.365,0,0,0-1.417.664" transform="translate(-431.554 -397.56)" fill="#0097ba"/>
  <path id="패스_44986" data-name="패스 44986" d="M479.893,427a1.794,1.794,0,0,1,2.292-1.294c1.095.4,1.792,2.59.5,3.088s-3.088.4-2.789-1.793" transform="translate(-431.958 -395.804)" fill="#0097ba"/>
  <path id="패스_44987" data-name="패스 44987" d="M434.15,440.112c-.7.082-.98-1.066-1.09-4.509-.146-4.616-1.323-15.171-.318-15.419.873-.215,1.759.743,1.759.743a3.93,3.93,0,0,0-2.567-2.518c-.9-.145-1.762.4-2.075,2.317l-4.173,12.011-5.169-12.461c-.368-1.555-1.158-2-1.986-1.867a3.931,3.931,0,0,0-2.569,2.518s.887-.958,1.759-.743c1.005.247-.171,10.8-.318,15.419-.109,3.442-.393,4.591-1.089,4.509s-1.5-1.43-1.5-1.43.419,3.646,2.649,3.4,2.713-6.236,2.88-10.748c.077-2.078.19-4.172.274-5.864,1.3,4.245,3.818,11.89,5.065,11.554,1.079-.29,2.971-5.874,4.235-10,.067,1.346.141,2.833.2,4.313.167,4.512.647,10.5,2.88,10.748s2.65-3.4,2.65-3.4-.8,1.348-1.5,1.43" transform="translate(-413.129 -393.714)" fill="#0097ba"/>
  <path id="패스_44988" data-name="패스 44988" d="M487.122,482.238c-1.133.066-1.662,1.147-1.083,1.727.018-.339.313-1,.929-.917s.615.926-.061,1.366-1.861-.393-2.939-1.186-4.7-4.107-4.7-4.107,2.739-3.144,3.887-4.1c2.259-1.878,3.7-.556,3.7-.556s0-1.6-.858-2.173-2.288,0-3.025.51c-.765.53-3.842,3.175-4.611,3.84-.3-3.625-.784-7.607-.841-8.918-.043-1-.112-2.506.464-3.015a3.319,3.319,0,0,1,1.569-.681c.639-.124,1.7.341,1.633.821a.893.893,0,0,1-1.152.557c-.272-.216-.065-.882-.065-.882-.688.016-.912.836-.72,1.439s2.159.811,2.569.382a2.119,2.119,0,0,0-.584-2.982c-1.392-.868-4.172-1.083-5.29.926-.707,1.269-.607,2.885-.625,5.744-.017,3.074.617,7.279.763,8.979s.688,6.2-.79,6.112c-.558-.034-.746-.735-.236-1.251-1.18.258-1.556,2.8,1.219,2.466,1.733-.207,2.243-2.3,2.311-4.749,1.111,1.245,4.478,4.747,7.251,4.794,1.487.025,2.947-1.009,2.914-2.427a1.654,1.654,0,0,0-1.638-1.72" transform="translate(-430.312 -406.551)" fill="#0097ba"/>
  <path id="패스_44989" data-name="패스 44989" d="M444.453,480.5s0,1.247,1.081,1.247,3.244-3.43,1.758-4.99-5.813-1.715-6.895.779-1.486,10.6,1.757,12,8.921-.623,9.732-6.235-2.838-8.42-5.136-8.264a3.848,3.848,0,0,1,1.351,1.87s2.163,2.963,1.487,5.926-5.136,5.612-6.759,4.053-2.162-6.859-1.351-8.419,4.461-1.872,4.866-.781,0,4.523-1.891,2.808" transform="translate(-420.307 -410.113)" fill="#0097ba"/>
  <path id="패스_44990" data-name="패스 44990" d="M462.724,480.5s0,1.247,1.081,1.247,3.244-3.43,1.758-4.99-5.813-1.715-6.895.779-1.486,10.6,1.757,12,8.921-.623,9.732-6.235-2.838-8.42-5.135-8.264a3.848,3.848,0,0,1,1.351,1.87s2.163,2.963,1.487,5.926-5.136,5.612-6.759,4.053-2.162-6.859-1.351-8.419,4.461-1.872,4.865-.781,0,4.523-1.891,2.808" transform="translate(-425.597 -410.113)" fill="#0097ba"/>
  <path id="패스_44991" data-name="패스 44991" d="M420.08,466.128a3.5,3.5,0,0,1,1.628-1.5c2.775-1.038,5.248.684,5.13,3.364-.1,2.237-4.633,3.585-6.926,4.662.088-2.428.186-4.583.187-5.7,0-.293-.008-.561-.018-.82m11.242,11.64c-1.751-5.143-9.466-3.95-9.466-3.95s6.662-1.084,7.492-4.981c.888-4.171-3.539-6.428-6.367-5.986a4.1,4.1,0,0,0-3.02,1.96c-.274-1.761-.939-2.255-1.776-2.115a3.8,3.8,0,0,0-2.445,2.518s.843-.958,1.684-.743c.969.247-.055,10.8-.15,15.419-.071,3.443-.333,4.591-1,4.509s-1.454-1.43-1.454-1.43.439,3.646,2.583,3.4,2.3-6.236,2.417-10.748c0-.122.006-.242.01-.364,1.572.185,6.889.9,8.1,2.215,1.651,1.791-.142,5.76-1.838,6.5s-4.255-.738-3.832-1.771,1.555.295,1.555.295-.491-1.454-1.263-1.725c-1.659-.58-2.777.378-2.7,2.279.077,1.97,2.78,3.823,6.383,3.286,2.365-.352,6.823-3.479,5.091-8.565" transform="translate(-413.129 -406.535)" fill="#0097ba"/>
</svg>
