<svg id="그룹_7228" data-name="그룹 7228" xmlns="http://www.w3.org/2000/svg" width="119.379" height="48.519" viewBox="0 0 119.379 48.519">
  <path id="패스_52154" data-name="패스 52154" d="M501.972,482.676l-1.911,6.531,6.8-.277,12.563-9.816-4.885-6.254ZM505.886,488l-2.276.092L502,486.031l.641-2.183Zm8.483-13.768.793,1.013L503.98,483.98l-.793-1.016Zm1.232,1.578,1.22,1.566-11.183,8.73-1.22-1.559Zm-8.729,11.877-.793-1.016,11.183-8.739.793,1.016Z" transform="translate(-400.364 -468.029)" fill="#ffca05"/>
  <path id="패스_52155" data-name="패스 52155" d="M470.074,470.065l-3.942,5.49V491.54h7.884V475.555Zm-1.265,3.465h2.528l1.339,1.863H467.47Zm2.844,2.846h1.391v14.189h-1.391Zm-2.489,0h1.79v14.189h-1.79Zm-2.06,0h1.332v14.189H467.1Z" transform="translate(-425.067 -470.065)" fill="#ffca05"/>
  <path id="패스_52156" data-name="패스 52156" d="M442.369,487.023v3.767h3.315v13.032h4.29V490.79h3.293v-3.767Z" transform="translate(-442.369 -457.717)" fill="#1d191a"/>
  <path id="패스_52157" data-name="패스 52157" d="M472.217,492.786a4.585,4.585,0,0,0-.855-1.134,3.967,3.967,0,0,0-2.722-1.046,4.537,4.537,0,0,0-4.427,4.884c0,3.513,2.411,5.036,4.45,5.036a4.252,4.252,0,0,0,2.546-.75,3.372,3.372,0,0,0,1.336-1.951H467.7V494.4h9.631a11.175,11.175,0,0,1-.748,4.813,8.8,8.8,0,1,1,.285-6.423Z" transform="translate(-429.485 -457.851)" fill="#1d191a"/>
  <path id="패스_52158" data-name="패스 52158" d="M480.74,490.79h-3.313v-3.767H488.32v3.767h-3.294v13.032H480.74Z" transform="translate(-416.844 -457.717)" fill="#1d191a"/>
  <path id="패스_52159" data-name="패스 52159" d="M447.6,488.051h1.338l3.32-13.251h1.6l2.989,13.275h1.4l3.7-15.938h-2.153l-2.444,11.678-2.634-11.678h-3.507l-2.64,11.628-2.439-11.628H443.8Z" transform="translate(-441.325 -468.556)" fill="#1d191a"/>
  <path id="패스_52160" data-name="패스 52160" d="M463.254,472.137,459.477,488.4h-1.915l-2.989-13.278h-1.089l-3.319,13.251h-1.85l-3.87-16.238h-1.983l4.619,17.9h4.135l2.685-11.587,2.734,11.587h4.011l4.74-17.9Z" transform="translate(-442.301 -468.556)" fill="#1d191a"/>
  <path id="패스_52161" data-name="패스 52161" d="M467.4,483.453a5.127,5.127,0,0,0,2.324-1.913,6.481,6.481,0,0,0-1.282-8.124c-.994-.773-2.734-1.279-5.54-1.279h-5.851v1.313h.719a.392.392,0,1,1-.023.316h-.7V474.8h.719a.4.4,0,1,1,.351.581.4.4,0,0,1-.373-.261h-.7v1.054h.719a.394.394,0,0,1,.746.178.4.4,0,0,1-.769.138h-.7v1.094h.719a.391.391,0,0,1,.351-.22.4.4,0,1,1-.373.537h-.7v1.032h.719a.4.4,0,0,1,.351-.216.4.4,0,1,1-.373.534h-.7v1.056h.719a.393.393,0,1,1-.023.318h-.7v1.016h.719a.395.395,0,0,1,.746.178.4.4,0,0,1-.769.138h-.7v1.037h.719a.393.393,0,1,1-.023.316h-.7v1.054h.719a.393.393,0,1,1-.023.318h-.7v.918h.719a.4.4,0,1,1-.023.32h-.7v1.033h.719a.4.4,0,0,1,.351-.216.4.4,0,1,1-.373.537h-.7v1.049h.719a.395.395,0,1,1-.023.322h-.7v1.386h4.569V476.15h1.7a3.766,3.766,0,0,1,1.861.482,2.44,2.44,0,0,1,1.063,2.079,2.659,2.659,0,0,1-1.016,2.2,5.441,5.441,0,0,1-2.755.486h-.75l4.666,8.634H471.1Z" transform="translate(-431.682 -468.556)" fill="#1d191a"/>
  <path id="패스_52162" data-name="패스 52162" d="M485.822,487.023v7.9H495.2v-7.9h-1.909v6.312H487.8v-6.312Z" transform="translate(-410.731 -457.717)" fill="#1d191a"/>
  <rect id="사각형_4198" data-name="사각형 4198" width="1.792" height="16.795" transform="translate(72.779 29.306)" fill="#1d191a"/>
  <path id="패스_52163" data-name="패스 52163" d="M495.2,500.275v-8.381h-9.38v8.381h1.98v-6.72h5.491v6.72Z" transform="translate(-410.732 -454.171)" fill="#1d191a"/>
  <rect id="사각형_4199" data-name="사각형 4199" width="1.866" height="16.798" transform="translate(84.986 29.306)" fill="#1d191a"/>
  <path id="패스_52164" data-name="패스 52164" d="M472.067,472.135v4.016H475.6v13.882h4.571V476.151h3.508v-4.016Zm9.992,2.331h-3.826V488.45h-.648V474.466h-3.916v-.648h8.39Z" transform="translate(-420.746 -468.558)" fill="#1d191a"/>
  <path id="패스_52165" data-name="패스 52165" d="M496.768,497.831a10.2,10.2,0,0,1-1.054-5.036s-.244-3.764,3.117-8.708a1.174,1.174,0,0,0,1.237-.3,4.03,4.03,0,0,0,2.253-.394s.434-.273.233-.594c-.137-.219-.385-.244-.695-.169,0,0-1.253.527-1.633.392a4.123,4.123,0,0,1,1.187-1.611s.95-.574.594-1.039c0,0-.99-.537-2.231,1.512,0,0-.344.145-.2-.318a3.991,3.991,0,0,1,.869-1.438s.441-.384.264-.634c-.088-.121-.3-.2-.662-.028a2.2,2.2,0,0,0-1.059,1.782,1.637,1.637,0,0,1,.337-1.747c.385-.361.245-1.2-.757-.283a1.983,1.983,0,0,0-.629,1.576,1.6,1.6,0,0,1,.048-1.573s.256-.34-.01-.47c-.093-.05-.333-.022-.62.346a2.952,2.952,0,0,0,.173,3.745s-5.981,5.4-3.867,15.261a9.8,9.8,0,0,0,3.105,4.69v7.071h9.51v-3.769h-5.219v-2.879h5.062v-3.774h-5.062v-2.609h5.219v-3.767h-9.51Z" transform="translate(-405.352 -463.757)" fill="#1d191a"/>
  <path id="패스_52166" data-name="패스 52166" d="M509.83,504.339l.014.078a.474.474,0,0,1-.2.382l2.715,5.089-.054.176-.061.017-.114-.071-2.73-5.12-.035.007a.48.48,0,0,1,0-.959l.358.166a3.93,3.93,0,0,0,2.857-3.619,3.522,3.522,0,0,0-.951-2.737,4.616,4.616,0,0,0-3.1-1.094h-4.284l-.309.294v12.985l-.13.131-.13-.131V496.952a.47.47,0,0,1-.359-.453.48.48,0,0,1,.479-.479.472.472,0,0,1,.46.375h4.27a4.845,4.845,0,0,1,3.287,1.166,3.792,3.792,0,0,1,1.028,2.931,4.192,4.192,0,0,1-3.01,3.847m3.4-23.355a2.961,2.961,0,0,0,.01-3.753c-.3-.354-.539-.368-.631-.318-.261.142.01.47.01.47a1.61,1.61,0,0,1,.112,1.573,1.989,1.989,0,0,0-.7-1.548c-1.04-.874-1.142-.031-.743.316a1.637,1.637,0,0,1,.41,1.732,2.206,2.206,0,0,0-1.134-1.739c-.363-.152-.575-.071-.66.057-.166.254.289.622.289.622a3.946,3.946,0,0,1,.932,1.4c.157.456-.188.325-.188.325-1.325-2-2.29-1.417-2.29-1.417-.337.479.636,1.014.636,1.014a4.089,4.089,0,0,1,1.251,1.557c-.372.152-1.645-.318-1.645-.318-.313-.067-.56-.029-.688.2-.187.328.258.584.258.584a4.039,4.039,0,0,0,2.269.3,1.176,1.176,0,0,0,1.251.254,20.473,20.473,0,0,1,3.479,8.57c.707,3.53-.162,5.45-1.272,6.743a5.007,5.007,0,0,0-1.543-2c-.931-.726-2.565-1.2-5.2-1.2H501.96v16.8h4.287V498.167h1.592a3.534,3.534,0,0,1,1.749.453,2.294,2.294,0,0,1,1,1.954,2.5,2.5,0,0,1-.954,2.065,5.116,5.116,0,0,1-2.587.453h-.7l4.381,8.106h4.427l-3.473-6.176a4.747,4.747,0,0,0,2.179-1.792,5.325,5.325,0,0,0,.757-2.025A9.376,9.376,0,0,0,518.1,496.2a17.63,17.63,0,0,0-4.861-15.212" transform="translate(-398.981 -465.094)" fill="#1d191a"/>
  <path id="패스_52167" data-name="패스 52167" d="M490.121,476.151v-4.016h-1.053v2.187h-.26v-2.187h-.565v1.654h-.162v-1.654h-.614v1.654H487.3v-1.654h-.613v1.654h-.162v-1.654h-.618v1.654h-.159v-1.654h-.565v2.187h-.262v-2.187h-.565v1.654H484.2v-1.654h-.614v1.654h-.164v-1.654h-.613v1.654h-.162v-1.654h-.616v1.654h-.16v-1.654H481.3v2.187h-.258v-2.187h-1.053v17.9h10.132v-4.016h-5.562v-3.071h5.394v-4.013h-5.394v-2.781Z" transform="translate(-414.978 -468.558)" fill="#1d191a"/>
  <path id="패스_52168" data-name="패스 52168" d="M472.386,488.413a1.692,1.692,0,0,0-.987-.949c-.89-.323-2.2-.054-3.992.836-1.17.577-2.713,1.388-3.3,1.7a12.513,12.513,0,0,0-.442-2.784,3.145,3.145,0,0,0-2.573-2.336,2.131,2.131,0,0,0,.062-1.6.637.637,0,0,0-.541-.283.746.746,0,0,0-.594.24,2.584,2.584,0,0,0-.451,1.654,9.648,9.648,0,0,0-2.5.766c-3.634,1.6-3.978,8.041-3.994,8.314l-.01.225.921.048a3.189,3.189,0,0,1-2.246,1.09l-.111.149.128.111.017,0a3.238,3.238,0,0,0,2.521-1.332l1.291.064a2.779,2.779,0,0,1-1.4,1.31l-.06.174.118.071.055-.014a2.948,2.948,0,0,0,1.567-1.528l1.716.083a4,4,0,0,1-1.69,1.547l-.071.169.121.081.05-.01a4.279,4.279,0,0,0,1.885-1.773l.377.021a1.941,1.941,0,0,1-1.346,1.7l-.069.169.118.081L457,496.4a2.2,2.2,0,0,0,1.5-1.927l.94.043a2.187,2.187,0,0,1-1.329,1.647l-.066.173.119.078.052-.014a2.44,2.44,0,0,0,1.483-1.87l1.182.057a4,4,0,0,1-1.531,1.853l-.038.183.111.057.071-.024a4.181,4.181,0,0,0,1.661-2.055l.361.021a3.124,3.124,0,0,1-1.3,1.956l-.038.18.109.057.073-.022a3.328,3.328,0,0,0,1.419-2.16l.537.026a2.44,2.44,0,0,1-1,1.721l-.021.18.1.054.08-.031a2.65,2.65,0,0,0,1.1-1.91l.764.038a7.649,7.649,0,0,1,1.823,3.577c-.577.161-1.372.3-1.593.337l-.112-.3a2.5,2.5,0,0,0-1.569-1.31c-1.775-.5-2.722.575-3.41,1.688l-.126.23-1.065-.038a2.542,2.542,0,0,0-.7-1.318,2.37,2.37,0,0,0-1.643-.771,3.022,3.022,0,0,0-2.58,1.21l-1.255-.254a11.179,11.179,0,0,1,1.113-1.678l-.026-.32-.32.028a11.688,11.688,0,0,0-1.643,2.689,1.636,1.636,0,0,0-1.742-.911c-.7.093-1.5.7-1.282,3.057.09.959.622,2,1.434,2.036h.076a1.383,1.383,0,0,0,.683-.173c.01.19.017.382.041.577.491,4.16,2.6,5.863,7.519,6.09.3.014.588.017.862.017,4.966,0,6.809-2.093,7.472-3.389a9,9,0,0,0,.613-2.964,1.123,1.123,0,0,0,.442.088h.019a1.813,1.813,0,0,0,1.336-.74,3.32,3.32,0,0,0,.448-2.475,1.537,1.537,0,0,0-.722-1.116,1.4,1.4,0,0,0-1.673.489,9.115,9.115,0,0,0-1.8-4.331l.154.01.012-.226c0-.026.007-.145.014-.323,4.042-.47,6.959-1.773,8.015-3.591a2.4,2.4,0,0,0,.225-2.188m-7.16,10.156c.036.171.076.344.107.52a6.645,6.645,0,0,1-1.562.34,3.525,3.525,0,0,0-.092-.534,15.6,15.6,0,0,0,1.547-.327m-3.411-1.279a2.216,2.216,0,0,1,1.384,1.163,2.96,2.96,0,0,1,.143,2.3,3.254,3.254,0,0,1-3.936,2.024,1.34,1.34,0,0,0,.1-.873l-.1-.155a1.558,1.558,0,0,0,1.208.6,2.411,2.411,0,0,0,1.543-.684,3.218,3.218,0,0,0,.762-2.235,1.779,1.779,0,0,0-.479-1.36,1.672,1.672,0,0,0-1.115-.4,2.59,2.59,0,0,0-2.067,1.21,2.288,2.288,0,0,0,.036,2.739l-.233-.142a.827.827,0,0,0-.61-.01,3.682,3.682,0,0,1,.28-2.618c.909-1.465,1.8-1.918,3.085-1.559m-2.314,1.751a2.289,2.289,0,0,1,1.823-1.073,1.406,1.406,0,0,1,.924.325,1.523,1.523,0,0,1,.377,1.144,2.964,2.964,0,0,1-.665,2.015,2.124,2.124,0,0,1-1.348.61,1.3,1.3,0,0,1-1.023-.536,2.017,2.017,0,0,1-.088-2.485m-1.265.173-.111.387-.816-.022.023-.194-.016-.2Zm-3.268-2.124a2.118,2.118,0,0,1,1.417.683,2.21,2.21,0,0,1,.655,1.607,2.9,2.9,0,0,1-2.915,2.9,1.677,1.677,0,0,1-1.524-.472,3.065,3.065,0,0,1-.548-2.212,2.781,2.781,0,0,1,2.915-2.507m-2.77,1.182a3.277,3.277,0,0,0-.259.563l0,0-1.246-.223c.1-.206.188-.4.285-.588Zm-3.527,3.928c-.512-.022-.931-.861-1-1.619-.1-1.1-.031-2.444.89-2.57A1.312,1.312,0,0,1,450,499.076a9.128,9.128,0,0,0-.588,2.838.934.934,0,0,1-.738.287m16.23,3.371c-.651,1.274-2.545,3.373-7.909,3.126-4.7-.216-6.627-1.756-7.092-5.687a8.27,8.27,0,0,1,.674-4.125l1.277.23a3.618,3.618,0,0,0-.088.456,3.348,3.348,0,0,0,.622,2.43,1.844,1.844,0,0,0,1.434.591l.339-.021a4.073,4.073,0,0,0,1.828-.627,3.216,3.216,0,0,0,.043,1.329l.176.109.105-.178a2.16,2.16,0,0,1,.076-1.469.466.466,0,0,1,.394-.176h.007a.389.389,0,0,1,.346.152c.244.344.021,1.186-.083,1.479l.085.188.05.007.137-.1c.045-.121.425-1.215.05-1.745a.672.672,0,0,0-.586-.277h-.009l-.1.024a3.047,3.047,0,0,0,.6-1.417l.795.019a4.632,4.632,0,0,0,.128,1.77,2.328,2.328,0,0,0-.347,1.384l.152.138.138-.155c-.012-.264.021-1.009.34-1.25a.5.5,0,0,1,.48-.026l.259.242a1.771,1.771,0,0,1-.334,1.165l.043.2.08.024.123-.064c.007-.014.078-.121.154-.276a3.04,3.04,0,0,0,1.037.181,3.721,3.721,0,0,0,3.29-2.373,3.139,3.139,0,0,0,.174-1.13,7.178,7.178,0,0,0,1.585-.342,12.85,12.85,0,0,1-.474,6.19m2.33-6.594a1.146,1.146,0,0,1,.487.807,2.9,2.9,0,0,1-.358,2.1,1.381,1.381,0,0,1-.988.57.548.548,0,0,1-.42-.162,16.445,16.445,0,0,0-.1-2.6c.043-.067.691-1.073,1.376-.715m-6.89-15.421.258-.1.174.078c.15.23.012.871-.147,1.3a4.477,4.477,0,0,0-.607.007,2.231,2.231,0,0,1,.321-1.284m-3.095,2.518c3.176-1.4,5.257-.971,5.986,1.28.615,1.91.5,5.919.456,6.912l-10.147-.5c.1-1.153.693-6.368,3.705-7.7m14.521,4.3c-.463.8-2.138,2.713-7.6,3.358.021-.766.038-1.986-.028-3.233.34-.183,2.148-1.137,3.472-1.792,1.654-.817,2.876-1.094,3.636-.814a1.221,1.221,0,0,1,.724.7,1.966,1.966,0,0,1-.2,1.783" transform="translate(-438.866 -460.65)" fill="#ffca05"/>
  <path id="패스_52169" data-name="패스 52169" d="M463.633,487.62a1.024,1.024,0,0,0,.2-.453.359.359,0,0,0-.085-.294l-.311-.157.187-.3-.071-.344c-.347-.48-2.863.617-4.058,1.315a7.353,7.353,0,0,0-1.438,1.087,4.607,4.607,0,0,1-.681-.021l-.145.112.111.145a3.929,3.929,0,0,0,.463.028,1.905,1.905,0,0,0-.589,1.146.485.485,0,0,0,.289.439l.226.059.009.064c.021.1.109.276.423.3h.009l.13-.123-.124-.135c-.164-.014-.178-.071-.183-.1a13.217,13.217,0,0,0,4.514-1.7,6,6,0,0,0,.885-.769,2.11,2.11,0,0,1,.461-.064l.081,0c0,.016-.022.157-.629.634l-.022.182.185.024c.6-.475.809-.747.7-.945-.04-.074-.1-.185-.536-.135m-.076-.574.019.092a1.186,1.186,0,0,1-.323.55,11.813,11.813,0,0,0-1.267.368,30.669,30.669,0,0,0-3.577,1.533,8.209,8.209,0,0,1,1-1.013,8.348,8.348,0,0,0,1.858-.612,11.97,11.97,0,0,0,1.92-1.028.609.609,0,0,1,.375.111m-3.669,1.144a7.682,7.682,0,0,1,.783-.51,5.944,5.944,0,0,1,2-.726,15.913,15.913,0,0,1-1.521.773,8.264,8.264,0,0,1-1.267.463m-.263-.581a10.77,10.77,0,0,1,3.586-1.414l.133.026.028.13a.733.733,0,0,1-.277.323,5.271,5.271,0,0,0-2.551.779,8.529,8.529,0,0,0-1.243.874,7.56,7.56,0,0,1-.833.119,6.928,6.928,0,0,1,1.156-.838m-1.854,2.521-.154-.04-.144-.216a2.048,2.048,0,0,1,.7-1.146c.216-.009.47-.029.753-.069a4.345,4.345,0,0,0-1.154,1.471m4.586-1.654a13.265,13.265,0,0,1-4.313,1.654l.062-.105.021-.005a33.6,33.6,0,0,1,3.94-1.723c.335-.111.6-.192.829-.252a5.677,5.677,0,0,1-.539.432" transform="translate(-431.559 -458.496)" fill="#ffca05"/>
  <path id="패스_52170" data-name="패스 52170" d="M450.829,490.9a2.813,2.813,0,0,0,1.459-1.094l-.036-.178-.18.038a2.607,2.607,0,0,1-1.308.981l-.1.163.124.1.036-.007" transform="translate(-436.327 -455.823)" fill="#ffca05"/>
  <path id="패스_52171" data-name="패스 52171" d="M451.944,491.013,452,491c1.222-.594,1.472-1.189,1.483-1.211l-.071-.169-.169.071a2.747,2.747,0,0,1-1.357,1.077l-.061.173.116.074" transform="translate(-435.482 -455.828)" fill="#ffca05"/>
  <path id="패스_52172" data-name="패스 52172" d="M456.011,491.785a3.328,3.328,0,0,0,1.064-1.8l-.1-.155-.154.1a3.071,3.071,0,0,1-.963,1.64l-.029.181.105.054.078-.026" transform="translate(-432.57 -455.671)" fill="#ffca05"/>
  <path id="패스_52173" data-name="패스 52173" d="M451.866,495.689h.05a2.3,2.3,0,0,0,2.333-2.314,2.066,2.066,0,0,0-.454-1.574,1.658,1.658,0,0,0-1.244-.465l-.074,0A2.259,2.259,0,0,0,450.3,493.5a2.376,2.376,0,0,0,.591,1.7,1.338,1.338,0,0,0,.971.482m.617-4.059h.067a1.368,1.368,0,0,1,1.032.372,1.787,1.787,0,0,1,.375,1.36,2,2,0,0,1-2.041,2.039h-.043a1.093,1.093,0,0,1-.764-.389,2.124,2.124,0,0,1-.515-1.488,1.972,1.972,0,0,1,1.889-1.894" transform="translate(-436.595 -454.577)" fill="#ffca05"/>
  <path id="패스_52174" data-name="패스 52174" d="M451.84,494.743l.112-.007a1.366,1.366,0,0,0,1.139-1.346,1.618,1.618,0,0,0-.377-1.225,1.042,1.042,0,0,0-.783-.358,1.021,1.021,0,0,0-.757.306,1.736,1.736,0,0,0-.4,1.263c.01.662.442,1.367,1.068,1.367m-.456-2.426a.741.741,0,0,1,.55-.216.761.761,0,0,1,.565.259,1.359,1.359,0,0,1,.3,1,1.075,1.075,0,0,1-.888,1.087c-.437.06-.84-.465-.852-1.073a1.486,1.486,0,0,1,.323-1.056" transform="translate(-436.251 -454.235)" fill="#ffca05"/>
  <path id="패스_52175" data-name="패스 52175" d="M455.477,494.806a1.194,1.194,0,0,0,1.087-.736,1.931,1.931,0,0,0-.069-1.65.834.834,0,0,0-.7-.378,1.491,1.491,0,0,0-1.191.686,1.391,1.391,0,0,0-.135,1.343,1.078,1.078,0,0,0,1.011.736m-.634-1.918a1.227,1.227,0,0,1,.969-.553.51.51,0,0,1,.437.244,1.659,1.659,0,0,1,.043,1.382.893.893,0,0,1-.816.555.791.791,0,0,1-.743-.555,1.126,1.126,0,0,1,.109-1.073" transform="translate(-433.643 -454.064)" fill="#ffca05"/>
  <path id="패스_52176" data-name="패스 52176" d="M459.964,494.858a1.3,1.3,0,0,0-.577.209,8.706,8.706,0,0,1-3.394.793,10.87,10.87,0,0,1-1.313.092,3.16,3.16,0,0,1-2.224-.669,3,3,0,0,0-1.351-.7.37.37,0,0,0-.285.112,1.532,1.532,0,0,0-.166,1.737,5.3,5.3,0,0,0,4.547,2.8h.024c2.4,0,4.02-.994,4.794-2.948.287-.719.349-1.092.218-1.289l-.271-.135m-3.064,1.206c.19-.028.363-.055.524-.078l.026.472a1.475,1.475,0,0,1-.593.166,1.424,1.424,0,0,0,.043-.56m.8.256-.019-.382c.175-.033.335-.064.479-.093a1.988,1.988,0,0,1-.46.475m-1.671-.138c.221-.028.425-.054.617-.081.043.5-.086.743-.679.881l-.043-.757-.016-.033.121-.01m-.318.85-.014,0a.575.575,0,0,1-.51-.116.939.939,0,0,1-.218-.653c.219-.01.456-.024.7-.048l-.007.024Zm-1-.755.021.235-.007,0a1.189,1.189,0,0,1-.817.321v-.612a5.622,5.622,0,0,0,.771.052h.033m-1.69.093a.777.777,0,0,1-.138-.432,3.146,3.146,0,0,0,.766.244v.613a1.122,1.122,0,0,1-.627-.425m6.695-.206c-.722,1.816-2.236,2.741-4.493,2.741v.162l-.024-.162a4.956,4.956,0,0,1-4.249-2.6,1.242,1.242,0,0,1,.107-1.388l.047-.009a2.724,2.724,0,0,1,1.156.634l.38.263a.988.988,0,0,0,.168.712,1.406,1.406,0,0,0,.95.574h.019l.166.014a1.37,1.37,0,0,0,.862-.318l.209.325a.748.748,0,0,0,.534.2l.192-.014a1.565,1.565,0,0,0,.985-.415l.123.01a1.738,1.738,0,0,0,.795-.23,2.144,2.144,0,0,0,.873-.9,4.3,4.3,0,0,0,1.021-.406l.432-.175c.009.016.078.166-.252.988" transform="translate(-436.474 -452.214)" fill="#ffca05"/>
  <path id="패스_52177" data-name="패스 52177" d="M448.011,492.645a.7.7,0,0,0-.3.626.825.825,0,0,0,.24.715l.406.135.162-.017.118-.2-.2-.116-.287-.053a.575.575,0,0,1-.123-.449l.14-.361.377.034.221-.071-.069-.216a.788.788,0,0,0-.689-.028" transform="translate(-438.482 -453.677)" fill="#ffca05"/>
  <path id="패스_52178" data-name="패스 52178" d="M458.324,494.431h.005a.951.951,0,0,0,.969-.975.636.636,0,0,0-.263-.6.653.653,0,0,0-.593.054l-.055.223.225.057.266-.047c.055.031.093.145.1.316a.639.639,0,0,1-.655.648l-.157.166.162.156" transform="translate(-430.87 -453.508)" fill="#ffca05"/>
  <path id="패스_52179" data-name="패스 52179" d="M457.046,486.487c-.27-1.165-1.284-1.621-2.647-1.134a2.183,2.183,0,0,0-1.526,2.412,1.367,1.367,0,0,0,1.22,1.222,1.642,1.642,0,0,0-.4,1.59,1.028,1.028,0,0,0,1.011.61l.078,0a2.1,2.1,0,0,0,1.849-1.006,1.027,1.027,0,0,0,.033-.9,1.538,1.538,0,0,0-.781-.695,2.079,2.079,0,0,0,1.165-2.107m-1.535,2.309a1.51,1.51,0,0,1,.857.627.722.722,0,0,1-.033.627,1.84,1.84,0,0,1-1.621.814c-.218-.01-.6-.074-.719-.4-.245-.674.375-1.322.529-1.471a3.484,3.484,0,0,0,.575-.085l.394-.135.017.017m-.487-.2c-1.042.254-1.685-.047-1.832-.883a1.864,1.864,0,0,1,1.317-2.053,2.687,2.687,0,0,1,.911-.178,1.277,1.277,0,0,1,1.31,1.08c.188.8-.624,1.771-1.706,2.034" transform="translate(-434.744 -459.074)" fill="#ffca05"/>
  <path id="패스_52180" data-name="패스 52180" d="M454.044,486.035a1,1,0,0,0-.716.973.858.858,0,0,0,.855.769l.142-.01a1.544,1.544,0,0,0,1.03-.567.789.789,0,0,0,.121-.645c-.147-.62-.648-.819-1.433-.52m1.045.983a1.267,1.267,0,0,1-.809.429.538.538,0,0,1-.627-.46.682.682,0,0,1,.506-.648,1.443,1.443,0,0,1,.524-.117.447.447,0,0,1,.479.408l-.073.389" transform="translate(-434.39 -458.536)" fill="#ffca05"/>
  <path id="패스_52181" data-name="패스 52181" d="M453.752,488.312a.531.531,0,0,0,.418.506l.1.007a1.081,1.081,0,0,0,.691-.33.663.663,0,0,0,.216-.449.581.581,0,0,0-.823-.556.825.825,0,0,0-.6.823m.857-.546c.218,0,.238.216.24.283l-.123.216-.461.237-.036,0-.152-.209a.508.508,0,0,1,.378-.5l.154-.028" transform="translate(-434.083 -457.41)" fill="#ffca05"/>
  <path id="패스_52182" data-name="패스 52182" d="M451.743,493.53c.3.021.463-.351.442-.6s-.123-.55-.415-.532c-.316.016-.416.263-.408.522s.081.6.38.615" transform="translate(-435.821 -453.808)" fill="#ffca05"/>
  <path id="패스_52183" data-name="패스 52183" d="M454.963,493.63c.261.064.465-.237.491-.467s-.024-.5-.283-.539c-.283-.035-.41.166-.444.4s-.024.544.237.608" transform="translate(-433.382 -453.642)" fill="#ffca05"/>
  <path id="패스_52184" data-name="패스 52184" d="M452.676,495.139l.022,0,.071-.119a1.469,1.469,0,0,1-.035-.833l.043-.024.135.067a.985.985,0,0,1-.017.753l.059.124.124-.06a1.129,1.129,0,0,0-.005-.925l-.3-.152-.2.1c-.187.235-.033.876,0,1l.1.074" transform="translate(-435 -452.662)" fill="#ffca05"/>
  <path id="패스_52185" data-name="패스 52185" d="M453.687,495.091h0l.1-.1c0-.256.057-.705.2-.809l.092-.014.074.064c.069.169-.1.577-.221.8l.036.128.048.017.085-.054c.036-.066.359-.651.232-.962l-.2-.18-.259.048c-.266.2-.278.888-.28.964l.1.1" transform="translate(-434.198 -452.652)" fill="#ffca05"/>
  <path id="패스_52186" data-name="패스 52186" d="M450.8,494.158l-.325-.055-.033-.04a.919.919,0,0,0-1.014-.156c-.513.263-.614.534-.648.786l.111.145.147-.114c.022-.176.081-.368.508-.588a.713.713,0,0,1,.629.033,2.458,2.458,0,0,0-.893.527l-.126.335a.242.242,0,0,0,.214.154,1.289,1.289,0,0,0,1.056-.511l.123-.318.117.028.005.2a1.1,1.1,0,0,1-1.355.783l-.149.1.1.152.327.031a1.329,1.329,0,0,0,1.324-.992c.1-.318-.029-.453-.117-.506m-.584.365a1.085,1.085,0,0,1-.795.408l.047-.054a2.2,2.2,0,0,1,.807-.47l-.059.116" transform="translate(-437.7 -452.768)" fill="#ffca05"/>
  <path id="패스_52187" data-name="패스 52187" d="M458.674,494.384l-.254-.135v0l-.207-.251c-.508-.142-1.3.446-1.694,1.061a1.192,1.192,0,0,0-.062,1.46l.1.048.085-.031.014-.181a1,1,0,0,1,.085-1.158c.375-.581,1.058-1.044,1.422-.921l0,.009-.083.028a2.612,2.612,0,0,0-1.327,1.384l.078.2.344-.036a2.965,2.965,0,0,0,1.2-1.351h0l.088.031c.067.093,0,.458-.378.945a1.567,1.567,0,0,1-1.054.667l-.147-.026-.18-.024-.024.181a.4.4,0,0,0,.328.126h0a1.774,1.774,0,0,0,1.281-.766c.408-.527.56-1.02.38-1.26m-1.618,1.242-.017.009a2.747,2.747,0,0,1,1.009-1.028,2.811,2.811,0,0,1-.992,1.02" transform="translate(-432.272 -452.657)" fill="#ffca05"/>
  <path id="패스_52188" data-name="패스 52188" d="M474.416,493.618h5.056v-1.7h-6.744l-.27.273v5.734l.267.267h6.909v-1.7h-5.218Z" transform="translate(-420.461 -454.157)" fill="#1d191a"/>
  <path id="패스_52189" data-name="패스 52189" d="M471.108,487.023v16.8h9.511v-1.693h-6.912a.483.483,0,0,1-.449.316.5.5,0,0,1-.506-.5.487.487,0,0,1,.313-.451v-5.743a.48.48,0,0,1,0-.9v-5.488a.491.491,0,0,1-.313-.449.5.5,0,0,1,.5-.506.485.485,0,0,1,.451.318h6.912v-1.7Z" transform="translate(-421.444 -457.718)" fill="#1d191a"/>
  <path id="패스_52190" data-name="패스 52190" d="M472.459,488.486v5.481l.263.26h6.75v-1.691h-5.056l0-2.616h5.22v-1.7h-6.911Z" transform="translate(-420.461 -456.844)" fill="#1d191a"/>
</svg>
