<svg id="그룹_7210" data-name="그룹 7210" xmlns="http://www.w3.org/2000/svg" width="66.333" height="65.129" viewBox="0 0 66.333 65.129">
  <rect id="사각형_4187" data-name="사각형 4187" width="66.333" height="65.129" transform="translate(0)" fill="#034ea1"/>
  <path id="패스_51779" data-name="패스 51779" d="M541.142,223.679h.767c.8,0,1.308-.439,1.308-1.1,0-.75-.543-1.077-1.334-1.077a3.129,3.129,0,0,0-.741.069Zm-.748-2.637a7.935,7.935,0,0,1,1.439-.128,2.4,2.4,0,0,1,1.685.482,1.448,1.448,0,0,1,.456,1.1,1.529,1.529,0,0,1-1.092,1.474V224a1.485,1.485,0,0,1,.854,1.172,10.611,10.611,0,0,0,.439,1.592H543.4a7.009,7.009,0,0,1-.377-1.386c-.175-.8-.492-1.1-1.175-1.128h-.705v2.514h-.748Z" transform="translate(-532.519 -186.969)" fill="#fff"/>
  <path id="패스_51780" data-name="패스 51780" d="M547.99,223.6a1.082,1.082,0,0,0-1.042-1.23,1.247,1.247,0,0,0-1.163,1.23Zm-2.214.544a1.327,1.327,0,0,0,1.422,1.443,2.807,2.807,0,0,0,1.153-.206l.14.534a3.383,3.383,0,0,1-1.4.268,1.943,1.943,0,0,1-2.049-2.1,2.032,2.032,0,0,1,1.965-2.255,1.76,1.76,0,0,1,1.714,1.963,2.082,2.082,0,0,1-.026.361Z" transform="translate(-529.133 -186.305)" fill="#fff"/>
  <path id="패스_51781" data-name="패스 51781" d="M552.2,223.967c-.83-.017-1.77.13-1.77.94a.666.666,0,0,0,.709.722,1.055,1.055,0,0,0,1.025-.7l.036-.242Zm.74,1.128a7,7,0,0,0,.06,1h-.679l-.071-.525h-.028a1.533,1.533,0,0,1-1.272.622,1.19,1.19,0,0,1-1.275-1.2c0-1.006.893-1.557,2.509-1.55v-.085a.86.86,0,0,0-.952-.966,1.989,1.989,0,0,0-1.094.311l-.171-.508a2.69,2.69,0,0,1,1.379-.363c1.284,0,1.593.871,1.593,1.706Z" transform="translate(-525.764 -186.301)" fill="#fff"/>
  <path id="패스_51782" data-name="패스 51782" d="M557.377,224.4l-.035-.327a1.116,1.116,0,0,0-1.1-.871c-.783,0-1.25.689-1.25,1.6,0,.852.423,1.55,1.234,1.55a1.15,1.15,0,0,0,1.111-.9l.035-.327Zm.759-3.645V225.8c0,.37.007.791.033,1.077h-.681l-.036-.724h-.014a1.531,1.531,0,0,1-1.414.819,1.907,1.907,0,0,1-1.792-2.119,2,2,0,0,1,1.87-2.24,1.385,1.385,0,0,1,1.258.629h.017v-2.482Z" transform="translate(-522.444 -187.082)" fill="#fff"/>
  <path id="패스_51783" data-name="패스 51783" d="M559.408,222.619h.759v4.166h-.759Zm.361-.767a.487.487,0,1,1,.5-.491.475.475,0,0,1-.489.491Z" transform="translate(-518.755 -186.994)" fill="#fff"/>
  <path id="패스_51784" data-name="패스 51784" d="M562.687,223.054c0-.441-.009-.786-.034-1.128h.672l.04.681h.019a1.547,1.547,0,0,1,1.379-.776c.579,0,1.474.346,1.474,1.771v2.49h-.758v-2.4c0-.672-.251-1.241-.966-1.241a1.1,1.1,0,0,0-1.016.776l-.05.353v2.513h-.759Z" transform="translate(-516.312 -186.301)" fill="#fff"/>
  <path id="패스_51785" data-name="패스 51785" d="M570.52,223.563l-.043-.337a1.085,1.085,0,0,0-1.061-.809c-.724,0-1.241.612-1.241,1.585,0,.81.423,1.5,1.232,1.5a1.088,1.088,0,0,0,1.052-.783l.06-.4Zm.755,1.918a2.45,2.45,0,0,1-.591,1.913,2.3,2.3,0,0,1-1.526.5,2.7,2.7,0,0,1-1.389-.344l.19-.586a2.293,2.293,0,0,0,1.224.335c.779,0,1.346-.4,1.346-1.464v-.456h-.017a1.48,1.48,0,0,1-1.329.7,1.867,1.867,0,0,1-1.775-2.041,1.994,1.994,0,0,1,1.887-2.205,1.393,1.393,0,0,1,1.3.715h.017l.024-.62h.674c-.028.292-.038.629-.038,1.137Z" transform="translate(-512.85 -186.301)" fill="#fff"/>
  <path id="패스_51786" data-name="패스 51786" d="M595.5,228.2a85.783,85.783,0,0,0-12.048-1.175,106.637,106.637,0,0,0-16.429,1.289c-.164.022-.316.04-.477.06v-4.166a4.774,4.774,0,0,0,2.431-.145,14.148,14.148,0,0,0,3.156-1.4,22.525,22.525,0,0,0,3.178-1.618,32.272,32.272,0,0,0,2.682-2.343,32.885,32.885,0,0,0,2.345-2.535,25.857,25.857,0,0,0,2.153-2.829,13.6,13.6,0,0,0,1.355-3.252c.484-1.484.48-2.661-.19-3.363a3.3,3.3,0,0,0-3.3-.531,15.547,15.547,0,0,0-3.107,1.6,22.753,22.753,0,0,0-3.176,1.623,32.531,32.531,0,0,0-2.67,2.361,31.131,31.131,0,0,0-2.285,2.592,26.26,26.26,0,0,0-2.184,2.787,9.575,9.575,0,0,0-.714,1.393c-.147-.423-.311-.862-.473-1.31a16.519,16.519,0,0,0-1.341-3.124,16.226,16.226,0,0,0-4.469-5.3,16.731,16.731,0,0,0-2.834-1.873,9.79,9.79,0,0,0-3.031-1.281,3.342,3.342,0,0,0-2.831.515,3.274,3.274,0,0,0-.957,2.6,8.966,8.966,0,0,0,.513,3.19,18.1,18.1,0,0,0,1.586,3.045,22.6,22.6,0,0,0,2.01,2.915,21.735,21.735,0,0,0,2.454,2.305,19.439,19.439,0,0,0,2.64,2.25,9.776,9.776,0,0,0,3.128,1.166,4.342,4.342,0,0,0,1.768-.029V228.6a32.759,32.759,0,0,1-8.48-.416c-1.082-.156-2.307-.334-3.752-.491a76.725,76.725,0,0,0-13.111-.047.851.851,0,0,0,.15,1.7,76.722,76.722,0,0,1,12.771.041c1.419.156,2.63.332,3.7.484a39.1,39.1,0,0,0,6.045.55,43.029,43.029,0,0,0,5.54-.41,103.881,103.881,0,0,1,16.2-1.274,84.364,84.364,0,0,1,11.767,1.149.852.852,0,0,0,.294-1.678" transform="translate(-534.067 -198.137)" fill="#72be44"/>
  <path id="패스_51787" data-name="패스 51787" d="M544.569,232.051a1.792,1.792,0,0,0,1.334-.5,1.56,1.56,0,0,0,.435-1.1,1.467,1.467,0,0,0-.449-1.1,1.808,1.808,0,0,0-1.337-.5h-1.218l-.3.083a.533.533,0,0,0-.083.335v2.406a.36.36,0,0,0,.133.334.778.778,0,0,0,.335.052Zm4.612,4.844a1.062,1.062,0,0,1,.216,1.021,1.33,1.33,0,0,1-.617.8,1.594,1.594,0,0,1-1.07.216,1.523,1.523,0,0,1-1.037-.634l-2.658-3.626-.181-.185-.218-.05h-.283a.45.45,0,0,0-.318.085.528.528,0,0,0-.067.316V237.9a1.063,1.063,0,0,1-.434.887,1.66,1.66,0,0,1-1.906,0,1.078,1.078,0,0,1-.418-.887V228.04a1.6,1.6,0,0,1,.434-1.253,1.718,1.718,0,0,1,1.189-.351h2.59a5.821,5.821,0,0,1,3.073.769,3.426,3.426,0,0,1,1.688,3.157,4.048,4.048,0,0,1-.486,2.088,4.325,4.325,0,0,1-1.3,1.338l-.233.233a.481.481,0,0,0,.131.418Z" transform="translate(-532.667 -182.948)" fill="#fff"/>
  <path id="패스_51788" data-name="패스 51788" d="M552.577,234.481a1.688,1.688,0,0,0-.569-1.322,2.132,2.132,0,0,0-1.49-.517,2.057,2.057,0,0,0-1.436.517,1.713,1.713,0,0,0-.567,1.322,1.94,1.94,0,0,0,.567,1.4,2,2,0,0,0,1.471.6,2.027,2.027,0,0,0,2.024-2m2.639.016a4.667,4.667,0,0,1-1.27,3.325,4.879,4.879,0,0,1-6.918,0,4.746,4.746,0,0,1-1.236-3.325,4.4,4.4,0,0,1,1.37-3.242,4.483,4.483,0,0,1,3.273-1.336,4.724,4.724,0,0,1,3.344,1.336,4.339,4.339,0,0,1,1.436,3.242" transform="translate(-528.588 -180.412)" fill="#72be44"/>
  <path id="패스_51789" data-name="패스 51789" d="M557.605,231.759a1.667,1.667,0,0,0-.568-1.32,2.125,2.125,0,0,0-1.484-.517,2.059,2.059,0,0,0-1.438.517,1.712,1.712,0,0,0-.57,1.32,1.95,1.95,0,0,0,.57,1.4,1.994,1.994,0,0,0,1.469.6,2.026,2.026,0,0,0,2.022-2.006m2.641.017a4.675,4.675,0,0,1-1.27,3.325,4.879,4.879,0,0,1-6.918,0,4.747,4.747,0,0,1-1.237-3.325,4.4,4.4,0,0,1,1.37-3.242,4.5,4.5,0,0,1,3.278-1.337,4.719,4.719,0,0,1,3.339,1.337,4.335,4.335,0,0,1,1.438,3.242" transform="translate(-524.927 -182.394)" fill="#0db04b"/>
  <path id="패스_51790" data-name="패스 51790" d="M566.326,235.8a1.227,1.227,0,0,1-.213.949,1.243,1.243,0,0,1-.842.55,1.406,1.406,0,0,1-1.132-.276l-3.714-2.525-.1-.014-.05.093.51,2.473a1.11,1.11,0,0,1-.223.985,1.437,1.437,0,0,1-.838.479,1.385,1.385,0,0,1-.961-.107,1.079,1.079,0,0,1-.588-.783l-2.127-10.293a1.106,1.106,0,0,1,.225-.985,1.393,1.393,0,0,1,.836-.48,1.442,1.442,0,0,1,.962.109,1.108,1.108,0,0,1,.6.814l1.009,4.894.076.036.1-.073,2.06-2.917a1.4,1.4,0,0,1,.928-.636,1.311,1.311,0,0,1,.963.209,1.22,1.22,0,0,1,.567.755,1.35,1.35,0,0,1-.252,1.092L562.6,232.3l-.114.347c.014.078.1.168.242.273l2.924,1.922a1.432,1.432,0,0,1,.672.952" transform="translate(-521.145 -183.394)" fill="#fff"/>
  <path id="패스_51791" data-name="패스 51791" d="M564.46,238.992a1.533,1.533,0,0,1-.982.18,1.573,1.573,0,0,1-.925-.418,1.082,1.082,0,0,1-.3-.931l.885-7.03a1.111,1.111,0,0,1,.527-.861,1.494,1.494,0,0,1,1-.159,1.555,1.555,0,0,1,.911.416,1.08,1.08,0,0,1,.316.949l-.881,7.03a1.063,1.063,0,0,1-.543.824m1.313-10.175a1.342,1.342,0,0,1-1.068.321,1.421,1.421,0,0,1-1-.582,1.464,1.464,0,0,1-.27-1.078,1.353,1.353,0,0,1,.558-.956,1.4,1.4,0,0,1,1.08-.285,1.422,1.422,0,0,1,.959.541,1.35,1.35,0,0,1,.3,1.065,1.408,1.408,0,0,1-.558.975" transform="translate(-516.614 -183.103)" fill="#fff"/>
  <path id="패스_51792" data-name="패스 51792" d="M570.511,231.032a1.941,1.941,0,0,0-1.281-.28,2.02,2.02,0,0,0-1.541.747c-.169.176-.23.32-.181.425.033.1.128.135.283.118l2.736-.337.263-.187c.052-.14-.042-.3-.278-.486m3.23.8a1.9,1.9,0,0,1-.169,1.217,1.1,1.1,0,0,1-.907.565l-4.277.529c-.155.019-.232.085-.228.2-.009.126.095.232.308.315a2.881,2.881,0,0,0,1.3.147,2.991,2.991,0,0,0,1.3-.349,1.141,1.141,0,0,1,.933-.079,1.24,1.24,0,0,1,.643.562,1.126,1.126,0,0,1,.123.859,1.509,1.509,0,0,1-.6.88,5.947,5.947,0,0,1-2.889.729,4.515,4.515,0,0,1-2.665-.715,4.622,4.622,0,0,1-1.965-2.955,4.471,4.471,0,0,1,.6-3.342,4.164,4.164,0,0,1,1.422-1.438,5.179,5.179,0,0,1,1.8-.693,5.573,5.573,0,0,1,1.832-.024,4.132,4.132,0,0,1,1.585.562,4.025,4.025,0,0,1,1.453,1.69,4.755,4.755,0,0,1,.4,1.348" transform="translate(-514.93 -181.69)" fill="#fff"/>
</svg>
