<svg id="그룹_7689" data-name="그룹 7689" xmlns="http://www.w3.org/2000/svg" width="103.522" height="53.87" viewBox="0 0 103.522 53.87">
  <path id="패스_52324" data-name="패스 52324" d="M480.625,321.063a2.125,2.125,0,1,1,2.108-2.126,2.116,2.116,0,0,1-2.108,2.126m11.1,2.7-2.488-5.812a8.632,8.632,0,1,0-2.266,6.719l.287.672s1,2.288,3.033,1.612c2.224-.738,1.434-3.192,1.434-3.192" transform="translate(-442.517 -278.804)" fill="#231f20"/>
  <path id="패스_52325" data-name="패스 52325" d="M500.053,301.029a2.145,2.145,0,1,1-2.255,2.141,2.2,2.2,0,0,1,2.255-2.141m8.7,9.292c-.74-2.136-3.439-.479-3.439-.479a7.575,7.575,0,0,1-6.748.429l-.6-1,.321.187c2.827,1.4,11.12.422,10.457-6.7-.294-3.176-2.946-7.2-8.737-7.26-5.438-.059-9.695,3.627-9.575,11.319a9.752,9.752,0,0,0,9.238,9.441c4.946.315,7.391-1.891,7.391-1.891s2.578-1.484,1.692-4.047" transform="translate(-429.082 -289.511)" fill="#231f20"/>
  <path id="패스_52326" data-name="패스 52326" d="M488.76,311.585s-2.162-3.135-5.4-3.378c0,0-1.778-.152-2.065.88,0,0-.406,1.032.582,1.322a2.042,2.042,0,0,0,.926.05s-.926,1.636.724,2.16a1.792,1.792,0,0,0,1.18-.33s-.717,2.264,1.9,1.828c0,0,.138-1.377,2.143-2.532" transform="translate(-435.787 -280.265)" fill="#231f20"/>
  <path id="패스_52327" data-name="패스 52327" d="M490.631,311.38s2.162-3.135,5.4-3.378c0,0,1.78-.149,2.065.878,0,0,.406,1.033-.581,1.324a2.034,2.034,0,0,1-.928.054s.921,1.637-.722,2.157a1.789,1.789,0,0,1-1.182-.332s.717,2.266-1.906,1.83c0,0-.138-1.377-2.143-2.532" transform="translate(-428.933 -280.414)" fill="#231f20"/>
  <path id="패스_52328" data-name="패스 52328" d="M455.3,317.33V297.1a3.938,3.938,0,1,1,7.877,0v13.3l5.062.007a3.4,3.4,0,0,1,3.425,3.4,3.436,3.436,0,0,1-3.425,3.449h-12.86" transform="translate(-454.653 -291.234)" fill="#231f20"/>
  <path id="패스_52329" data-name="패스 52329" d="M502.853,320.172a2.121,2.121,0,1,1,2.11-2.12,2.116,2.116,0,0,1-2.11,2.12m0-10.852a8.612,8.612,0,1,0,8.652,8.611,8.63,8.63,0,0,0-8.652-8.611" transform="translate(-426.334 -279.448)" fill="#231f20"/>
  <path id="패스_52330" data-name="패스 52330" d="M474.607,310.59s1.942-1.571,3.434-.035c1.633,1.681-.2,3.491-.2,3.491l-5.051,4.154.022,4.208s.021,4.121-3.648,4.121c-3.493,0-3.634-4.037-3.634-4.037l0-9.636s.085-3.629,3.61-3.629c3.669,0,3.733,2.786,3.733,2.786Z" transform="translate(-447.206 -279.515)" fill="#231f20"/>
  <path id="패스_52331" data-name="패스 52331" d="M504.77,323.844v-7.652s0-7.692,8.665-7.692c8.727,0,8.727,7.742,8.727,7.742v7.578A3.236,3.236,0,0,1,518.622,327a3.191,3.191,0,0,1-3.417-3.176v-4.671s0-2.7-1.771-2.7c-1.707,0-1.707,2.594-1.707,2.594l.022,4.818A3.169,3.169,0,0,1,508.368,327a3.245,3.245,0,0,1-3.6-3.152" transform="translate(-418.638 -280.045)" fill="#231f20"/>
  <path id="패스_52332" data-name="패스 52332" d="M462.054,320.744v-6.2s3.51-.332,3.51,2.965a2.967,2.967,0,0,1-3.51,3.232m2.243-13.187h-8.932v20.075H464.3s7.984.206,7.984-9.937-7.984-10.139-7.984-10.139" transform="translate(-454.61 -280.732)" fill="#231f20"/>
  <path id="패스_52333" data-name="패스 52333" d="M468.969,299.8a3.665,3.665,0,1,0-3.641-3.665,3.65,3.65,0,0,0,3.641,3.665" transform="translate(-447.356 -291.714)" fill="#231f20"/>
  <path id="패스_52334" data-name="패스 52334" d="M465.219,310.659a3.435,3.435,0,0,0,3.422,3.449,3.4,3.4,0,0,0,3.38-3.449l.009-10.082a3.406,3.406,0,1,0-6.81,0l0,10.246" transform="translate(-447.435 -288.325)" fill="#231f20"/>
  <path id="패스_52335" data-name="패스 52335" d="M485.108,314.363V296.987a3.536,3.536,0,1,1,7.02,0v14.094l-.726.007a2.849,2.849,0,0,1,2.965,3.048,2.7,2.7,0,0,1-3.009,2.8h-6.251Z" transform="translate(-432.954 -291.317)" fill="#231f20"/>
  <path id="패스_52336" data-name="패스 52336" d="M480.539,302.971l-.938,0,0,7.054a2.85,2.85,0,0,1,2.485,3.14c0,2.953-2.443,2.794-2.443,2.794l-6.8,0,0-12.938h-.949s-1.96-.206-1.96-1.974,2-1.811,2-1.811h.923l0-1.408a3.4,3.4,0,0,1,3.378-3.451,3.438,3.438,0,0,1,3.429,3.451l-.009,1.571.809,0a1.926,1.926,0,0,1,1.745,1.965,1.569,1.569,0,0,1-1.659,1.609" transform="translate(-444.005 -290.328)" fill="#231f20"/>
  <path id="패스_52337" data-name="패스 52337" d="M479.118,302.957l.9-.007v13h6.831s2.1-.08,2.1-2.834-2.043-3.123-2.043-3.123v-6.985h1.353a1.668,1.668,0,0,0,1.839-1.763,1.779,1.779,0,0,0-1.839-1.866H486.91v-1.612a3.371,3.371,0,0,0-3.425-3.37,3.427,3.427,0,0,0-3.43,3.434l-.009,1.55-1.014,0s-1.835.043-1.749,1.7a1.843,1.843,0,0,0,1.835,1.87" transform="translate(-438.653 -290.314)" fill="#231f20"/>
  <path id="패스_52338" data-name="패스 52338" d="M491.7,319.743a2.158,2.158,0,1,1,2.157-2.16,2.158,2.158,0,0,1-2.157,2.16m-.282-10.528c-4.573.121-8.343,3.166-8.343,8.748,0,4.092,2.8,7.344,8.1,7.476a6.451,6.451,0,0,0,3.607-.829s-.045,1.93-2.559,3.024c-1.578.686-4.778-.378-4.778-.378s-2.412-1.123-3.484,1.037c-1.028,2.072,1.427,3.51,1.427,3.51,1.372,1.094,7.745,3.081,11.806-.252,2.774-2.279,3.408-5.59,3.657-9.556.743-11.971-7.258-12.833-9.428-12.778" transform="translate(-434.433 -279.525)" fill="#231f20"/>
  <path id="패스_52339" data-name="패스 52339" d="M480.248,320.62a2.123,2.123,0,1,1,2.108-2.124,2.114,2.114,0,0,1-2.108,2.124m11.1,2.706-2.489-5.812a8.627,8.627,0,1,0-2.264,6.717l.287.674s1,2.29,3.031,1.614c2.226-.743,1.434-3.194,1.434-3.194" transform="translate(-442.791 -279.123)" fill="#ffca05"/>
  <path id="패스_52340" data-name="패스 52340" d="M499.679,300.589a2.145,2.145,0,1,1-2.259,2.141,2.2,2.2,0,0,1,2.259-2.141m8.7,9.292c-.738-2.139-3.439-.479-3.439-.479a7.584,7.584,0,0,1-6.75.429l-.6-1,.32.187c2.827,1.393,11.12.42,10.457-6.7-.3-3.176-2.948-7.2-8.739-7.261-5.438-.059-9.693,3.629-9.575,11.319a9.753,9.753,0,0,0,9.238,9.441c4.948.316,7.391-1.891,7.391-1.891s2.58-1.484,1.694-4.047" transform="translate(-429.356 -289.832)" fill="#ffca05"/>
  <path id="패스_52341" data-name="패스 52341" d="M488.383,311.147s-2.162-3.136-5.4-3.382c0,0-1.778-.145-2.065.881,0,0-.406,1.032.582,1.32a2.031,2.031,0,0,0,.928.054s-.925,1.637.722,2.157a1.783,1.783,0,0,0,1.18-.328s-.715,2.264,1.9,1.83c0,0,.138-1.377,2.143-2.532" transform="translate(-436.061 -280.585)" fill="#72be44"/>
  <path id="패스_52342" data-name="패스 52342" d="M490.255,310.941s2.162-3.135,5.4-3.378c0,0,1.78-.152,2.067.876,0,0,.4,1.033-.581,1.322a1.986,1.986,0,0,1-.928.054s.923,1.637-.724,2.158a1.79,1.79,0,0,1-1.18-.33s.715,2.264-1.906,1.828c0,0-.138-1.376-2.143-2.53" transform="translate(-429.206 -280.734)" fill="#72be44"/>
  <path id="패스_52343" data-name="패스 52343" d="M454.928,316.89V296.661a3.938,3.938,0,1,1,7.877,0v13.3l5.063,0a3.4,3.4,0,0,1,3.425,3.4,3.436,3.436,0,0,1-3.425,3.449h-12.86" transform="translate(-454.928 -291.554)" fill="#ffca05"/>
  <path id="패스_52344" data-name="패스 52344" d="M502.477,319.737a2.123,2.123,0,1,1,2.108-2.122,2.116,2.116,0,0,1-2.108,2.122m0-10.858a8.614,8.614,0,1,0,8.653,8.613,8.634,8.634,0,0,0-8.653-8.613" transform="translate(-426.609 -279.769)" fill="#ffca05"/>
  <path id="패스_52345" data-name="패스 52345" d="M474.231,310.149s1.942-1.573,3.432-.033c1.633,1.68-.2,3.489-.2,3.489l-5.051,4.151.022,4.213s.021,4.122-3.65,4.122c-3.491,0-3.632-4.037-3.632-4.037l0-9.632s.083-3.632,3.61-3.632c3.669,0,3.733,2.784,3.733,2.784Z" transform="translate(-447.48 -279.835)" fill="#ffca05"/>
  <path id="패스_52346" data-name="패스 52346" d="M504.394,323.4v-7.656s0-7.685,8.665-7.685c8.725,0,8.725,7.735,8.725,7.735v7.581a3.236,3.236,0,0,1-3.537,3.176,3.191,3.191,0,0,1-3.416-3.176v-4.671s0-2.7-1.771-2.7c-1.709,0-1.709,2.6-1.709,2.6l.024,4.813a3.174,3.174,0,0,1-3.384,3.136,3.244,3.244,0,0,1-3.6-3.152" transform="translate(-418.912 -280.363)" fill="#ffca05"/>
  <path id="패스_52347" data-name="패스 52347" d="M461.678,320.3v-6.2s3.51-.33,3.51,2.971a2.963,2.963,0,0,1-3.51,3.226m2.243-13.187h-8.932v20.079h8.932s7.984.206,7.984-9.937-7.984-10.142-7.984-10.142" transform="translate(-454.884 -281.054)" fill="#ffca05"/>
  <path id="패스_52348" data-name="패스 52348" d="M468.592,299.366a3.666,3.666,0,1,0-3.641-3.665,3.652,3.652,0,0,0,3.641,3.665" transform="translate(-447.63 -292.034)" fill="#ffca05"/>
  <path id="패스_52349" data-name="패스 52349" d="M464.842,310.219a3.437,3.437,0,0,0,3.423,3.451,3.4,3.4,0,0,0,3.38-3.451l.009-10.08a3.406,3.406,0,1,0-6.812,0l0,10.244" transform="translate(-447.71 -288.645)" fill="#ffca05"/>
  <path id="패스_52350" data-name="패스 52350" d="M484.731,313.922V296.548a3.536,3.536,0,1,1,7.02,0V310.64l-.724,0a2.854,2.854,0,0,1,2.965,3.054,2.7,2.7,0,0,1-3.01,2.8h-6.251Z" transform="translate(-433.228 -291.636)" fill="#ffca05"/>
  <path id="패스_52351" data-name="패스 52351" d="M480.164,302.531l-.938,0-.005,7.054a2.85,2.85,0,0,1,2.485,3.143c0,2.95-2.442,2.794-2.442,2.794l-6.8,0,0-12.942h-.947s-1.961-.206-1.961-1.972,2-1.811,2-1.811h.924l0-1.412a3.4,3.4,0,0,1,3.378-3.449,3.439,3.439,0,0,1,3.427,3.449l-.007,1.574.809,0a1.929,1.929,0,0,1,1.745,1.967,1.567,1.567,0,0,1-1.659,1.607" transform="translate(-444.28 -290.648)" fill="#ffca05"/>
  <path id="패스_52352" data-name="패스 52352" d="M478.742,302.516l.9-.005v13h6.829s2.1-.081,2.1-2.832-2.046-3.126-2.046-3.126v-6.987h1.353a1.668,1.668,0,0,0,1.842-1.761,1.78,1.78,0,0,0-1.842-1.866h-1.346v-1.612a3.369,3.369,0,0,0-3.425-3.37,3.427,3.427,0,0,0-3.43,3.434l-.009,1.55-1.016,0s-1.835.043-1.747,1.7a1.842,1.842,0,0,0,1.835,1.87" transform="translate(-438.927 -290.634)" fill="#ffca05"/>
  <path id="패스_52353" data-name="패스 52353" d="M491.326,319.3a2.158,2.158,0,1,1,2.157-2.16,2.156,2.156,0,0,1-2.157,2.16m-.283-10.528c-4.572.121-8.343,3.166-8.343,8.749,0,4.09,2.8,7.341,8.1,7.476a6.462,6.462,0,0,0,3.608-.829s-.048,1.93-2.563,3.024c-1.578.684-4.776-.378-4.776-.378s-2.414-1.123-3.486,1.037c-1.03,2.068,1.427,3.51,1.427,3.51,1.372,1.092,7.747,3.078,11.806-.258,2.775-2.278,3.408-5.589,3.657-9.551.743-11.972-7.256-12.836-9.429-12.779" transform="translate(-434.708 -279.846)" fill="#ffca05"/>
</svg>
