<svg id="그룹_7226" data-name="그룹 7226" xmlns="http://www.w3.org/2000/svg" width="68.126" height="71.69" viewBox="0 0 68.126 71.69">
  <rect id="사각형_4196" data-name="사각형 4196" width="68.126" height="48.204" transform="translate(0 23.487)" fill="#da2128"/>
  <path id="패스_52126" data-name="패스 52126" d="M309.393,467.4c-2.585-1.688-8.542,2.635-5.338,5.342-.318,1.313-1.948,1.2-3.05,1.783-2.276,1.194-4.925,2.292-7.246,3.382-.764.361-1.344.252-1.908.715-1.567-.315-1.087-1.688-1.716-2.853-.862-1.59-2.573-2.685-3.624-4.094-.686-.921-.8-1.98-1.714-2.673.418-.957,3.556-2.682,2.668-4.275,0-1.965-.74-2.585-1.526-3.74a14.094,14.094,0,0,0-4.386-.712c-.555.489-1.446.674-1.906,1.248A20.6,20.6,0,0,1,278.5,463.3c-.064,2.155.418,3.24,1.908,3.916-.245,2.214-1.626,4.154-2.48,5.879s-1.006,3.838-2.29,5.165l-.192.178c-.792-1.116-2.117-1.7-3.05-2.673-2.039-2.118-3.793-5.12-6.29-6.767a3.746,3.746,0,0,1,.952-2.494c-.023-3.024-2.051-4.891-5.53-4.809-.769.766-1.9,1.2-2.67,1.96-.4.4-.5,1.061-.952,1.426,0,2.274,1.96,3.892,3.622,4.63-.928,4.56-.439,10.581-.952,14.248-.178,1.272.41,3.344-.19,4.275a6.462,6.462,0,0,0,.378,3.028c11.378.74,22.925-.354,34.132-.354,3.985,0,8.914.333,11.632-.178,1.037-.2,2.5.245,3.245-.18.19-.06.38-.121.568-.175a45.278,45.278,0,0,0-.762-9.978c-.3-1.289.249-2.794-.38-3.74.117-2.568,2.316-1.654,3.242-3.206,1.374-2.305-1.528-5.615-3.052-6.055m-45-.892c-.762-.142-.689-.334-1.334-.534a.863.863,0,0,0-.956.176c-.4.344-.282.985-.572,1.427v.18a1.467,1.467,0,0,1-1.142-1.071l-.192-.178c.529-.489.676-1.222,1.144-1.782.444-.3.89-.591,1.334-.888a3.968,3.968,0,0,1,1.718.534,2,2,0,0,0,.382.89,9.677,9.677,0,0,1-.382,1.246m19.258,0c-.183-.871-.259-2.184-1.144-2.492a3,3,0,0,0-1.146,1.6h-.38a2.013,2.013,0,0,0-.382-.532c.235-1.441,1.2-1.711,2.1-2.5h1.336c1.688,1.628,1.277,2.222,0,3.919Zm26.506,5.7c-.3.287-.418.631-.764.89v.18c-.467-.266-.534-1.179-.572-1.785l-.19-.176c-1.287-.021-1.635.187-2.1.892l-.95-.18a5.733,5.733,0,0,1,0-1.96c.6-.537,1.32-1.047,1.906-1.6h.76a6.647,6.647,0,0,0,1.529,1.066,6.148,6.148,0,0,1,.38,2.673" transform="translate(-251.293 -460.268)" fill="#ffca05"/>
  <path id="패스_52127" data-name="패스 52127" d="M262.2,489.57l-.366-.192-.342-.1c-.074,0-.086.086-.04.263s.088.354.124.539c.064.3.128.6.187.9s.116.581.173.843a1.214,1.214,0,0,1-.584.389,3.384,3.384,0,0,1-.748.1,5.415,5.415,0,0,1-.489-1.452c-.162-.705-.313-1.472-.456-2.3-.073-.42-.145-.835-.223-1.249s-.147-.8-.207-1.172-.114-.729-.157-1.059A7.683,7.683,0,0,1,259,484.2a2.4,2.4,0,0,1,1.317-.757,8.053,8.053,0,0,1,2.136-.327,5.627,5.627,0,0,1,1.946.524,1.838,1.838,0,0,1,1.275,1.863,3.39,3.39,0,0,1-.168,1.147,2.073,2.073,0,0,1-.636.814,5.13,5.13,0,0,1-.641.442,8.478,8.478,0,0,1-.9.468c.337.169.7.337,1.082.51s.812.365,1.286.595a1.4,1.4,0,0,1-.368.942.843.843,0,0,1-.555.245,13.59,13.59,0,0,1-1.291-.482,8.689,8.689,0,0,1-1.287-.619m-1.548-4.313a7.463,7.463,0,0,0,.173,1.03c.119.581.2.992.247,1.229a6.869,6.869,0,0,0,1.59-.531,3.535,3.535,0,0,0,1.376-.893l.088-.251.024-.225a.709.709,0,0,0-.582-.764,4.266,4.266,0,0,0-1-.188,6.847,6.847,0,0,0-1.222.124q-.695.132-.69.468" transform="translate(-250.498 -443.629)" fill="#fff"/>
  <path id="패스_52128" data-name="패스 52128" d="M266.968,488.049c-.349.041-.7.071-1.063.092s-.626.031-.8.031a5.315,5.315,0,0,1,.031,1,8.7,8.7,0,0,0-.016.883,8.99,8.99,0,0,1,1.471-.209,10.73,10.73,0,0,1,1.377.01l.368-.01.4-.054c.145-.017.306-.05.486-.085s.4-.067.669-.1a1.386,1.386,0,0,1,.385.733.818.818,0,0,1-.214.7,7.824,7.824,0,0,1-1.472.23,9.772,9.772,0,0,1-1.637.06,3.252,3.252,0,0,0-.987.057c-.34.064-.667.121-.985.174a1.419,1.419,0,0,1-.624-.069.93.93,0,0,1-.577-.363,1.362,1.362,0,0,1-.185-.557,2.484,2.484,0,0,1-.014-.627,5.179,5.179,0,0,0,.059-.847,5.466,5.466,0,0,0-.059-.864c-.022-.156-.041-.283-.062-.4l-.031-.242.015-.349.061-.3a2.16,2.16,0,0,0,.092-.544,4.642,4.642,0,0,0,0-.581c-.009-.223-.022-.444-.036-.664a5.249,5.249,0,0,1-.009-.658,1.483,1.483,0,0,1,.254-.969,2.94,2.94,0,0,1,1.44-.216l1.163-.031c.363-.009.638-.012.823-.012a2.061,2.061,0,0,0,.385-.048.836.836,0,0,0,.37-.156.857.857,0,0,1,.653.42.965.965,0,0,1,.131.95,2.049,2.049,0,0,1-.639.216c-.169.021-.34.045-.515.078a6.412,6.412,0,0,1-1.04.055c-.444,0-.812,0-1.1.022l-.247.038-.107.223a2.684,2.684,0,0,0-.04.648,3.683,3.683,0,0,1-.007.627l.045.27.263.055c.112,0,.256,0,.432-.007s.42-.031.738-.067c.391-.045.759-.081,1.109-.119s.665-.054.954-.054a1.241,1.241,0,0,1,.315.722,1.006,1.006,0,0,1-.268.773c-.289.007-.6.031-.949.06s-.612.057-.807.078" transform="translate(-247.231 -443.674)" fill="#fff"/>
  <path id="패스_52129" data-name="패스 52129" d="M274.582,482.967a3.877,3.877,0,0,1,3.09,1.07,3.651,3.651,0,0,1,1.106,2.748,4.678,4.678,0,0,1-.259,1.623,3.276,3.276,0,0,1-.588.983,3.346,3.346,0,0,1-.741.587c-.275.161-.548.34-.814.532-.137.109-.287.22-.449.34a2,2,0,0,1-.48.268,3,3,0,0,1-.511.111c-.213.028-.532.054-.957.078a1.358,1.358,0,0,1-.985.173c-.266-.081-.427-.351-.484-.814a9.49,9.49,0,0,1-.043-1.208c.005-.541.017-1.129.026-1.763.022-.606.043-1.232.062-1.87s.017-1.191.007-1.654c-.012-.574.107-.924.354-1.049a1.415,1.415,0,0,1,1.026,0l.259-.061a.908.908,0,0,1,.382-.1m2.089,5.3a1.9,1.9,0,0,0,.346-.776,4.492,4.492,0,0,0,.1-1,.86.86,0,0,0-.111-.347,1.8,1.8,0,0,1-.149-.361,1.374,1.374,0,0,0-.942-1.064,4.826,4.826,0,0,0-1.078-.164,1.168,1.168,0,0,0-.423.061c-.1.04-.159.18-.18.408-.014.149-.026.442-.043.878s-.026.935-.026,1.486V489.7a2.406,2.406,0,0,0,.577-.061,1.1,1.1,0,0,0,.493-.283,3.092,3.092,0,0,1,.734-.52,2.153,2.153,0,0,0,.7-.57" transform="translate(-240.696 -443.745)" fill="#fff"/>
  <path id="패스_52130" data-name="패스 52130" d="M276.251,490.006a3,3,0,0,1,.847-.206,4.126,4.126,0,0,0,.767-.155,2.333,2.333,0,0,0,.069-.935c-.014-.577-.029-1.07-.054-1.469s-.035-.8-.035-1.211.005-.8.019-1.192c-.014-.079-.133-.107-.359-.076a1.514,1.514,0,0,1-.586-.028,1.132,1.132,0,0,1-.112-.7,1.629,1.629,0,0,1,.2-.707,6.049,6.049,0,0,1,1-.138c.3-.009.588-.033.874-.067a3.1,3.1,0,0,1,1.1.052,1.812,1.812,0,0,1,.892.617,1.383,1.383,0,0,1-.109.612,1,1,0,0,1-.454.387,2.816,2.816,0,0,0-.422-.088c-.168-.019-.254,0-.268.069.024.731.019,1.541-.017,2.423s-.035,1.647,0,2.3l.164.156h.232a1.567,1.567,0,0,1,.472.086,1.135,1.135,0,0,1,.508.325c-.092.283-.171.524-.232.705a1.228,1.228,0,0,1-.282.463,4.348,4.348,0,0,1-1.144.05,4.424,4.424,0,0,0-.937,0c-.261.028-.574.057-.928.105a9.269,9.269,0,0,1-1.13.071,2.33,2.33,0,0,1-.268-.817.887.887,0,0,1,.2-.627" transform="translate(-238.086 -443.648)" fill="#fff"/>
  <path id="패스_52131" data-name="패스 52131" d="M281.552,487.185c-.166-.294-.287-.5-.368-.617-.014.6-.022,1.232-.028,1.91a10.964,10.964,0,0,0,.062,1.523,1.546,1.546,0,0,0,.1.361,2.012,2.012,0,0,1,.124.467,2.094,2.094,0,0,1-.589.394,2.433,2.433,0,0,1-.764.169,1.794,1.794,0,0,1-.52-1.02c-.043-.354-.069-.669-.079-.952-.012-.482-.028-.928-.045-1.346a11.513,11.513,0,0,1,.028-1.343c.035-.577.059-1.185.078-1.813a9.917,9.917,0,0,1,.062-1.111.661.661,0,0,1,.634-.492.927.927,0,0,1,.791.176,5.856,5.856,0,0,1,.731.925c.3.439.565.833.8,1.187a8.679,8.679,0,0,0,.65.828c.235.256.46.525.671.805l.211.3.213.3c.081-.4.171-.85.273-1.346s.19-.973.273-1.415a7.506,7.506,0,0,1,.3-1.049,2.792,2.792,0,0,1,.759-1.063,1.334,1.334,0,0,1,.677.4,1.416,1.416,0,0,1,.465.814,3.972,3.972,0,0,0-.439.975c-.1.321-.181.672-.264,1.047-.069.408-.147.836-.23,1.282s-.15.874-.209,1.286a3.942,3.942,0,0,1-.406,1.161.979.979,0,0,1-.809.6,1.047,1.047,0,0,1-.942-.537l-.536-.766q-.5-.627-.862-1.073c-.247-.29-.372-.439-.372-.439s-.145-.176-.439-.527" transform="translate(-235.617 -443.744)" fill="#fff"/>
  <path id="패스_52132" data-name="패스 52132" d="M291.489,487.432a.762.762,0,0,1,.418.581.852.852,0,0,1-.19.7c-.313.021-.525.028-.643.024l-.32-.024-.268-.014-.183.057-.05.176.022.273a2.819,2.819,0,0,0,.252.743,1.557,1.557,0,0,1,.185.688c.038.149-.057.332-.282.544a.708.708,0,0,1-.693.22,1.088,1.088,0,0,1-.233-.489,4.526,4.526,0,0,1-.135-.57,2.344,2.344,0,0,1-.707.731,2.717,2.717,0,0,1-1.54.342,2.435,2.435,0,0,1-2.537-1.526,7.028,7.028,0,0,1-.587-2.575,5.152,5.152,0,0,1,.579-2.269,3.057,3.057,0,0,1,1.64-1.541c.247-.1.522-.2.828-.3a2.627,2.627,0,0,1,.855-.156,4.922,4.922,0,0,1,1.491.283,1.663,1.663,0,0,1,1.135,1.033,1.074,1.074,0,0,1-.19.652.706.706,0,0,1-.615.235,3.089,3.089,0,0,0-.309-.337l-.256-.213a.975.975,0,0,0-.394-.206,2.36,2.36,0,0,0-.665-.078,2.647,2.647,0,0,0-.862.181,4.636,4.636,0,0,0-.778.354,1.953,1.953,0,0,0-.819,1.182,5.7,5.7,0,0,0-.212,1.462,3.523,3.523,0,0,0,.41,1.6,1.383,1.383,0,0,0,1.329.814,1.428,1.428,0,0,0,.842-.233,2.425,2.425,0,0,0,.56-.543l.118-.254.079-.309-.3-.017h-.309c-.159-.01-.315-.017-.461-.021a2.59,2.59,0,0,0-.543.052.789.789,0,0,1-.543-.432c-.157-.261-.093-.52.188-.785a3.172,3.172,0,0,1,1.258-.067c.753.038,1.234.057,1.443.067.188.007.534,0,1.037-.014s.823-.029.954-.029" transform="translate(-232.298 -443.68)" fill="#fff"/>
  <path id="패스_52133" data-name="패스 52133" d="M274.7,489.519c-.181-.648-.339-1.154-.48-1.512-.055-.145-.116-.292-.187-.444a1.677,1.677,0,0,1-.138-.474c-.023-.166-.071-.432-.147-.8a4.986,4.986,0,0,0-.341-1.063c-.076-.181-.736-1.614-.892-1.984,0,0-1.31-.824-2.048.118-.207.2-.868.924-.976,1.08a1.861,1.861,0,0,0-.242.468,9.9,9.9,0,0,0-.522,1.678c-.142.627-.264,1.192-.372,1.7-.066.415-.147.816-.245,1.191s-.024.085-.111.4a1.748,1.748,0,0,0-.09.273,3.673,3.673,0,0,0-.123.776,1.266,1.266,0,0,0,.674.779.912.912,0,0,0,.869-.166,8.566,8.566,0,0,0,.2-.873,5.087,5.087,0,0,1,.088-.572c.088-.4.019-.185.121-.638a4.066,4.066,0,0,1,.22-.779c.043-.047.2-.064.487-.05a4.781,4.781,0,0,0,.715-.007q.327-.047.918-.138c.4-.064.61-.064.639-.007a1.418,1.418,0,0,1,.14.4c.036.173.073.315.107.432.073.244.169.531.283.871a2.208,2.208,0,0,1,.107.994,1,1,0,0,0,1,.427.969.969,0,0,0,.705-.532c-.064-.379-.185-.892-.363-1.543m-2.463-2.487c-.01.036-.09.067-.237.088s-.4.054-.771.1a5.714,5.714,0,0,1-.729.052c-.154,0-.233-.048-.244-.126a3.235,3.235,0,0,1,.178-.988c.1-.263.2-.557.308-.888l.131-.174c.045-.047.356-.392.567-.62.2.475.482,1.109.489,1.173.086.254.164.513.235.786a1.677,1.677,0,0,1,.073.6" transform="translate(-244.1 -443.784)" fill="#fff"/>
  <path id="패스_52134" data-name="패스 52134" d="M266.965,496.184c0-.148.005-.453.016-.907s-.01-.7-.062-.729c-.1-.054-.513.358-1.249,1.239a5.92,5.92,0,0,1-1.424,1.424q-.3-.042-.949-.85t-.817-1.033c-.2-.261-.436-.574-.7-.945s-.456-.536-.572-.513q-.143.085-.143,1.016c0,.62-.012,1.118-.031,1.484-.031.506-.045.952-.041,1.345s0,.769-.007,1.137a.931.931,0,0,1-1.654.021c0-.219.016-.544.047-.966s.048-.807.048-1.147c0-.776.029-1.586.088-2.426s.124-1.65.2-2.428c.083-.762.289-1.163.612-1.2s.719.2,1.185.705c.18.18.435.477.771.892s.667.823,1,1.222c.073.1.257.334.548.715a2.785,2.785,0,0,0,.518.594c.105.01.3-.176.574-.563s.465-.672.572-.852a6.44,6.44,0,0,1,.468-.674c.164-.206.327-.4.487-.574a3.33,3.33,0,0,1,.539-.563,1.949,1.949,0,0,1,.43-.278,1.229,1.229,0,0,1,1.177,1.31,11.892,11.892,0,0,0-.057,1.263q-.005.91.01,1.953,0,1.089.007,2.141t-.024,1.671c-.233.465-.522.67-.866.627s-.575-.325-.693-.833c-.01-.474-.014-1.115-.007-1.915s.007-1.251.007-1.364" transform="translate(-250.26 -438.109)" fill="#fff"/>
  <path id="패스_52135" data-name="패스 52135" d="M274.88,494.518a5.337,5.337,0,0,1,1.942.828,2.1,2.1,0,0,1,.814,1.906,2.6,2.6,0,0,1-.346,1.353,6.127,6.127,0,0,1-1.3,1.289,3.33,3.33,0,0,1-1.472.676,7.074,7.074,0,0,1-1.089.166,7.892,7.892,0,0,1-.8-.06,3.461,3.461,0,0,1-1-.271.713.713,0,0,1-.137-.638,1.134,1.134,0,0,1,.422-.7c.4.021.771.05,1.108.085a2.739,2.739,0,0,0,.961-.054,2.881,2.881,0,0,0,.845-.365,4.271,4.271,0,0,0,.873-.764,1.5,1.5,0,0,0,.232-.368,1.034,1.034,0,0,0,.1-.429.742.742,0,0,0-.164-.479,1.464,1.464,0,0,0-.423-.351,3.537,3.537,0,0,0-1.186-.418c-.449-.078-.876-.137-1.279-.169a4.74,4.74,0,0,1-1.585-.468,1.551,1.551,0,0,1-.835-1.49,3.952,3.952,0,0,1,.206-1.3,2.513,2.513,0,0,1,.653-1.108,5.179,5.179,0,0,1,1.153-.731,3.1,3.1,0,0,1,1.313-.361,4.9,4.9,0,0,1,1.9.387,2.52,2.52,0,0,1,1.215.867.979.979,0,0,1,.019.534,1.732,1.732,0,0,1-.56.79,3.225,3.225,0,0,1-.453-.251c-.154-.1-.275-.185-.356-.245a2.754,2.754,0,0,0-.717-.422,2.168,2.168,0,0,0-.812-.152,2.055,2.055,0,0,0-.923.232,2.164,2.164,0,0,0-.748.594,1.325,1.325,0,0,0-.238.567,2.267,2.267,0,0,0-.048.548l.192.269.366.145c.328.045.674.088,1.04.142s.736.124,1.106.209" transform="translate(-242.076 -438.4)" fill="#fff"/>
  <path id="패스_52136" data-name="패스 52136" d="M281.4,492.887c-.14-.014-.387-.034-.733-.054a1.329,1.329,0,0,0-.664.054,7.884,7.884,0,0,0-.088,1.4c-.012.785,0,1.381.036,1.794a6.176,6.176,0,0,1-.028,1.08,9,9,0,0,0-.062.971,3.265,3.265,0,0,0,.079.354c.041.152.1.342.185.563a1.384,1.384,0,0,1-.76.577,1.1,1.1,0,0,1-.828-.026,1.731,1.731,0,0,1-.32-.665,2.6,2.6,0,0,1-.124-.7c0-.27.017-.584.054-.945a7.122,7.122,0,0,0,.019-1.087c-.026-.425-.026-1.07,0-1.937a3.733,3.733,0,0,0-.073-1.37,1.127,1.127,0,0,0-.6-.035c-.306.035-.594.064-.864.088l-.356.109-.385.192a1.039,1.039,0,0,1-.7-.486,1.081,1.081,0,0,1-.221-.874,1.806,1.806,0,0,1,.655-.425,3.679,3.679,0,0,1,.971-.251c.4-.043.8-.078,1.21-.1s.776-.033,1.106-.043c.282-.01.809-.01,1.583.01s1.427.047,1.97.1a1.805,1.805,0,0,1,.238.648,2.516,2.516,0,0,1-.043.786,5.526,5.526,0,0,1-.734.23,1.947,1.947,0,0,1-.522.036" transform="translate(-238.887 -437.839)" fill="#fff"/>
  <path id="패스_52137" data-name="패스 52137" d="M283.571,496.128c-.359.043-.727.078-1.1.1s-.646.033-.83.033a4.967,4.967,0,0,1,.031,1.026c-.017.344-.024.652-.012.918a9.183,9.183,0,0,1,1.519-.216,11.459,11.459,0,0,1,1.424.007l.382-.007.415-.057c.147-.021.316-.05.5-.088s.415-.067.691-.1a1.4,1.4,0,0,1,.4.759.839.839,0,0,1-.223.722,7.746,7.746,0,0,1-1.519.24,10.474,10.474,0,0,1-1.7.061,3.6,3.6,0,0,0-1.02.057c-.349.071-.686.131-1.016.183a1.494,1.494,0,0,1-.645-.071.954.954,0,0,1-.6-.375,1.38,1.38,0,0,1-.19-.57,2.555,2.555,0,0,1-.017-.655,5.085,5.085,0,0,0,.064-.874,5.419,5.419,0,0,0-.064-.892c-.022-.157-.041-.3-.062-.411l-.033-.256.016-.358.064-.311a2.51,2.51,0,0,0,.1-.563c.007-.2.007-.4,0-.6-.012-.233-.028-.467-.041-.695a5.123,5.123,0,0,1-.007-.672,1.5,1.5,0,0,1,.263-1,2.988,2.988,0,0,1,1.484-.223c.427-.014.828-.021,1.2-.035s.658-.016.849-.016a2.125,2.125,0,0,0,.4-.045.942.942,0,0,0,.384-.161.9.9,0,0,1,.676.429,1.012,1.012,0,0,1,.135.988,2.221,2.221,0,0,1-.66.223c-.176.019-.354.047-.534.078a6.6,6.6,0,0,1-1.075.057q-.692-.01-1.135.021l-.256.043-.111.23a2.766,2.766,0,0,0-.04.669,4.141,4.141,0,0,1-.007.65c-.012.15,0,.244.047.282l.27.054c.117,0,.264,0,.446-.007s.435-.031.766-.071c.4-.043.783-.085,1.144-.121a9.468,9.468,0,0,1,.987-.055,1.272,1.272,0,0,1,.325.75,1.027,1.027,0,0,1-.28.793c-.3.01-.62.031-.976.064s-.634.057-.835.078" transform="translate(-235.228 -437.911)" fill="#fff"/>
  <path id="패스_52138" data-name="패스 52138" d="M287.536,497.394a2.756,2.756,0,0,0-.392-.206,1.037,1.037,0,0,0-.359-.107c-.078,0-.093.092-.042.28s.093.375.131.57c.067.318.133.634.2.945s.121.61.18.9a1.314,1.314,0,0,1-.615.406,4.066,4.066,0,0,1-.79.1,5.7,5.7,0,0,1-.513-1.535c-.175-.747-.335-1.554-.484-2.428-.076-.442-.154-.883-.233-1.319s-.157-.848-.221-1.232c-.066-.4-.121-.774-.166-1.122a8.152,8.152,0,0,1-.069-.918,2.468,2.468,0,0,1,1.388-.8,8.655,8.655,0,0,1,2.255-.351,5.975,5.975,0,0,1,2.053.556,1.941,1.941,0,0,1,1.344,1.965,3.6,3.6,0,0,1-.176,1.211,2.218,2.218,0,0,1-.672.857,5.187,5.187,0,0,1-.674.467,8.052,8.052,0,0,1-.949.492c.354.178.734.361,1.141.539s.857.385,1.358.629a1.48,1.48,0,0,1-.39.992.908.908,0,0,1-.584.263c-.235-.067-.688-.238-1.362-.513a8.739,8.739,0,0,1-1.355-.648m-1.638-4.555a8.009,8.009,0,0,0,.18,1.09c.13.613.214,1.045.263,1.293a7.1,7.1,0,0,0,1.678-.558,3.736,3.736,0,0,0,1.452-.942l.1-.27.024-.233a.753.753,0,0,0-.615-.809,4.554,4.554,0,0,0-1.058-.2,7.563,7.563,0,0,0-1.293.131c-.487.092-.729.261-.726.494" transform="translate(-232.181 -438.195)" fill="#fff"/>
  <path id="패스_52139" data-name="패스 52139" d="M273.009,498c-.188-.709-.361-1.262-.51-1.654-.057-.159-.124-.32-.2-.486a1.772,1.772,0,0,1-.149-.517c-.022-.181-.074-.472-.157-.878a5.736,5.736,0,0,0-.363-1.161c-.081-.2-.786-1.757-.956-2.17,0,0-1.4-.9-2.186.137-.219.213-.926,1.006-1.042,1.177a2.06,2.06,0,0,0-.259.51,11.108,11.108,0,0,0-.556,1.837c-.15.681-.283,1.3-.4,1.853-.071.46-.157.892-.261,1.306s-.026.093-.119.432a2.076,2.076,0,0,0-.1.3,4.232,4.232,0,0,0-.131.854,1.384,1.384,0,0,0,.722.85.95.95,0,0,0,.928-.185,8.3,8.3,0,0,0,.216-.956c.064-.358.005-.209.1-.62.092-.437.017-.2.126-.7a4.229,4.229,0,0,1,.237-.85c.045-.054.218-.071.518-.057a4.984,4.984,0,0,0,.764-.007c.232-.035.558-.081.982-.152s.651-.071.686-.007a1.634,1.634,0,0,1,.145.435c.041.185.079.34.114.474q.122.394.3.95a2.43,2.43,0,0,1,.114,1.08,1.06,1.06,0,0,0,1.066.474,1.075,1.075,0,0,0,.755-.581c-.069-.415-.2-.98-.392-1.688m-2.628-2.72c-.01.04-.093.074-.252.1s-.432.06-.823.111a5.816,5.816,0,0,1-.783.057c-.161-.007-.247-.05-.259-.138a3.84,3.84,0,0,1,.19-1.08c.105-.287.216-.607.33-.968l.138-.194c.05-.05.382-.425.607-.681.219.522.515,1.215.524,1.286.092.277.176.563.251.861a1.729,1.729,0,0,1,.078.651" transform="translate(-245.676 -438.061)" fill="#fff"/>
</svg>
