<svg id="그룹_7688" data-name="그룹 7688" xmlns="http://www.w3.org/2000/svg" width="84.556" height="84.331" viewBox="0 0 84.556 84.331">
  <path id="패스_52302" data-name="패스 52302" d="M334.486,238.662A42.278,42.278,0,1,1,292.208,196.5a42.222,42.222,0,0,1,42.278,42.166" transform="translate(-249.93 -196.496)" fill="#524fa0" fill-rule="evenodd"/>
  <path id="패스_52303" data-name="패스 52303" d="M251.985,223.692v-.048c.078.254,16.068-15.959,30.926-15.617.107,0,9.2,0,21.373,9.664.152.114,14.239,10.51,25.069,2.088l-.52-.665c-10.317,8.024-23.9-1.986-24.031-2.091-12.56-9.968-21.961-9.84-22.026-9.814l.155-.026c-15.228-.351-30.966,15.454-31.125,15.615Z" transform="translate(-248.563 -188.72)" fill="#8680bc" fill-rule="evenodd"/>
  <path id="패스_52304" data-name="패스 52304" d="M252.28,221.2a69.7,69.7,0,0,1,5.29-5.183,38.79,38.79,0,0,1,3.976-2.7c.6-.368,1.22-.75,1.923-1.206,2.853-1.846,13.1-6.783,22.465-5.307a31.921,31.921,0,0,1,6.741,1.9,50.956,50.956,0,0,1,12.129,7.009,29.315,29.315,0,0,0,10.033,5.331c3.7,1.02,10.726.066,13.056-3.7l-.461-.791c-2.1,3.4-9,4.609-12.368,3.679a28.557,28.557,0,0,1-9.748-5.189,51.961,51.961,0,0,0-12.33-7.123,32.843,32.843,0,0,0-6.921-1.948c-9.67-1.521-19.923,3.408-23.056,5.435-.7.449-1.312.83-1.906,1.2a39.535,39.535,0,0,0-4.058,2.753,49.374,49.374,0,0,0-4.534,4.393Z" transform="translate(-248.219 -189.808)" fill="#8680bc" fill-rule="evenodd"/>
  <path id="패스_52305" data-name="패스 52305" d="M251.5,227.862c2.915-4.961,7.467-8.71,11.874-11.977,6.627-4.908,19.705-6.641,27.99-3.709a37.183,37.183,0,0,1,9.74,5.316,41.942,41.942,0,0,0,9.05,5.146c6.1,2.444,14.922,3.589,20.257-1.524l-.282-.919c-5.044,4.834-13.792,4.006-19.659,1.657a40.974,40.974,0,0,1-8.881-5.055,38.469,38.469,0,0,0-9.943-5.418c-8.509-3.012-21.955-1.225-28.775,3.828-4.481,3.318-8.554,6.458-11.551,11.557Z" transform="translate(-248.919 -186.729)" fill="#8680bc" fill-rule="evenodd"/>
  <path id="패스_52306" data-name="패스 52306" d="M252.079,233.959a32.442,32.442,0,0,1,16.168-15.741,34.212,34.212,0,0,1,23.124-1.346,22.249,22.249,0,0,1,6.422,2.962c.712.435,1.516.93,2.5,1.49a65.583,65.583,0,0,0,12.947,5.8c5.224,1.626,12.762.175,17.83-2.24l-.04-.9c-4.8,2.285-12.577,3.878-17.538,2.335a64.764,64.764,0,0,1-12.779-5.73c-.971-.553-1.77-1.042-2.473-1.474a23.178,23.178,0,0,0-6.627-3.054,35.073,35.073,0,0,0-23.7,1.381,31.914,31.914,0,0,0-16.268,15.779Z" transform="translate(-248.682 -183.293)" fill="#8680bc" fill-rule="evenodd"/>
  <path id="패스_52307" data-name="패스 52307" d="M251.651,229.824c8.134-13.555,20.913-18.624,38.423-15.491,3.871.693,7.18,2.753,10.381,4.745l.876.546a58.679,58.679,0,0,0,12.375,5.907c5.407,1.842,13.04.081,17.295-2.684l-.209-.873c-4.083,2.654-11.649,4.514-16.814,2.756a57.844,57.844,0,0,1-12.2-5.827l-.874-.544c-3.27-2.034-6.648-4.139-10.68-4.859-17.894-3.2-30.567,1.638-38.9,15.53Z" transform="translate(-248.919 -184.806)" fill="#8680bc" fill-rule="evenodd"/>
  <path id="패스_52308" data-name="패스 52308" d="M271.291,209.923c.083-.793.258-2.414.287-2.727.066-.169.017-.43,1.322-.325l.074-.354a12.907,12.907,0,0,0-4.785-.888c-1.153.081-1.275-.069-1.243,1.061l-.01,1.929.213,7.441-.083,1.381.021.748c-1.649.757-5.1,2.471-5.155,2.44l-.543-2.549c-.067-.337-.947-4.579-1.066-4.972-.356-1.192-.147-1.319-1.7-1.211a9.706,9.706,0,0,0-3.662,1.408l.2.392a1.924,1.924,0,0,1,.382-.086c.491-.016.527-.066.79.124.226.166.275.719.368,1.07l0,.016,0,.019,3.51,16.807v.01c.162.47.537,2.661.672,3.04a5.265,5.265,0,0,0-.914.378l.164.461c1.256.045,2.482-.28,5.8-.909l-.356-.465c-.513-.071-.135.043-.957-.052l-2.571-11.45a50.192,50.192,0,0,1,5.112-1.645l.074,2.622c.057,1.939.249,3.4.3,4.277a3.027,3.027,0,0,0-1.085.311l.085.5,3.444-.055c.949.033,1.061.047,2.841.043l-.047-.536c-.264-.154-.482-.1-1.32-.451a13.958,13.958,0,0,0-.188-1.49l-.294-6.052c-.024-.938-.026-2.965,0-6.024-.005-.809.1-2.236.316-4.243" transform="translate(-246.265 -189.851)" fill="#ffca05"/>
  <path id="패스_52309" data-name="패스 52309" d="M271.874,211.02l.078,1.03-3.66,1.609-.112-.8a5.767,5.767,0,0,1,.428-2.305c.413-1.215.921-1.87,1.507-1.949a1.262,1.262,0,0,1,1.239.634,3.22,3.22,0,0,1,.512,1.36c-.005.073,0,.2.009.42m1.187-2.8a5.662,5.662,0,0,0-3.446-.645,5.178,5.178,0,0,0-3.937,2.63,8.024,8.024,0,0,0-.93,5.291,5.48,5.48,0,0,0,2.093,3.987,4.888,4.888,0,0,0,3.544.715,7.659,7.659,0,0,0,3.083-1.059c1.139-.726,2.2-1.626,2.347-2.732l-.785-.168c-.942,1.462-1.865,2.366-3.128,2.533a2.471,2.471,0,0,1-2.3-.653,6.314,6.314,0,0,1-1.151-3.316,8.8,8.8,0,0,1,3.2-1.289c2.082-.432,3.149-.657,3.261-.689l.054-.016.014-.052a4.891,4.891,0,0,0,.2-1.759,3.621,3.621,0,0,0-2.124-2.779" transform="translate(-239.21 -188.465)" fill="#ffca05"/>
  <path id="패스_52310" data-name="패스 52310" d="M277.776,215.591a7.912,7.912,0,0,1,.047,2.215c-.123.684-.427,1.059-.928,1.146a1.333,1.333,0,0,1-1.23-.525,2.9,2.9,0,0,1-.75-1.5,3.238,3.238,0,0,1,.4-2.26,2.265,2.265,0,0,1,1.564-1.18,1.543,1.543,0,0,1,.565.145c.052.3.335,1.961.333,1.958m5.217,2.212c-.014-.15-.346-.3-.382-.187-.116.366-.128.729-.524.795-.178.031-.325,0-.5-.261a1.931,1.931,0,0,1-.3-.769l-.589-3.439c-.01-.062-.045-.294-.112-.778a9.836,9.836,0,0,0-.162-1.064,15.888,15.888,0,0,0-.442-1.54,3.446,3.446,0,0,0-2.488-2.221,7.178,7.178,0,0,0-2.727-.273,6.347,6.347,0,0,0-2.376.876c-1.436.926-1.9,4.6.543,4.41.7-.055,2.032-.612,1.719-1.9-.257-1.065-1.27-1.051-2.074-1.135a2.843,2.843,0,0,1,1.818-.921,3.481,3.481,0,0,1,1.79.32c.681.3.885,1.179,1.016,1.941a4.848,4.848,0,0,1,.04,1.047,4.541,4.541,0,0,0-1.089.074,5.619,5.619,0,0,0-2.941,1.42,4.274,4.274,0,0,0-1.277,4.1,3.428,3.428,0,0,0,1.339,2.409,2.737,2.737,0,0,0,2.089.389,5.013,5.013,0,0,0,3.218-1.545c.453.493.94.315,1.439.4a4.7,4.7,0,0,0,1.332-.092,1.806,1.806,0,0,0,1.638-2.051" transform="translate(-234.437 -188.107)" fill="#ffca05"/>
  <path id="패스_52311" data-name="패스 52311" d="M284.62,205.672a2.773,2.773,0,0,0-1.51-.544c-1.227-.142-1.552.55-2.084,1.1-.55.688-.423,1.647-.956.387-.427-1-1.3-.843-2.065-.575l-1.994.753a2.938,2.938,0,0,0-.741.579l.19.244c.524-.185.881-.408,1.3-.109l.24.75,1.816,7.021a7.416,7.416,0,0,0,.261.966,9.428,9.428,0,0,1,.308,1.1c-.463.461-.27.308-.6.515l.2.408,4.654-1.353-.168-.38a4.231,4.231,0,0,0-1.084.055l-1.441-6.017a5.715,5.715,0,0,1,.164-2.354c.266-1.2.683-1.875,1.236-2l.3.06c-.74,1.543-.579,1.8-.534,1.968.093.394.983,1.986,2.525,1.395.81-.306,1.991-1.282.8-3.133a4.487,4.487,0,0,0-.828-.833" transform="translate(-231.481 -190.225)" fill="#ffca05"/>
  <path id="패스_52312" data-name="패스 52312" d="M296.829,212.981a1.731,1.731,0,0,0-1.847,1s-2.02,3.653-3.6,6.415l-1.035-2.753c-.645-2.193-2.115-6.809-2.666-8.236a2.292,2.292,0,0,0-2.008-1.343l-.005.005c-.019,0-1.707.085-2.746.178a2.325,2.325,0,0,0-.947.271l.093.3c.028.016.952-.3.987.479l-.591,16.375c-.009.527-.076.728-.558.823-.016.005-.9.114-.745.175l-.029.365c.016.047.081.022.55.085a31.421,31.421,0,0,0,3.65.093l.358,0c-.041-.235.052-.385-.021-.456l-.612-.092a.6.6,0,0,1-.468-.356l.278-15.745L289.71,225.9l.681.033.017.031a92.488,92.488,0,0,1,5.188-10.483c.23-.415-.627,2.215-.909,3.76l-2.419,13.208c-.007.031-.257,1.222-.294,1.415l-.251.031-.66.126.031.352a33.388,33.388,0,0,0,4.109.334,17.037,17.037,0,0,0,2.354.085l-.038-.321-.859-.233.036-.427,1.058-8.255,1.477-9.9c.033-.188.069-.416.1-.695.031-.238.055-.416.067-.479.045-.251.372-.778,1.345-.75l.074-.238c-.384-.451-2.468-.423-3.994-.513" transform="translate(-227.21 -188.076)" fill="#ffca05"/>
  <path id="패스_52313" data-name="패스 52313" d="M294.061,220.485a5.334,5.334,0,0,1,.266-2.06c.3-1.111.71-1.744,1.213-1.878a.991.991,0,0,1,1.094.415,13.926,13.926,0,0,1,.8,2.022l-3.242,2.181Zm6.035,2.088c-.743,1.389-1.512,2.376-2.589,2.666a1.982,1.982,0,0,1-2.006-.316,5.114,5.114,0,0,1-1.122-2.753,8.155,8.155,0,0,1,2.691-1.493c1.792-.624,2.67-.931,2.761-.973l.042-.019.009-.048a4.527,4.527,0,0,0,.1-1.574,2.851,2.851,0,0,0-1.946-2.205,4.588,4.588,0,0,0-2.971-.176,4.946,4.946,0,0,0-3.251,2.746,7.452,7.452,0,0,0-.565,4.756,4.392,4.392,0,0,0,1.968,3.27,3.957,3.957,0,0,0,3.057.228,7.093,7.093,0,0,0,2.589-1.274,3.789,3.789,0,0,0,1.54-2.646Z" transform="translate(-219.959 -182.65)" fill="#ffca05"/>
  <path id="패스_52314" data-name="패스 52314" d="M292.326,198.536l-.46-.01c-.525-.01-1.047-.022-1.571-.029l.007-.508q.785.01,1.574.029l.461.01Zm-5.4.028-.035-.506c.629-.041,1.3-.066,2.048-.074l.005.51c-.74.007-1.4.029-2.018.071m8.761.169c-.653-.064-1.332-.114-2.015-.149l.026-.508c.691.036,1.377.086,2.039.149Zm-12.071.309-.116-.494a18.342,18.342,0,0,1,2.027-.359l.062.5a18.189,18.189,0,0,0-1.973.351m15.4.161c-.652-.121-1.324-.228-1.994-.316l.066-.5c.681.09,1.36.2,2.022.321Zm3.273.772c-.645-.185-1.3-.353-1.954-.5l.112-.5c.66.149,1.329.32,1.982.506Zm-21.9.029-.159-.484c.684-.226,1.324-.427,1.948-.612l.143.487c-.619.183-1.251.382-1.932.608m25.1,1.04c-.636-.244-1.277-.472-1.9-.676l.157-.484c.636.207,1.286.439,1.929.684Zm-28.282.09-.175-.475q.954-.355,1.915-.695l.169.479c-.639.225-1.274.458-1.91.691m-3.168,1.192-.185-.473.347-.131,1.559-.588.18.475-1.56.588Zm34.545.047c-.622-.294-1.244-.572-1.846-.826l.2-.468c.61.256,1.237.537,1.866.835Zm-37.605,1.339-.233-.453c.6-.315,1.225-.612,1.846-.885l.206.465c-.612.27-1.224.562-1.818.873m40.621.182c-.551-.294-1.142-.6-1.8-.928l.226-.454c.667.334,1.26.639,1.814.933Zm-43.51,1.526L267.8,205c.567-.378,1.151-.743,1.74-1.08l.254.439c-.579.334-1.154.691-1.711,1.063m46.429.157c-.548-.346-1.115-.686-1.735-1.035l.249-.442c.627.354,1.2.7,1.757,1.047Zm-49.123,1.854-.325-.391c.527-.439,1.07-.862,1.616-1.262l.3.411c-.537.392-1.071.809-1.59,1.241m51.865.081c-.515-.406-1.059-.809-1.619-1.194l.289-.42c.569.392,1.123.8,1.647,1.218Zm-54.345,2.193-.359-.358c.48-.489.98-.964,1.481-1.415l.339.378c-.491.444-.983.912-1.46,1.395m56.846.05c-.472-.477-.966-.942-1.467-1.381l.333-.382c.51.446,1.013.919,1.493,1.4Zm-59.1,2.447-.392-.325c.439-.529.892-1.049,1.346-1.542l.375.342c-.449.489-.9,1-1.329,1.524m61.3.088c-.434-.563-.852-1.071-1.281-1.555l.38-.337c.437.491.864,1.011,1.3,1.585Zm-63.345,2.59-.415-.294c.29-.41.6-.836.93-1.268l.287-.375.4.311-.283.37c-.323.427-.634.85-.921,1.256m65.288.166c-.434-.652-.8-1.182-1.144-1.671l.415-.3c.349.494.717,1.028,1.153,1.685Zm-67.116,2.66-.439-.254c.327-.565.691-1.151,1.082-1.74l.423.282c-.385.581-.743,1.158-1.066,1.713m68.98.171c-.349-.522-.69-1.042-1.028-1.559l-.093-.142.427-.278.092.142c.339.517.677,1.033,1.023,1.554Zm-70.48,2.829-.468-.2c.251-.6.543-1.232.869-1.861l.451.233c-.318.617-.6,1.23-.852,1.823m72.153.067a18.591,18.591,0,0,0-.949-1.764l.434-.264a19.422,19.422,0,0,1,.975,1.813ZM254.1,223.866l-.482-.162c.216-.645.448-1.291.69-1.923l.475.18c-.24.629-.47,1.268-.683,1.906m74.495.047c-.226-.748-.432-1.355-.643-1.908l.475-.181c.216.563.423,1.18.653,1.941ZM253.147,227.1l-.492-.126c.169-.653.354-1.317.553-1.968l.486.149c-.2.643-.38,1.3-.546,1.946m76.368.069-.024-.09c-.187-.681-.356-1.3-.515-1.866l.489-.138c.161.569.33,1.189.517,1.87l.024.092Zm-77.09,3.223-.5-.09c.123-.665.257-1.339.408-2l.5.112c-.149.657-.285,1.324-.4,1.982m77.851.06c-.128-.66-.27-1.324-.427-1.977l.494-.118c.159.66.3,1.332.43,2Zm-78.323,3.275-.506-.052c.069-.672.156-1.357.256-2.029l.5.074c-.1.667-.187,1.341-.252,2.006m78.831.055c-.076-.665-.168-1.339-.275-2l.5-.081c.107.672.2,1.353.276,2.027Zm-79.04,3.308-.508-.012c.014-.676.047-1.362.1-2.044l.506.038c-.047.672-.079,1.35-.093,2.018m79.285.052c-.022-.669-.06-1.348-.116-2.017l.506-.041c.057.676.1,1.365.118,2.043Zm.486,3.337-.51-.026c.031-.643.047-1.3.047-1.942v-.078h.51v.078c0,.655-.017,1.317-.047,1.968m-80.217.007c-.04-.674-.064-1.362-.071-2.044l.508-.005c.007.676.031,1.353.071,2.02Zm79.907,3.389-.5-.067c.088-.664.161-1.339.216-2.01l.506.042c-.057.681-.13,1.363-.22,2.036m-79.56.005c-.1-.67-.178-1.355-.242-2.032l.5-.048c.064.669.145,1.344.24,2.006Zm.636,3.349c-.156-.662-.3-1.336-.417-2l.5-.09c.117.66.257,1.324.41,1.977Zm78.319,0-.5-.112c.147-.65.28-1.317.394-1.98l.5.085c-.116.674-.249,1.348-.4,2.008m-77.4,3.283c-.211-.646-.408-1.306-.586-1.961l.491-.131c.175.646.372,1.3.579,1.934Zm76.491.007-.484-.159c.207-.634.4-1.286.574-1.937l.493.131c-.176.66-.373,1.32-.582,1.965M254.4,253.7c-.266-.627-.52-1.268-.752-1.9l.477-.174c.228.627.479,1.258.743,1.878Zm74.07,0L328,253.5l.092-.207c.235-.544.46-1.106.667-1.662l.477.176c-.211.565-.437,1.134-.677,1.688Zm-1.5,3.06-.446-.24c.321-.593.631-1.2.919-1.8l.458.218c-.292.612-.607,1.223-.931,1.821m-71.1.017-.194-.366c-.249-.484-.491-.976-.721-1.465l.463-.216c.225.484.463.971.71,1.446l.19.363Zm69.345,2.908-.425-.28c.368-.558.728-1.137,1.068-1.714l.439.257c-.346.586-.709,1.17-1.082,1.737m-67.6.026c-.375-.57-.736-1.156-1.077-1.742l.439-.254c.335.577.691,1.154,1.063,1.718Zm65.609,2.739-.4-.315c.415-.527.823-1.073,1.21-1.619l.415.3c-.392.553-.8,1.1-1.225,1.638m-63.613.028c-.425-.537-.836-1.087-1.227-1.638l.415-.294c.385.543.793,1.087,1.211,1.618Zm61.415,2.57-.384-.335c.192-.216.378-.43.563-.641l.318-.365c.15-.175.3-.349.451-.525l.389.328c-.152.178-.3.356-.458.53l-.316.365-.563.643m-59.186.012c-.465-.5-.925-1.007-1.363-1.528l.387-.328c.434.513.888,1.02,1.346,1.507Zm2.438,2.385c-.164-.149-.327-.3-.491-.449-.337-.313-.672-.636-1-.957l.358-.361c.321.32.653.638.985.947.161.149.321.3.484.441Zm54.361.055-.335-.384c.446-.389.914-.848,1.436-1.4l.372.346a20.418,20.418,0,0,1-1.472,1.441m-51.689,2.072c-.56-.4-1.108-.817-1.63-1.242l.32-.394c.515.418,1.054.829,1.6,1.222Zm49.04.054-.323-.392.282-.233c.429-.352.871-.715,1.306-1.051l.309.4c-.43.33-.868.691-1.293,1.04Zm-46.166,1.782c-.6-.344-1.185-.7-1.745-1.068l.276-.425c.553.358,1.132.714,1.723,1.052Zm43.4.233-.27-.432q.345-.215.684-.437c.3-.2.62-.425.975-.7l.309.4c-.365.278-.693.513-1.006.717q-.342.226-.693.444m-40.379,1.343c-.632-.3-1.248-.61-1.827-.916l.237-.449c.572.3,1.182.607,1.809.9Zm37.412.337-.232-.453c.6-.3,1.2-.629,1.776-.966l.254.442c-.589.34-1.194.667-1.8.976m-34.294,1.03c-.667-.273-1.282-.536-1.878-.8l.206-.465c.593.263,1.2.524,1.865.795Zm31.192.387-.192-.47c.626-.254,1.249-.527,1.851-.809l.216.461c-.61.285-1.242.56-1.875.817m-28.023.843-.3-.111q-.811-.3-1.611-.615l.185-.474c.531.207,1.065.41,1.6.612l.294.111Zm24.812.306-.152-.484c.646-.2,1.289-.42,1.915-.651l.173.479c-.631.232-1.282.454-1.935.657m-21.556.729c-.608-.149-1.255-.339-1.97-.579l.162-.484c.7.237,1.332.423,1.929.569Zm18.261.147-.111-.5c.652-.145,1.313-.309,1.961-.487l.135.489c-.657.183-1.325.347-1.986.494m-14.913.515c-.676-.105-1.353-.226-2.015-.363l.1-.5c.653.137,1.322.257,1.987.359Zm11.556.083-.067-.5c.664-.09,1.334-.2,2-.323l.093.5c-.669.126-1.35.235-2.022.327m-8.167.285c-.677-.045-1.363-.105-2.037-.185l.059-.506c.667.079,1.344.14,2.013.185Zm4.773.033-.026-.508c.667-.035,1.344-.086,2.015-.156l.052.506c-.679.071-1.367.123-2.041.157m-2.112.055c-.432,0-.866-.007-1.3-.021l.017-.508q1.008.031,2.02.014l.01.508c-.251,0-.5.007-.75.007" transform="translate(-248.986 -195.413)" fill="#fff"/>
  <path id="패스_52315" data-name="패스 52315" d="M304.359,241.476a2.693,2.693,0,0,1-1.636-.555,18.241,18.241,0,0,0,.085-2.509c-.019-.546-.067-1.123-.136-1.716,1.569-1.1,4.395-.429,4.395,2.056a2.849,2.849,0,0,1-2.706,2.723m-7.03,4.213A15.374,15.374,0,0,1,286.7,250.86c-8.654.226-12.441-5.228-12.441-5.228a.672.672,0,0,1,.093-.607.545.545,0,0,1,.816.038c4.26,5.151,10.984,4.735,10.984,4.735a14.373,14.373,0,0,0,10.32-4.773.593.593,0,0,1,.721-.076.555.555,0,0,1,.131.74M276.55,233.937a1.177,1.177,0,1,1-1.172,1.179,1.174,1.174,0,0,1,1.172-1.179m18.809,0a1.177,1.177,0,1,1-1.17,1.179,1.174,1.174,0,0,1,1.17-1.179m-31.116,4.621a2.964,2.964,0,0,1,2.708-2.724,2.682,2.682,0,0,1,1.488.449,19.566,19.566,0,0,0,.111,4.457c-1.585.971-4.306.066-4.306-2.183m44.1-4.237a5.753,5.753,0,0,0-3.921-.931,6.146,6.146,0,0,0-2.228.619,15.884,15.884,0,0,0-3.41-7.066,18.026,18.026,0,0,0-7.128-4.574l-.938,2.584a.6.6,0,0,1-.735.263.634.634,0,0,1-.42-.681l.924-2.535a18.127,18.127,0,0,0-4.142-.669l-.016,2.81a.6.6,0,0,1-.6.493.634.634,0,0,1-.624-.5l.019-2.81a20.868,20.868,0,0,0-3.546.444l.919,2.7a.6.6,0,0,1-.41.665.7.7,0,0,1-.792-.256l-.966-2.813a20,20,0,0,0-4.939,1.982,14.782,14.782,0,0,0-6.6,9.942c-2.419-1.251-5.613-1.037-7.184,1.49a5.737,5.737,0,0,0,.664,7.2c2,1.989,3.256,2.552,5.9,1.462a6.428,6.428,0,0,0,1.026-.537c.079.251.162.5.252.745,2.559,6.857,9.626,11.011,16.686,10.984a16.216,16.216,0,0,0,10.687-3.88,17.6,17.6,0,0,0,5.324-7.69,5.623,5.623,0,0,0,2.774.726c2.7,0,5.54-2.926,5.518-5.729a5.834,5.834,0,0,0-2.094-4.433" transform="translate(-242.132 -178.422)" fill="#fff"/>
  <path id="패스_52316" data-name="패스 52316" d="M271.464,231.252c0,.385-1.084.7-2.419.7s-2.419-.311-2.419-.7,1.08-.693,2.419-.693,2.419.309,2.419.693" transform="translate(-237.774 -171.695)" fill="#9a94c8" fill-rule="evenodd"/>
  <path id="패스_52317" data-name="패스 52317" d="M285.868,231.315c0,.413-1.161.745-2.592.745s-2.589-.332-2.589-.745,1.16-.743,2.589-.743,2.592.335,2.592.743" transform="translate(-227.536 -171.685)" fill="#9a94c8" fill-rule="evenodd"/>
  <path id="패스_52318" data-name="패스 52318" d="M263.934,229.453a27.158,27.158,0,0,0-5.075-2.371l-1.213-.475-.437,1.1,1.225.48a26.15,26.15,0,0,1,4.863,2.264Z" transform="translate(-244.631 -174.572)" fill="#fff"/>
  <path id="패스_52319" data-name="패스 52319" d="M261.5,230.349c-.755-.007-1.424-.05-2.072-.093-.828-.054-1.687-.111-2.7-.085l.031,1.182c.956-.026,1.751.026,2.59.081.664.045,1.348.09,2.138.1Z" transform="translate(-244.981 -171.982)" fill="#fff"/>
  <path id="패스_52320" data-name="패스 52320" d="M262.025,232.279a13.74,13.74,0,0,0-4.5,1.992l.665.976a12.69,12.69,0,0,1,4.147-1.83Z" transform="translate(-244.402 -170.442)" fill="#fff"/>
  <path id="패스_52321" data-name="패스 52321" d="M289.963,230.647a21.366,21.366,0,0,1,6.835-3.741l-.372-1.12a22.377,22.377,0,0,0-7.179,3.921Z" transform="translate(-221.303 -175.17)" fill="#fff"/>
  <path id="패스_52322" data-name="패스 52322" d="M290.689,231.252l.816-.014a20.406,20.406,0,0,0,4.7-.435l-.289-1.144a19.637,19.637,0,0,1-4.433.4l-.824.014Z" transform="translate(-220.272 -172.35)" fill="#fff"/>
  <path id="패스_52323" data-name="패스 52323" d="M289.909,233a6.869,6.869,0,0,1,3.353,2.76l1.046-.546a8,8,0,0,0-3.921-3.294Z" transform="translate(-220.821 -170.702)" fill="#fff"/>
</svg>
