<svg id="그룹_7224" data-name="그룹 7224" xmlns="http://www.w3.org/2000/svg" width="72.964" height="67.312" viewBox="0 0 72.964 67.312">
  <path id="패스_51981" data-name="패스 51981" d="M392.935,411.323a33.655,33.655,0,1,1-33.656-33.655,33.658,33.658,0,0,1,33.656,33.655" transform="translate(-321.611 -377.668)" fill="#231f20"/>
  <path id="패스_51982" data-name="패스 51982" d="M358.826,378.827a32.042,32.042,0,1,0,32.042,32.041,32.077,32.077,0,0,0-32.042-32.041m0,64.617A32.575,32.575,0,1,1,391.4,410.868a32.613,32.613,0,0,1-32.575,32.576" transform="translate(-321.156 -377.213)" fill="#00b4e9"/>
  <path id="패스_51983" data-name="패스 51983" d="M352.215,395.711s-1.236,1.835-2.272,2.018a1.509,1.509,0,0,0,1.258.219,1.832,1.832,0,0,0-.242,1.6s.335.118.493-.071c0,0-.3,1.011.157,1.481a1.028,1.028,0,0,0,.577-.651s-.277,1.353.263,1.334a1.493,1.493,0,0,0,.361-1.153s.226,1.142.629.969c0,0,.717-.081.65-.574s-1.984-3.325-1.873-5.177" transform="translate(-303.906 -364.531)" fill="#bd3f2f"/>
  <path id="패스_51984" data-name="패스 51984" d="M352.462,400.459a2.068,2.068,0,0,0,0,1.023,1.256,1.256,0,0,0,.232-.874l.161-.233.237.159a1.552,1.552,0,0,0,.349.824l.055-.017.435-.194.038-.15a6.362,6.362,0,0,0-.425-.9,12.32,12.32,0,0,1-1.429-3.726,5.754,5.754,0,0,1-1.574,1.459.992.992,0,0,0,.664.009l.235.062.009.242a1.7,1.7,0,0,0-.259,1.313l.19-.028.251-.047.1.237a1.809,1.809,0,0,0,.017,1.158.707.707,0,0,0,.32-.4l.005-.029.237-.155.161.233Zm.06,1.472-.349-.162a1.093,1.093,0,0,1-.178-.672l-.221.131-.225-.047a1.576,1.576,0,0,1-.285-1.31l-.289-.05-.117-.105a1.754,1.754,0,0,1,.054-1.414,1.989,1.989,0,0,1-1-.327l-.081-.211.164-.154c.779-.138,1.809-1.441,2.138-1.93l.235-.081.135.206c-.074,1.248.855,3.04,1.407,4.111a4.344,4.344,0,0,1,.463,1.025.567.567,0,0,1-.116.453,1.1,1.1,0,0,1-.681.344l-.321-.026-.283-.3a1.683,1.683,0,0,1-.289.453l-.142.067Z" transform="translate(-303.989 -364.612)" fill="#231f20"/>
  <path id="패스_51985" data-name="패스 51985" d="M355.837,400.522l.539.078a10.746,10.746,0,0,0-1.127,4.851s4.153,1.039,6.164.344a19.884,19.884,0,0,1,.342-3.446,19.665,19.665,0,0,1,.726-3.062,4.783,4.783,0,0,1,1.175-.149c.3.054.016-.05.016-.05s-1.8,3.541-.4,6.682a21.61,21.61,0,0,0,1.994,2.68,44.038,44.038,0,0,1,.244,7.331l-12.942-.679s.473-6.838,1.128-8.7c0,0,1.033-5.17,2.139-5.875" transform="translate(-301.993 -362.072)" fill="#60ae4f"/>
  <path id="패스_51986" data-name="패스 51986" d="M352.723,415.063l12.745.669a44.355,44.355,0,0,0-.249-7.18,22.012,22.012,0,0,1-1.982-2.673c-1.225-2.746-.04-5.812.3-6.594a6.081,6.081,0,0,0-.952.149,19.574,19.574,0,0,0-.686,2.986,19.8,19.8,0,0,0-.34,3.434l0,.071-.066.019c-2.017.7-6.054-.3-6.225-.34l-.074-.017,0-.08a11.033,11.033,0,0,1,1.075-4.77l-.361-.052c-1.046.75-2.055,5.739-2.065,5.789-.6,1.721-1.058,7.726-1.12,8.59m12.923.88-13.14-.691.009-.1c.019-.28.482-6.876,1.135-8.729.038-.2,1.051-5.212,2.181-5.931l.031-.021.721.1-.069.131a10.747,10.747,0,0,0-1.116,4.723c.565.131,4.132.935,5.965.347a18.479,18.479,0,0,1,.346-3.406,17.365,17.365,0,0,1,.745-3.092l.021-.028.033-.005a5.6,5.6,0,0,1,1.13-.159l.035-.071.085.029.185.187-.185.074c-.29.634-1.562,3.733-.342,6.477a21.511,21.511,0,0,0,1.965,2.642l.033.028,0,.04a44.234,44.234,0,0,1,.244,7.358Z" transform="translate(-302.04 -362.126)" fill="#231f20"/>
  <path id="패스_51987" data-name="패스 51987" d="M354.812,391.252s-7.965,7.752-.073,14.867c0,0,6.567,3.187,10.725-2.49,4.478-6.116,1.982-6.193,1.512-9.795,0,0-2.488-5.578-12.164-2.582" transform="translate(-302.954 -368.422)" fill="#ffe5ca"/>
  <path id="패스_51988" data-name="패스 51988" d="M354.793,391.178a2.975,2.975,0,0,1-2.732-.038,2.36,2.36,0,0,0,1.853.942,3.014,3.014,0,0,1-1.96.028s.921.738,1.616.587c0,0-.728.337-.731.985,0,0,.078.347.944-.24,0,0,.156.695.964.257a4.4,4.4,0,0,0,.956-.432s-.325.515.391.854a1.294,1.294,0,0,0,1.187-.223s.247.574.38.826a1.145,1.145,0,0,0,1.306.378,1.376,1.376,0,0,0,.8.608,4.271,4.271,0,0,1,.461-.365,1.356,1.356,0,0,0,.648.624,4.423,4.423,0,0,1,.743-.152,1.033,1.033,0,0,0,.344.8,3.022,3.022,0,0,1,.992-.233s-.066.422.779,1.013l.42-1.059s.057,1.98.671,2.359c0,0,.3,3.2-1.719,5.039a4.6,4.6,0,0,0,1.645-1.322s-.648,1.821-1.6,2.253a2.664,2.664,0,0,0,1.412-.7,12.691,12.691,0,0,0-1.725,2.635s.183.938,1.483-.164a1.257,1.257,0,0,1,1.358.142s.612.429,1.662-.788c0,0,.375-.511.615-.448,0,0,.783.826,1.156-.52l-.038-.149s.537-.017.734-.836a3.536,3.536,0,0,0,.035-2.252s.46.517.731.043a2.873,2.873,0,0,0-.378-2.667s-.1-.786-.38-1c0,0,1.011,1.09,1.051.41a6.125,6.125,0,0,0-3.46-4.369s1.858.9,2.8.608a1.607,1.607,0,0,1,1.229.712,1.844,1.844,0,0,0-.9-1.331s.982-.036.721-.589a.954.954,0,0,0-.8-.588s1.719-.092,1.035-.918c0,0-.225-.356-1.467-.038,0,0,1.158-.567.854-1.175,0,0-.788-.728-1.877.28,0,0,.658-1.18,1.21-1.443s-1.284.219-1.872,1.014.7-1.035.543-1.68-1.287,1.1-1.668,1.711a8.713,8.713,0,0,1-.119-1.279c.019-.389-.3.081-.582.748a.914.914,0,0,1-.4-.805,5.586,5.586,0,0,0-.375,3.01s-1.256-1.884-2.808-2.127c0,0-.548.166.109.641a8.461,8.461,0,0,0-4.329-.451,9.628,9.628,0,0,0-3.633.178s-.171.382,1.441.425a7.636,7.636,0,0,0-1.733.264" transform="translate(-302.441 -369.62)" fill="#bd3f2f"/>
  <path id="패스_51989" data-name="패스 51989" d="M354.866,391.264h0Zm8.25,15.42.152.169c.1.031.375.047.992-.479a1.448,1.448,0,0,1,1.623.142h0c.009,0,.5.245,1.377-.76.126-.175.477-.607.817-.52l.1.062c.06.06.261.223.422.181.145-.036.278-.237.378-.567l-.026-.1.035-.171.154-.081c.014,0,.391-.038.546-.683a3.377,3.377,0,0,0,.052-2.108l.066-.261.264.035.3.171.105-.1a2.7,2.7,0,0,0-.361-2.437l-.041-.1a2.274,2.274,0,0,0-.245-.8l-.083-.088,0-.273.271-.028.114.116a2.146,2.146,0,0,0,.612.468l0-.026a6.017,6.017,0,0,0-3.1-4.064l-.24-.111-.1-.264.263-.1.257.114a4.592,4.592,0,0,0,2.409.487l.069-.01a2.22,2.22,0,0,1,.728.2,1.194,1.194,0,0,0-.491-.429l-.116-.223.19-.162c.192-.01.5-.078.562-.181l-.016-.126c-.016-.043-.121-.361-.655-.472l-.161-.213.19-.188c.366-.021.916-.145,1-.325l-.107-.263c-.007-.007-.238-.23-1.26.029l-.24-.124.1-.254c.18-.086.672-.387.774-.688V390.9c-.133-.1-.74-.472-1.573.3l-.263.007-.052-.252a6.68,6.68,0,0,1,.589-.885,2.531,2.531,0,0,0-.907.669c-.174.238-.261.354-.427.249s-.085-.249.014-.429a3.663,3.663,0,0,0,.6-1.529,7.3,7.3,0,0,0-1.307,1.725l-.211.095-.161-.169c0-.026-.083-.5-.112-.918-.06.116-.13.261-.2.435l-.13.116-.173-.028a1.357,1.357,0,0,1-.306-.315,4.8,4.8,0,0,0-.155,2.283l-.1.252-.261-.067a5.124,5.124,0,0,0-2.616-2.029l-.038.028s.026.085.242.24l.055.266-.256.085a8.268,8.268,0,0,0-4.215-.442l-.066,0a9.8,9.8,0,0,0-3.19.078,4.441,4.441,0,0,0,1.037.124l.2.2-.192.2a7,7,0,0,0-1.642.237h-.005a3.306,3.306,0,0,1-1.866.325,1.83,1.83,0,0,0,.883.2l.206.169-.135.225a4.262,4.262,0,0,1-.931.194.978.978,0,0,0,.479.033l.233.131-.105.251a1.152,1.152,0,0,0-.6.7,1.629,1.629,0,0,0,.62-.3l.188-.019.121.142.173.219a.605.605,0,0,0,.5-.1,4.093,4.093,0,0,0,.918-.4l.266,0,.04.259-.029.256a.549.549,0,0,0,.332.308,1.085,1.085,0,0,0,.985-.2l.173-.031.131.116c0,.007.247.57.373.814a.952.952,0,0,0,1.058.283l.247.09a1.221,1.221,0,0,0,.575.48l.4-.308.168-.024.128.112a1.167,1.167,0,0,0,.484.489,3.873,3.873,0,0,1,.705-.135l.168.064.048.176a.758.758,0,0,0,.207.518,3.843,3.843,0,0,1,.911-.192l.168.064.05.173s0,.259.491.658l.321-.814.223-.124.168.192c.021.726.2,1.961.574,2.2l.1.152a7.434,7.434,0,0,1-.937,4.182,1.857,1.857,0,0,0,.48-.539l.261-.1.111.252a6.883,6.883,0,0,1-.878,1.652l.289-.226.05-.064.28-.035.041.28-.059.074a11.858,11.858,0,0,0-1.621,2.433m.247.588-.23-.036a.686.686,0,0,1-.422-.5l0-.054a6.13,6.13,0,0,1,1.089-1.872,3.794,3.794,0,0,1-.541.145l-.228-.142.109-.242a2.691,2.691,0,0,0,1.008-1.1,6.991,6.991,0,0,1-.878.53l-.256-.067.031-.264c1.738-1.583,1.688-4.263,1.661-4.782a2.831,2.831,0,0,1-.6-1.593l-.1.263-.13.118-.173-.026a1.924,1.924,0,0,1-.836-.956,2.881,2.881,0,0,0-.733.192l-.24-.047a1.533,1.533,0,0,1-.384-.709,4.237,4.237,0,0,0-.491.118l-.15-.01a1.676,1.676,0,0,1-.62-.515l-.264.219-.183.047a1.566,1.566,0,0,1-.835-.563,1.353,1.353,0,0,1-1.388-.5c-.1-.173-.219-.456-.308-.648a1.473,1.473,0,0,1-1.172.114.964.964,0,0,1-.563-.57l-.019-.092a6.4,6.4,0,0,1-.626.24.915.915,0,0,1-.829.1l-.283-.247c-.378.226-.648.294-.847.216l-.207-.23a1.221,1.221,0,0,1,.358-.854,3.515,3.515,0,0,1-1.173-.6l-.045-.266.263-.071a1.737,1.737,0,0,0,.854.142,2.743,2.743,0,0,1-1-.816l.019-.254.251-.04a2.76,2.76,0,0,0,2.53.036,1.786,1.786,0,0,1,.423-.128l-.185-.173-.031-.294.124-.111a9.694,9.694,0,0,1,3.691-.187,8.647,8.647,0,0,1,3.805.261l.005-.081a.506.506,0,0,1,.353-.358l.088-.007a4.56,4.56,0,0,1,2.48,1.611,6.273,6.273,0,0,1,.543-2.514l.235-.021.1.27a.563.563,0,0,0,.126.429c.378-.8.567-.762.66-.74s.207.1.19.349a5.483,5.483,0,0,0,.045.695c1.014-1.548,1.334-1.5,1.462-1.476a.34.34,0,0,1,.278.29,1.825,1.825,0,0,1-.206,1.013,3.475,3.475,0,0,1,1.49-.563l.154.183c.012.157-.131.223-.218.266a2.051,2.051,0,0,0-.627.6,1.4,1.4,0,0,1,1.344.228l.042.055a.685.685,0,0,1,.036.525,1.128,1.128,0,0,1-.261.406c.586-.024.778.182.828.266a.608.608,0,0,1,.152.658.984.984,0,0,1-.674.458.962.962,0,0,1,.311.439.486.486,0,0,1-.019.473.708.708,0,0,1-.385.28,2.246,2.246,0,0,1,.587,1.194l-.136.22-.244-.1a1.371,1.371,0,0,0-1.03-.6,2.71,2.71,0,0,1-1.194-.035,6.478,6.478,0,0,1,2.031,3.555c-.014.318-.157.408-.242.442a.6.6,0,0,1-.472-.1l.036.2a3.068,3.068,0,0,1,.375,2.822.564.564,0,0,1-.432.328l-.138-.007a4.42,4.42,0,0,1-.2,1.88,1.209,1.209,0,0,1-.684.914l-.007.057c-.145.52-.375.828-.684.9a.868.868,0,0,1-.747-.233,1.424,1.424,0,0,0-.37.368c-1.17,1.346-1.911.85-1.944.829a1.063,1.063,0,0,0-1.149-.128,1.882,1.882,0,0,1-1.12.563" transform="translate(-302.514 -369.706)" fill="#231f20"/>
  <path id="패스_51990" data-name="패스 51990" d="M356.505,393.871a.552.552,0,0,1,.036-.541l.164.118-.016.339Z" transform="translate(-299.166 -366.264)" fill="#231f20"/>
  <path id="패스_51991" data-name="패스 51991" d="M356.809,394.173l-.081-.04a.977.977,0,0,1,.038-.928l.135-.052.048.135a.817.817,0,0,0-.057.726l-.024.142Z" transform="translate(-299.041 -366.393)" fill="#231f20"/>
  <path id="패스_51992" data-name="패스 51992" d="M356.95,394.084l-.1-.1a1.082,1.082,0,0,1,.334-.945l.142.017-.016.142a.867.867,0,0,0-.257.783l-.1.105Z" transform="translate(-298.878 -366.478)" fill="#231f20"/>
  <path id="패스_51993" data-name="패스 51993" d="M357.177,393.985l-.085-.048a.546.546,0,0,1,.035-.651l.142-.019.021.142-.026.422-.035.142Z" transform="translate(-298.767 -366.311)" fill="#231f20"/>
  <path id="패스_51994" data-name="패스 51994" d="M357.437,394.235l-.1-.064a1.986,1.986,0,0,1-.111-.783l.109-.1.1.107a1.611,1.611,0,0,0,.1.7l-.059.128Z" transform="translate(-298.601 -366.291)" fill="#231f20"/>
  <path id="패스_51995" data-name="패스 51995" d="M357.634,394.074l-.081-.04a1,1,0,0,1-.19-.449l.085-.114.114.085.152.358-.019.142Z" transform="translate(-298.503 -366.162)" fill="#231f20"/>
  <path id="패스_51996" data-name="패스 51996" d="M357.962,394.388l-.064-.024a1.142,1.142,0,0,1-.339-.769l.088-.112.114.088a.952.952,0,0,0,.264.638l.014.142Z" transform="translate(-298.36 -366.154)" fill="#231f20"/>
  <path id="패스_51997" data-name="패스 51997" d="M358.167,394.329l-.076-.034-.287-.432.05-.135.135.051.254.381-.009.142Z" transform="translate(-298.181 -365.974)" fill="#231f20"/>
  <path id="패스_51998" data-name="패스 51998" d="M352.763,392.356h-.005l-.1-.1a.564.564,0,0,1,.268-.463l.138.036-.036.143-.168.294Z" transform="translate(-301.925 -367.387)" fill="#231f20"/>
  <path id="패스_51999" data-name="패스 51999" d="M352.959,392.36l-.045-.01-.047-.135a.8.8,0,0,1,.534-.467l.123.074-.074.121a.6.6,0,0,0-.4.361Z" transform="translate(-301.777 -367.416)" fill="#231f20"/>
  <path id="패스_52000" data-name="패스 52000" d="M353.241,392.207l-.08-.036.017-.142a.888.888,0,0,1,.615-.233l.1.1-.1.1a.772.772,0,0,0-.486.194Z" transform="translate(-301.562 -367.382)" fill="#231f20"/>
  <path id="패스_52001" data-name="패스 52001" d="M353.551,392.376l-.045-.01-.045-.135a.732.732,0,0,1,.539-.422l.114.09-.088.112a.536.536,0,0,0-.387.309Z" transform="translate(-301.344 -367.372)" fill="#231f20"/>
  <path id="패스_52002" data-name="패스 52002" d="M353.809,392.251l-.09-.054.041-.137a1.92,1.92,0,0,1,.473-.178l.123.078-.076.117-.425.162Z" transform="translate(-301.156 -367.318)" fill="#231f20"/>
  <path id="패스_52003" data-name="패스 52003" d="M356.091,393.877a4.285,4.285,0,0,1-3.28,2.447,11.263,11.263,0,0,1,.99,1.478,9.859,9.859,0,0,0-.513-1.251,3.343,3.343,0,0,0,2.8-2.673" transform="translate(-301.817 -365.866)" fill="#231f20"/>
  <path id="패스_52004" data-name="패스 52004" d="M352.976,392.873s-2.1,1.586-.327,3.014a1.6,1.6,0,0,0,2.494-.779s.861-2.16-1.37-2.485c-.581-.081-.394.074-.8.251" transform="translate(-302.454 -366.796)" fill="#fff"/>
  <path id="패스_52005" data-name="패스 52005" d="M352.778,395.842a1.961,1.961,0,0,0,1.448.244,1.453,1.453,0,0,0,.854-.973,2.127,2.127,0,0,0-.029-1.616,1.6,1.6,0,0,0-1.243-.7c-.321-.045-.356-.017-.435.05a1.037,1.037,0,0,1-.282.181,2.516,2.516,0,0,0-.982,1.624,1.513,1.513,0,0,0,.669,1.191m1.042.551a2.441,2.441,0,0,1-1.185-.356,1.751,1.751,0,0,1-.767-1.393,2.762,2.762,0,0,1,1.087-1.82l.026-.017.232-.145c.142-.121.238-.161.631-.107a1.815,1.815,0,0,1,1.419.824,2.3,2.3,0,0,1,.045,1.821,1.688,1.688,0,0,1-1,1.115,1.545,1.545,0,0,1-.484.078" transform="translate(-302.505 -366.846)" fill="#231f20"/>
  <path id="패스_52006" data-name="패스 52006" d="M357.025,394.251s-2.31,1.82,0,3.328c0,0,2.02.61,2.518-1.172a1.967,1.967,0,0,0-1.089-2.269s-.266-.455-1.426.112" transform="translate(-299.497 -365.801)" fill="#fff"/>
  <path id="패스_52007" data-name="패스 52007" d="M357.123,397.519a2.417,2.417,0,0,0,1.63-.121,1.493,1.493,0,0,0,.721-.973,1.833,1.833,0,0,0-1.026-2.126l-.033-.014-.017-.031s-.247-.34-1.256.152a2.554,2.554,0,0,0-.969,1.752,1.794,1.794,0,0,0,.952,1.36m.712.334a3.269,3.269,0,0,1-.8-.1l-.031-.014a2.03,2.03,0,0,1-1.08-1.569A2.772,2.772,0,0,1,357,394.208l.022-.014c1.087-.532,1.465-.216,1.56-.1a2.1,2.1,0,0,1,1.123,2.4,1.753,1.753,0,0,1-.838,1.122,2.157,2.157,0,0,1-1.033.238" transform="translate(-299.549 -365.853)" fill="#231f20"/>
  <path id="패스_52008" data-name="패스 52008" d="M353.3,393.224l.01.031.069-.038Zm.038.24.064-.014.031-.026Zm.335-.188-.156.34.2-.176Zm-.719-.378.052.152c-.185.06-.273.164-.245.3a.47.47,0,0,0,.308.306l-.083-.245.019-.328.259-.2-.3.007Zm.416.769.012,0,.043-.01Zm-.159.22.346-.024-.171.014-.064.01Zm.161.23a.927.927,0,0,1-.387-.1.844.844,0,0,1-.467-.752.6.6,0,0,1,.363-.562.733.733,0,0,1,.762.18c.325.109.342.33.335.425l-.05.173-.007.029-.079.335a.52.52,0,0,1-.47.27" transform="translate(-302.029 -366.753)" fill="#005243"/>
  <path id="패스_52009" data-name="패스 52009" d="M357.421,394.554l.016.031.067-.036Zm.042.24.062-.014.029-.026Zm.333-.192-.154.344.2-.176Zm-.719-.375.05.149c-.185.064-.273.173-.244.3a.467.467,0,0,0,.306.306l-.081-.245.019-.328.259-.2-.3,0Zm.416.769.014,0,.041-.014Zm-.159.219.346-.019-.169.009-.067.01Zm.161.23a.919.919,0,0,1-.389-.1.837.837,0,0,1-.463-.752.594.594,0,0,1,.361-.56.73.73,0,0,1,.762.178c.325.112.34.335.334.425l-.05.169,0,.029-.081.339a.52.52,0,0,1-.47.27" transform="translate(-299.027 -365.785)" fill="#005243"/>
  <path id="패스_52010" data-name="패스 52010" d="M352.207,395.087l-.022,0-.078-.123a1.991,1.991,0,0,1,.187-.5l.135-.04.043.135a1.762,1.762,0,0,0-.164.453Z" transform="translate(-302.33 -365.472)" fill="#231f20"/>
  <path id="패스_52011" data-name="패스 52011" d="M352.484,395.117h-.007l-.093-.1a.621.621,0,0,1,.2-.4l.142.007-.007.142-.131.268Z" transform="translate(-302.128 -365.332)" fill="#231f20"/>
  <path id="패스_52012" data-name="패스 52012" d="M352.873,395.139l-.09-.054.018-.344.138-.034.033.142-.009.142-.046.138Z" transform="translate(-301.838 -365.262)" fill="#231f20"/>
  <path id="패스_52013" data-name="패스 52013" d="M353.284,395.061,353.19,395l-.086-.2.055-.132.132.054.087.2-.054.131Z" transform="translate(-301.604 -365.292)" fill="#231f20"/>
  <path id="패스_52014" data-name="패스 52014" d="M356.534,396.477l-.094-.064.153-.405.139.027-.025.138-.078.169-.061.128Z" transform="translate(-299.174 -364.315)" fill="#231f20"/>
  <path id="패스_52015" data-name="패스 52015" d="M356.78,396.538l-.062-.02-.019-.142.043-.169.086-.111.114.084-.083.321Z" transform="translate(-298.986 -364.251)" fill="#231f20"/>
  <path id="패스_52016" data-name="패스 52016" d="M357.147,396.434l-.1-.074-.04-.148.069-.125.125.071.04.148-.071.125Z" transform="translate(-298.76 -364.258)" fill="#231f20"/>
  <path id="패스_52017" data-name="패스 52017" d="M357.493,396.357h-.018l-.078-.064-.05-.088.094-.1.12.047.03.122Z" transform="translate(-298.514 -364.245)" fill="#231f20"/>
  <path id="패스_52018" data-name="패스 52018" d="M357.815,394.6l-.069-.028a.493.493,0,0,1-.152-.5l.121-.078.076.124.093.3.005.142Z" transform="translate(-298.346 -365.781)" fill="#231f20"/>
  <path id="패스_52019" data-name="패스 52019" d="M358,394.693l-.1-.013.026-.429.107-.094.1.1-.026.432Z" transform="translate(-298.111 -365.663)" fill="#231f20"/>
  <path id="패스_52020" data-name="패스 52020" d="M358.029,394.209l.1.017-.026.429-.107.095-.1-.1.026-.432Z" transform="translate(-298.111 -365.624)" fill="#231f20"/>
  <path id="패스_52021" data-name="패스 52021" d="M353.186,392.813l-.056-.017-.178-.334.1-.1h0l.1.1.089.172.027.138Z" transform="translate(-301.715 -366.973)" fill="#231f20"/>
  <path id="패스_52022" data-name="패스 52022" d="M353.626,393.23l-.1-.074-.1-.317-.105-.331.071-.125.125.071.1.321.1.327-.069.125Z" transform="translate(-301.445 -366.954)" fill="#231f20"/>
  <path id="패스_52023" data-name="패스 52023" d="M357.669,397.411l-.1.067-.091-.078.1-.071Z" transform="translate(-298.421 -363.352)" fill="#e48337"/>
  <path id="패스_52024" data-name="패스 52024" d="M357.61,397.446l0,.021,0-.021,0-.017Zm.005.176h-.01l-.15-.071-.038-.119.054-.107.154-.052.145.069.043.118Z" transform="translate(-298.464 -363.394)" fill="#be6d32"/>
  <path id="패스_52025" data-name="패스 52025" d="M356.123,396.749l-.1.068-.095-.078.1-.067Z" transform="translate(-299.548 -363.831)" fill="#e48337"/>
  <path id="패스_52026" data-name="패스 52026" d="M356.066,396.784h0Zm0,0,0,.021,0-.017,0-.021Zm.009.178h-.016l-.188-.188.211-.159.145.067.041.119-.057.111Z" transform="translate(-299.591 -363.872)" fill="#be6d32"/>
  <path id="패스_52027" data-name="패스 52027" d="M352.614,395.294l-.1.088-.092-.1.1-.091Z" transform="translate(-302.103 -364.911)" fill="#e48337"/>
  <path id="패스_52028" data-name="패스 52028" d="M352.557,395.328h0l.1,0Zm0,.2-.014,0-.135-.064-.052-.145.067-.135.143-.047.185.206-.066.138Z" transform="translate(-302.146 -364.952)" fill="#be6d32"/>
  <path id="패스_52029" data-name="패스 52029" d="M357.844,396.841l-.1.068-.091-.078.1-.071Z" transform="translate(-298.294 -363.767)" fill="#e48337"/>
  <path id="패스_52030" data-name="패스 52030" d="M357.787,396.876l0,.021,0-.021,0-.017Zm.007.174-.016,0-.145-.064-.041-.118.055-.112.152-.05.188.185-.054.112Z" transform="translate(-298.336 -363.809)" fill="#be6d32"/>
  <path id="패스_52031" data-name="패스 52031" d="M356.731,397.48l-.1.067-.093-.078.1-.068Z" transform="translate(-299.105 -363.299)" fill="#e48337"/>
  <path id="패스_52032" data-name="패스 52032" d="M356.674,397.515l0,.024,0-.024,0-.016Zm.005.18h-.012l-.19-.188.211-.162.187.188Z" transform="translate(-299.148 -363.342)" fill="#be6d32"/>
  <rect id="사각형_4195" data-name="사각형 4195" width="0.139" height="0.138" transform="matrix(0.751, -0.661, 0.661, 0.751, 49.15, 30.203)" fill="#e48337"/>
  <path id="패스_52033" data-name="패스 52033" d="M351.882,395.232l0,0Zm0,.2h-.012l-.188-.209.213-.19.187.209-.066.138Z" transform="translate(-302.637 -365.024)" fill="#be6d32"/>
  <path id="패스_52034" data-name="패스 52034" d="M352.248,395.722l-.1.091-.091-.1.1-.091Z" transform="translate(-302.37 -364.596)" fill="#e48337"/>
  <path id="패스_52035" data-name="패스 52035" d="M352.189,395.762h0l.1,0Zm0,.2h-.01l-.187-.206.211-.188.137.067.052.142Z" transform="translate(-302.412 -364.639)" fill="#be6d32"/>
  <path id="패스_52036" data-name="패스 52036" d="M353.359,393.236a.4.4,0,1,1-.37-.463.42.42,0,0,1,.37.463" transform="translate(-301.995 -366.67)" fill="#005243"/>
  <path id="패스_52037" data-name="패스 52037" d="M357.513,394.549a.4.4,0,1,1-.368-.467.422.422,0,0,1,.368.467" transform="translate(-298.969 -365.717)" fill="#005243"/>
  <path id="패스_52038" data-name="패스 52038" d="M360.216,391.256l-.076-.035a3.9,3.9,0,0,0-1.555-1.066l-.062-.128.13-.06a4.111,4.111,0,0,1,1.64,1.12l-.009.142Z" transform="translate(-297.658 -368.713)" fill="#231f20"/>
  <path id="패스_52039" data-name="패스 52039" d="M356.9,393.064l-.112-.052.009-.216a5.118,5.118,0,0,1,.572-.435c-.746.166-1.5.226-1.788-.259a.97.97,0,0,1,.111-.969,3.071,3.071,0,0,1,2.6-.719l.13.169-.168.131a2.762,2.762,0,0,0-2.338.629.676.676,0,0,0-.071.6c.271.463,1.446.135,2.221-.078a4.986,4.986,0,0,1,.8-.181l.062.294A5.154,5.154,0,0,0,357,393.023Z" transform="translate(-299.863 -368.411)" fill="#231f20"/>
  <path id="패스_52040" data-name="패스 52040" d="M353.1,391.974l-.1-.036-.016-.216a3.589,3.589,0,0,1,1.294-.878l.2.074-.074.2a3.39,3.39,0,0,0-1.191.8Z" transform="translate(-301.688 -368.075)" fill="#231f20"/>
  <path id="패스_52041" data-name="패스 52041" d="M359.085,400.859l-.128-.071.047-.209a3.973,3.973,0,0,0,.966-1.282l.171-.3a4.069,4.069,0,0,0,.729-1.906l.142-.162.161.142a4.259,4.259,0,0,1-.769,2.079l-.169.3a4.077,4.077,0,0,1-1.068,1.391Z" transform="translate(-297.342 -363.645)" fill="#231f20"/>
  <path id="패스_52042" data-name="패스 52042" d="M350.866,398.916l-.024,0-.074-.123c.055-.232.13-.475.2-.705a5.792,5.792,0,0,0,.311-1.407l.105-.1.1.105a5.815,5.815,0,0,1-.32,1.457c-.074.244-.145.47-.2.7Z" transform="translate(-303.305 -363.898)" fill="#231f20"/>
  <path id="패스_52043" data-name="패스 52043" d="M351.2,398.853l-.043-.01-.047-.138a3.549,3.549,0,0,0,.3-1.436l.1-.1h0l.1.1a3.726,3.726,0,0,1-.32,1.522Z" transform="translate(-303.054 -363.467)" fill="#231f20"/>
  <path id="패스_52044" data-name="패스 52044" d="M351.546,398.972h-.005l-.1-.105c.014-.309.012-.627.01-.935v-.168l.1-.1h0l.1.1v.164c0,.311.005.632-.01.949Z" transform="translate(-302.813 -363.11)" fill="#231f20"/>
  <path id="패스_52045" data-name="패스 52045" d="M362.33,393.489l-.866-.66-1.453-1.388.05-1.64.677,1.569.734-1.175.086,1.338,1.806-.5-1.3,1.31,2.067.674-2.155-.128c.947.111,1.526-.18,2.463.185" transform="translate(-296.575 -368.834)" fill="#a73825"/>
  <path id="패스_52046" data-name="패스 52046" d="M360.57,391.851l-.143-.105.1-.188c.349-.112.524-.472.705-.857a2.855,2.855,0,0,1,.37-.634l.214-.021.017.213a2.6,2.6,0,0,0-.327.574,1.663,1.663,0,0,1-.89,1.013Z" transform="translate(-296.272 -368.656)" fill="#231f20"/>
  <path id="패스_52047" data-name="패스 52047" d="M360.5,391.85l-.15-.128.126-.171a7.6,7.6,0,0,0,2.172-.689c.213-.093.436-.192.681-.294l.2.081-.081.2c-.247.1-.467.2-.676.289a7.724,7.724,0,0,1-2.252.714Z" transform="translate(-296.331 -368.275)" fill="#231f20"/>
  <path id="패스_52048" data-name="패스 52048" d="M361.132,391.565l-.143-.109.1-.185a6.422,6.422,0,0,1,2.058-.216l.168,0,.15.152-.152.15-.168,0a6.234,6.234,0,0,0-1.96.2Z" transform="translate(-295.863 -367.921)" fill="#231f20"/>
  <path id="패스_52049" data-name="패스 52049" d="M361.48,391.566s-1.016-1.707-2.243-1.673c0,0-.753.107.218.805,0,0-.235-.546-.935.48,0,0,.335.6,2.291.881a4.411,4.411,0,0,0-2.694.809s-1.567,1.813,1.927,1.331A3.436,3.436,0,0,0,361.5,393c.308-.671-.048-.1-.048-.1s.052,1.863,1.09,2.3c0,0,.954-.793.309-1.633,0,0,1.395,1.471,1.429.883a1.581,1.581,0,0,0-.2-.6,27.267,27.267,0,0,1-2.6-2.286" transform="translate(-298.209 -368.767)" fill="#a73825"/>
  <path id="패스_52050" data-name="패스 52050" d="M360.161,390.852s.909,1.13,1.445,1.211c0,0-.553.259-1.2-.411,0,0,.249.745.584.864s-.855-.442-1.1-1.192.259-.23.275-.472" transform="translate(-296.716 -368.069)" fill="#2d5496"/>
  <path id="패스_52051" data-name="패스 52051" d="M360.521,391.689a1.289,1.289,0,0,0,.738.428,5.529,5.529,0,0,1-1.056-.994h-.178l-.074-.012a2.637,2.637,0,0,0,.074.292,1.571,1.571,0,0,0,.4.584l-.073-.2Zm.57,1.052-.092-.021-.29-.23a2.381,2.381,0,0,1-.876-1.021c-.092-.275-.1-.42-.024-.5l.254-.047.04.007.014-.23.162.2c.249.306.978,1.113,1.384,1.173l.328.05-.3.142a1.024,1.024,0,0,1-.98-.15l.143.228.188.133.142.213Z" transform="translate(-296.758 -368.18)" fill="#231f20"/>
  <path id="패스_52052" data-name="패스 52052" d="M360.86,391.554l-.071-.017a7.805,7.805,0,0,0-2.827-.988l-.131-.169.168-.131a8.085,8.085,0,0,1,2.933,1.02l.064.2Z" transform="translate(-298.162 -368.509)" fill="#231f20"/>
  <path id="패스_52053" data-name="패스 52053" d="M358.769,393.969l-.228-.047-.066-.028-.022-.067a.965.965,0,0,1,.142-.793,1.612,1.612,0,0,1-1.059.261.424.424,0,0,1-.287-.3l-.01-.028,0-.026c.088-1.077,2.984-1.78,4.185-1.787h0l.15.149-.15.156c-1.331.007-3.759.75-3.881,1.476l.08.071c.351.111,1.4-.513,2.259-1.189l.188.237,0,0-.2.159c-.544.425-1.211.954-1.144,1.447.353.048.944-.536,1.471-1.056.251-.249.51-.506.755-.708l.3-.244-.05.382c-.033.27-.074.463-.112.641a5,5,0,0,0-.114.861l-.155.145-.145-.159a4.938,4.938,0,0,1,.119-.907l.04-.206-.418.411c-.6.588-1.161,1.148-1.645,1.148" transform="translate(-298.594 -367.849)" fill="#231f20"/>
  <path id="패스_52054" data-name="패스 52054" d="M362.01,398.646l-.15-.13-.033-.33a1.249,1.249,0,0,0-.2-.726l.029-.213.213.028a1.5,1.5,0,0,1,.263.89l.033.3-.128.173Z" transform="translate(-295.401 -363.412)" fill="#231f20"/>
  <path id="패스_52055" data-name="패스 52055" d="M361.832,394.135s-.017,5.407-1.142,6.562c0,0,3.8-2.691,1.142-6.562" transform="translate(-296.081 -365.678)" fill="#a73825"/>
  <path id="패스_52056" data-name="패스 52056" d="M361.834,400.131l-.074-.021-.059-.206c.938-1.671.325-3.513-.266-5.3-.149-.446-.287-.864-.4-1.282l.105-.185.187.107c.112.408.251.824.4,1.263.584,1.761,1.249,3.759.242,5.546Z" transform="translate(-295.832 -366.405)" fill="#231f20"/>
  <path id="패스_52057" data-name="패스 52057" d="M358.115,398.084a2.133,2.133,0,0,0-.595-.679c.116.757-1.023,1.536-1.792,1.638-1.032.135-2.107-1.037-2.558-1.752,0,0,1.771,4.192,4.306.978l.2-.468Z" transform="translate(-301.555 -363.38)" fill="#231f20"/>
  <path id="패스_52058" data-name="패스 52058" d="M357.333,390.141a4.181,4.181,0,0,0-3.325.266s-.233.911,3.325-.266" transform="translate(-300.948 -368.749)" fill="#a73825"/>
  <path id="패스_52059" data-name="패스 52059" d="M356.995,396.856l-.1.067-.094-.078.1-.071Z" transform="translate(-298.915 -363.756)" fill="#e48337"/>
  <path id="패스_52060" data-name="패스 52060" d="M356.939,396.874l0,.016h.005Zm0,.016,0,.017,0-.017h-.005Zm.007.176-.012,0-.19-.178.207-.166.147.067.043.118Z" transform="translate(-298.957 -363.797)" fill="#be6d32"/>
  <path id="패스_52061" data-name="패스 52061" d="M353.151,391.133l-.152-.138.14-.166.4-.031a5.072,5.072,0,0,0,2.385-.563l.211.038-.036.213a5.259,5.259,0,0,1-2.537.613l-.4.035Z" transform="translate(-301.68 -368.519)" fill="#231f20"/>
  <path id="패스_52062" data-name="패스 52062" d="M360.66,399.215l-.036,0-.111-.181a11.686,11.686,0,0,0-.527-6.261l-.012-.041.1-.192.192.093.016.045a4.369,4.369,0,0,0,1.035,1.576,4.145,4.145,0,0,0-.883-1.8l-.252-.368.045-.213.209.047.249.358a3.5,3.5,0,0,1,.921,2.269l-.076.107-.135.007a2.023,2.023,0,0,1-.726-.671,11.062,11.062,0,0,1,.143,5.113Z" transform="translate(-296.602 -367.327)" fill="#231f20"/>
  <path id="패스_52063" data-name="패스 52063" d="M359.1,399.895s-1.975.624-3.351,3.783c0,0-1.46,3.753-3.439,4,0,0-3.442,1.009-4.063.7s.446,3.658.446,3.658,5.34,0,7.413-2.774c1.339-1.8-.259-3.848,2.993-9.363" transform="translate(-305.278 -361.484)" fill="#fff"/>
  <path id="패스_52064" data-name="패스 52064" d="M348.245,408.539c-.181.152.154,1.9.569,3.467.662-.016,5.371-.216,7.255-2.737a4.3,4.3,0,0,0,.672-2.4,14.617,14.617,0,0,1,2.158-6.686,7.006,7.006,0,0,0-3.016,3.607c-.057.152-1.5,3.807-3.517,4.061-.339.1-3.484,1-4.121.684m.413,3.67-.021-.074c-.216-.807-.893-3.463-.525-3.764l.225-.014c.429.216,2.622-.3,3.992-.7,1.911-.24,3.354-3.9,3.368-3.938,1.381-3.171,3.332-3.819,3.415-3.845l.252-.081-.135.23a14.611,14.611,0,0,0-2.286,6.871,4.523,4.523,0,0,1-.712,2.5,7.749,7.749,0,0,1-4.543,2.466,15.449,15.449,0,0,1-2.952.352Z" transform="translate(-305.317 -361.56)" fill="#231f20"/>
  <path id="패스_52065" data-name="패스 52065" d="M359.515,399.055s2.266-1.189,3.992,4.35a15.8,15.8,0,0,1-.491,10.818s-1.353.952-1.547.344c0,0,.826-8.5-.726-10.047,0,0,.4,3.268.09,3.845a7.257,7.257,0,0,1-1.319-9.309" transform="translate(-297.76 -362.174)" fill="#fff"/>
  <path id="패스_52066" data-name="패스 52066" d="M361.611,414.6l.1.1c.266.088.9-.252,1.26-.5a15.791,15.791,0,0,0,.473-10.716c-.921-2.964-1.989-3.949-2.722-4.256a1.426,1.426,0,0,0-1.1-.05,7.136,7.136,0,0,0-.512,6.632,7.731,7.731,0,0,0,1.712,2.423,17.332,17.332,0,0,0-.145-3.655l-.036-.294.206.209c1.545,1.545.814,9.522.759,10.108m.2.314-.166-.024-.235-.245-.005-.021,0-.021c.007-.081.724-7.621-.484-9.683a11.583,11.583,0,0,1,.036,3.534l-.057.107-.1-.078a7.4,7.4,0,0,1-1.343-9.437l.016-.022.026-.017a1.585,1.585,0,0,1,1.289.028c.774.323,1.9,1.343,2.844,4.384a16.033,16.033,0,0,1-.449,10.783l0,0-.086.2-.047-.014a2.911,2.911,0,0,1-1.248.527" transform="translate(-297.799 -362.218)" fill="#231f20"/>
  <path id="패스_52067" data-name="패스 52067" d="M355.284,400.527s3.988.206,6.059-1.324a24.355,24.355,0,0,0-1.1,6.47c.022.456-5.526-.054-6.105-.273,0,0,.131-3.928,1.149-4.873" transform="translate(-300.853 -361.988)" fill="#fff"/>
  <path id="패스_52068" data-name="패스 52068" d="M354.281,405.438c.885.254,5.54.594,5.9.332a23.331,23.331,0,0,1,1.027-6.207c-2.022,1.289-5.393,1.194-5.843,1.177-.873.881-1.059,4.159-1.084,4.7m4.82.627a29.736,29.736,0,0,1-4.96-.454l-.067-.028,0-.074c.005-.162.147-3.983,1.18-4.944l.033-.031.043,0c.038,0,3.976.187,5.995-1.3l.249-.185-.093.3a24.25,24.25,0,0,0-1.1,6.432l-.078.149a3.028,3.028,0,0,1-1.208.138" transform="translate(-300.898 -362.1)" fill="#231f20"/>
  <path id="패스_52069" data-name="패스 52069" d="M353.815,400.461l.413.733-.244.468s-.658-.677-.5-.89a1.465,1.465,0,0,1,.327-.311" transform="translate(-301.343 -361.072)" fill="#ec1c24"/>
  <path id="패스_52070" data-name="패스 52070" d="M353.164,401.348s.368,1.194.869,1.225c0,0-.249.85-.314,1.163a3.8,3.8,0,0,1-1.068-1.424,5.388,5.388,0,0,1,.513-.964" transform="translate(-301.934 -360.426)" fill="#ec1c24"/>
  <path id="패스_52071" data-name="패스 52071" d="M352.463,402.773a6.835,6.835,0,0,0,1.49,1.975,8.765,8.765,0,0,1-.161,1.357s-1.789-1.6-1.854-2.45a9.017,9.017,0,0,0,.525-.881" transform="translate(-302.453 -359.389)" fill="#ec1c24"/>
  <path id="패스_52072" data-name="패스 52072" d="M351.631,403.973s.66,2.8,1.643,3.233a5.025,5.025,0,0,1-.829.553s-1.612-2.39-1.414-3.287a4.354,4.354,0,0,0,.6-.5" transform="translate(-303.126 -358.515)" fill="#ec1c24"/>
  <path id="패스_52073" data-name="패스 52073" d="M350.65,404.5s.124,2.8.65,3.563l-.821.133s-.8-2.454-.487-3.537Z" transform="translate(-303.923 -358.129)" fill="#ec1c24"/>
  <path id="패스_52074" data-name="패스 52074" d="M349.417,404.832s-.15,2.818.192,3.346h-.81a8.544,8.544,0,0,1-.09-3.173Z" transform="translate(-304.902 -357.89)" fill="#ec1c24"/>
  <path id="패스_52075" data-name="패스 52075" d="M354.624,400.4s4.994.406,5.819.128c0,0-.105.517-.149.679a48.547,48.547,0,0,1-5.836-.2,1.688,1.688,0,0,1,.166-.612" transform="translate(-300.618 -361.114)" fill="#ec1c24"/>
  <path id="패스_52076" data-name="패스 52076" d="M354.348,401.371s1.429.176,2.691.237c1.787.085,3.211.06,3.211.06s-.118.536-.126.686a44.743,44.743,0,0,1-5.865-.4Z" transform="translate(-300.764 -360.41)" fill="#ec1c24"/>
  <path id="패스_52077" data-name="패스 52077" d="M354.177,402.463s4.647.766,5.933.3l.036.5s-.6.546-5.955-.23Z" transform="translate(-300.823 -359.615)" fill="#ec1c24"/>
  <path id="패스_52078" data-name="패스 52078" d="M359.3,402.567a4.837,4.837,0,0,0,1.975-2.882l.37.558s-.755,2.44-1.972,2.825Z" transform="translate(-297.096 -361.638)" fill="#ec1c24"/>
  <path id="패스_52079" data-name="패스 52079" d="M359.873,403.064a5.281,5.281,0,0,0,2.193-1.993s.2.544.251.733c0,0-1.313,1.607-2.2,1.749Z" transform="translate(-296.676 -360.628)" fill="#ec1c24"/>
  <path id="패스_52080" data-name="패스 52080" d="M362.5,402.447a3.768,3.768,0,0,1-2.291,1.281s.078.512.1.688a6.184,6.184,0,0,0,2.305-1.275Z" transform="translate(-296.433 -359.626)" fill="#ec1c24"/>
  <path id="패스_52081" data-name="패스 52081" d="M360.33,404.835a5.183,5.183,0,0,0,2.419-.849,7.025,7.025,0,0,1,.022.722,4.231,4.231,0,0,1-2.43.669Z" transform="translate(-296.343 -358.506)" fill="#ec1c24"/>
  <path id="패스_52082" data-name="패스 52082" d="M360.345,405.527a4.979,4.979,0,0,0,2.354.237l-.1.952s-2.048-.1-2.259-.385Z" transform="translate(-296.336 -357.384)" fill="#ec1c24"/>
  <path id="패스_52083" data-name="패스 52083" d="M360.336,406.662s.461.634,2,.622l-.2.714s-1.446.024-1.87-.37Z" transform="translate(-296.389 -356.557)" fill="#ec1c24"/>
  <path id="패스_52084" data-name="패스 52084" d="M358.453,401.746s1.326.354,1.863.041a1.4,1.4,0,0,1,.306.641s-1.642.263-2.069-.109a3.993,3.993,0,0,1-.1-.574" transform="translate(-297.709 -360.137)" fill="#ec1c24"/>
  <path id="패스_52085" data-name="패스 52085" d="M358.678,402.66s1.253.729,1.875.007a7.723,7.723,0,0,1,.09.8,1.953,1.953,0,0,1-1.636-.031Z" transform="translate(-297.546 -359.471)" fill="#ec1c24"/>
  <path id="패스_52086" data-name="패스 52086" d="M353.7,403.589l-.055.263a.857.857,0,0,0,.664.453.317.317,0,0,0,.283-.259.6.6,0,0,0-.259-.582.471.471,0,0,0-.558.081Zm.579.921a1.072,1.072,0,0,1-.823-.581.4.4,0,0,1,.126-.5l.081-.05a.665.665,0,0,1,.776-.085.79.79,0,0,1,.349.793.512.512,0,0,1-.449.418Z" transform="translate(-301.377 -359.076)" fill="#231f20"/>
  <path id="패스_52087" data-name="패스 52087" d="M360.112,402.85l-.092-.057-.154-.346a2.31,2.31,0,0,0-.565-.928l-.021-.142.142-.021a2.474,2.474,0,0,1,.633,1.013l.147.332-.045.138Z" transform="translate(-297.107 -360.42)" fill="#231f20"/>
  <path id="패스_52088" data-name="패스 52088" d="M363.052,395.36l-.019,0-.131-.169c.128-.992-.747-1.839-1.521-2.585-.164-.159-.323-.309-.463-.454l.005-.216.216.005c.135.143.29.29.453.449.785.757,1.758,1.7,1.611,2.843Z" transform="translate(-295.915 -367.282)" fill="#231f20"/>
  <path id="패스_52089" data-name="패스 52089" d="M353.754,391.627s-5.338,5.907-.721,12.249c0,0,4.025,4.852,10.479.8,0,0-5.851,3.3-9.9-.712,0,0-4.968-4.659.14-12.333" transform="translate(-303.025 -367.504)" fill="#231f20"/>
  <path id="패스_52090" data-name="패스 52090" d="M352.153,394.538a9.039,9.039,0,0,0,1,9.306,7.47,7.47,0,0,0,8.271,1.811,11.016,11.016,0,0,1-1.286.292,7.333,7.333,0,0,1-6.556-1.887c-.041-.038-3.729-3.6-1.426-9.522m6.352,11.874a7.21,7.21,0,0,1-2.654-.5,7.46,7.46,0,0,1-2.86-1.948c-4.614-6.342.67-12.32.724-12.38l.159.124c-1.441,2.167-2.957,5.478-1.975,8.948a7.717,7.717,0,0,0,1.82,3.254c3.951,3.914,9.722.729,9.781.695l.1.176a9.525,9.525,0,0,1-5.1,1.626" transform="translate(-303.062 -367.533)" fill="#231f20"/>
  <path id="패스_52091" data-name="패스 52091" d="M356.449,390.2l-.059-.014a3.437,3.437,0,0,0-1.671-.017l-.156.021-.137-.1.1-.137.154-.019a3.492,3.492,0,0,1,1.821.04l.05.166Z" transform="translate(-300.641 -368.814)" fill="#231f20"/>
  <path id="패스_52092" data-name="패스 52092" d="M339.841,403.84l2.191-.159a2.7,2.7,0,0,1-.3,1.744c-.9,1.77-3.221,1.267-3.221,1.267a2.757,2.757,0,0,1-2.357-1.324c-.861-1.381.007-3.327.007-3.327.1-.339.221-.669.349-1l-.01-.1-1.954-.463.344-2.3,2.5.689.978-2.215,2.475.219-1.009,2.687,2.07.574-.769,1.792-2.222-.527a8.2,8.2,0,0,0-.537,1.2s-.524,1.36-.066,1.963,1.258.477,1.535-.724" transform="translate(-315.12 -363.843)" fill="#00b4e9"/>
  <path id="패스_52093" data-name="패스 52093" d="M342.905,402.233a2.131,2.131,0,0,0-.126.85c0,.124.017.287.04.489q.073.643.287,1.624l-2.623.553a9.845,9.845,0,0,1-.216-1.229l-1.04-6.7,2.186-.479.728,3.247a6.782,6.782,0,0,1,1.638-.449,2.689,2.689,0,0,1,1.142.078,3.7,3.7,0,0,1,1.379.816,1.784,1.784,0,0,1,.437.567,5.274,5.274,0,0,1,.458,1.517,9.825,9.825,0,0,1-.048,1.761l-2.245.372c-.01-.142-.031-.34-.059-.6a4.579,4.579,0,0,0-.893-2.716c-.658-.659-1.044.3-1.044.3" transform="translate(-311.709 -363.34)" fill="#00b4e9"/>
  <path id="패스_52094" data-name="패스 52094" d="M348.191,399.7a1.4,1.4,0,0,0-.536-.242,1.339,1.339,0,0,0-1.061.124,1.138,1.138,0,0,0-.5.726,2.249,2.249,0,0,0,.04.736Zm1.453,1.557,1,1.4a3.548,3.548,0,0,1-2.706,1.047,7.8,7.8,0,0,1-1.713-.169,2.8,2.8,0,0,1-1.856-1.424,1.947,1.947,0,0,1-.273-1.516,3.44,3.44,0,0,1,.48-1.141,3.039,3.039,0,0,1,1.1-.994,4.305,4.305,0,0,1,2.959-.221,3.575,3.575,0,0,1,2.079,1.261l-3.7,2.43a3.489,3.489,0,0,0,1.96-.192,3.035,3.035,0,0,0,.669-.486" transform="translate(-308.195 -362.797)" fill="#00b4e9"/>
  <path id="패스_52095" data-name="패스 52095" d="M354.827,407.326a2.6,2.6,0,1,1-2.583-2.34,2.473,2.473,0,0,1,2.583,2.34" transform="translate(-304.112 -357.778)" fill="#231f20"/>
  <path id="패스_52096" data-name="패스 52096" d="M360.662,408.148a2.6,2.6,0,1,1-2.584-2.342,2.474,2.474,0,0,1,2.584,2.342" transform="translate(-299.863 -357.18)" fill="#231f20"/>
  <path id="패스_52097" data-name="패스 52097" d="M331.834,393.413l-3.6-10.193,11.182-2.9,1.387,4.26Z" transform="translate(-319.715 -375.737)" fill="#231f20"/>
  <path id="패스_52098" data-name="패스 52098" d="M343.7,385.675l5.188-1.644,4.782,7.452,2.666-5.934,5.549,1.89-11.12,18.651-4.942-1.627,4.82-8.07Z" transform="translate(-308.449 -373.035)" fill="#00b4e9"/>
  <path id="패스_52099" data-name="패스 52099" d="M332.348,388.715l-8.946,4.792s-1.408,9.907,6.38,10.578l4.351-4.013Z" transform="translate(-323.302 -369.625)" fill="#231f20"/>
  <path id="패스_52100" data-name="패스 52100" d="M324.288,399.767l7.116-3.793.394,1.994a6.061,6.061,0,0,0,.743,1.92,3.949,3.949,0,0,0,.887,1.033c1.277.878,1.808.577,2.352.368,1.025-.4,1.407-1.087,1.478-2.4a17.31,17.31,0,0,0-.613-4.925q-.568-2.3-1.991-6.587-.824-2.481-1.242-3.874l7.946-1.965a45.811,45.811,0,0,1,2.751,8.259q1.395,5.687.928,8.837a10.12,10.12,0,0,1-2.171,4.707,13.105,13.105,0,0,1-1.91,1.866,11.217,11.217,0,0,1-4.092,2.131,12.463,12.463,0,0,1-7.526.283q-3.8-1.211-4.574-4.362a25.975,25.975,0,0,1-.475-3.5" transform="translate(-322.585 -374.848)" fill="#00b4e9"/>
  <path id="패스_52101" data-name="패스 52101" d="M366.2,402.707l6.664,1.809-9.4,16.775-8.019-1.991,9.166-14.007Z" transform="translate(-299.899 -359.437)" fill="#231f20"/>
  <path id="패스_52102" data-name="패스 52102" d="M334.521,401.81l-9.575-1.094-1.075,6.96,9.557,1.245Z" transform="translate(-322.888 -360.886)" fill="#231f20"/>
  <path id="패스_52103" data-name="패스 52103" d="M329.377,405.366l-1.386-.587-1.766,13.609,8.817,1.114.968-7.057Z" transform="translate(-321.174 -357.928)" fill="#231f20"/>
  <path id="패스_52104" data-name="패스 52104" d="M335.574,406.75l-1.016,12.715-.9-.105c-1.154-.188-1.491-.125-2.5-.309a17.956,17.956,0,0,1-1.991-.368l1.721-12.563-5.831-.857.556-3.4,15.048,1.486-.289,3.814Z" transform="translate(-322.025 -360.052)" fill="#00b4e9"/>
  <path id="패스_52105" data-name="패스 52105" d="M374.843,403.442l-2.274-.472-1.5,2.768-2.644-3.1-7.244,1.725,1.84,2.3a5.99,5.99,0,0,0-4.764,1.218s-1.545-2.981-4.631-3.038a7.842,7.842,0,0,0-2.824.27l-.586-2.663-3.515,2.238,3.088,8.2,3.729.375,5.112.534,9.318.475Z" transform="translate(-306.268 -359.626)" fill="#231f20"/>
  <path id="패스_52106" data-name="패스 52106" d="M356.465,404.434l4.3-1.067,3.423,4.192,1.937-3.73,4.1,1.1-8.117,14.186-5.027-1.242,4.624-6.9Z" transform="translate(-299.157 -358.956)" fill="#00b4e9"/>
  <path id="패스_52107" data-name="패스 52107" d="M350.883,410.114a1.833,1.833,0,0,0,.13.719,1.1,1.1,0,0,0,.814.525,3.317,3.317,0,0,0,1.446.091A2,2,0,0,0,355,410.043a2.657,2.657,0,0,0,.133-.925,1.031,1.031,0,0,0-.322-.643,1.922,1.922,0,0,0-1.541-.461,2.571,2.571,0,0,0-1.984,1.113,2.179,2.179,0,0,0-.4.987m.954,4.877.252,1.246-4.061.911L345.692,403.8l3.541-1.842,1.13,5.727a6.993,6.993,0,0,1,1.941-.677,7.646,7.646,0,0,1,2.869.064,2.793,2.793,0,0,1,2.333,2.478,4,4,0,0,1-.074,1.835,6.39,6.39,0,0,1-.391,1.13,4.532,4.532,0,0,1-2.976,2.367,3.7,3.7,0,0,1-2.228.107" transform="translate(-307.001 -359.982)" fill="#00b4e9"/>
  <path id="패스_52108" data-name="패스 52108" d="M331.446,411.32s1.878,3.76,7.922.942l-1.208-2.687-5.507-.4-1.071,1.208Z" transform="translate(-317.373 -354.728)" fill="#231f20"/>
  <path id="패스_52109" data-name="패스 52109" d="M337.57,406.752a3.31,3.31,0,0,0-1.671.736,1.783,1.783,0,0,0-.845,1.64,1.248,1.248,0,0,0,.828.956,2.562,2.562,0,0,0,1.44.209A1.957,1.957,0,0,0,339,408.807s.56-2.025-1.429-2.055m2.82-.382a3.437,3.437,0,0,1,1.04,2.16,4.942,4.942,0,0,1-.128,1.961,2.893,2.893,0,0,1-.325.747,6.424,6.424,0,0,1-4.719,3.245,4.407,4.407,0,0,1-2.644-.347,3.8,3.8,0,0,1-2.089-3.149,3.661,3.661,0,0,1,.85-3,6.74,6.74,0,0,1,4.2-2.468,6.128,6.128,0,0,1,1.332-.035,4.068,4.068,0,0,1,2.485.881" transform="translate(-317.344 -357.427)" fill="#00b4e9"/>
  <path id="패스_52110" data-name="패스 52110" d="M345.493,389.267a4.886,4.886,0,0,0-2.31,1.374,2.631,2.631,0,0,0-.94,2.547,1.832,1.832,0,0,0,1.382,1.249,3.751,3.751,0,0,0,2.143.047,2.874,2.874,0,0,0,2.188-2.473s.451-3.059-2.463-2.744m4.054-1.07a5.094,5.094,0,0,1,1.911,2.972,7.24,7.24,0,0,1,.169,2.886,4.328,4.328,0,0,1-.342,1.154,9.474,9.474,0,0,1-6.311,5.6,6.531,6.531,0,0,1-3.93-.031,5.6,5.6,0,0,1-3.626-4.232,5.388,5.388,0,0,1,.707-4.533,9.933,9.933,0,0,1,5.689-4.363,8.9,8.9,0,0,1,1.941-.289,6,6,0,0,1,3.792.838" transform="translate(-313.175 -370.619)" fill="#00b4e9"/>
  <path id="패스_52111" data-name="패스 52111" d="M358.265,406.85a3.325,3.325,0,0,0-1.671.736,1.779,1.779,0,0,0-.843,1.64,1.246,1.246,0,0,0,.826.956,2.6,2.6,0,0,0,1.44.212,1.967,1.967,0,0,0,1.68-1.488s.56-2.025-1.431-2.056m2.82-.38a3.429,3.429,0,0,1,1.04,2.164,4.9,4.9,0,0,1-.126,1.958,2.947,2.947,0,0,1-.325.745,6.443,6.443,0,0,1-4.718,3.251,4.454,4.454,0,0,1-2.647-.351,3.812,3.812,0,0,1-2.089-3.149,3.667,3.667,0,0,1,.852-3,6.729,6.729,0,0,1,4.2-2.466,6.127,6.127,0,0,1,1.332-.035,4.067,4.067,0,0,1,2.485.881" transform="translate(-302.276 -357.354)" fill="#00b4e9"/>
  <path id="패스_52112" data-name="패스 52112" d="M347.249,408.573s-.689.819-.378,5.984l-3.5-.176c.043-.23.083-.563.124-1,.185-1.82.292-3.423-.384-4.655-.278-.5-.79-.138-.79-.138-.415.289-.56,1.654-.56,1.654-.035.2-.071.456-.1.767-.073.708-.112,1.612-.118,2.723l-4.127-.021.351-8.431,3.679-.111-.076.881a3.685,3.685,0,0,1,2.226-.5,3.24,3.24,0,0,1,1.813.83,6.3,6.3,0,0,1,4.687,0,5.153,5.153,0,0,1,1.433,1.2,5.02,5.02,0,0,1,.925,2.029,9.532,9.532,0,0,1,.18,2.623,16.3,16.3,0,0,1-.612,2.692l-3.482-.174c.024-.233.033-.418.055-.857a12.669,12.669,0,0,0-.429-4.713c-.39-1.279-.921-.61-.921-.61" transform="translate(-313.023 -357.644)" fill="#00b4e9"/>
</svg>
