<svg id="그룹_7221" data-name="그룹 7221" xmlns="http://www.w3.org/2000/svg" width="105.438" height="44.206" viewBox="0 0 105.438 44.206">
  <path id="패스_51934" data-name="패스 51934" d="M636.3,415.018a5.464,5.464,0,0,0-1.189-3.048,4.077,4.077,0,0,0-1.075-.931,4.438,4.438,0,0,0-1.633-.567,7.263,7.263,0,0,0-1.144-.074,8.881,8.881,0,0,0-4.474,1.356l-.143.085-.133.1a11.926,11.926,0,0,0-1.737,1.633l-.15-.168a10.017,10.017,0,0,0-2.214-1.844,7.966,7.966,0,0,0-2.965-1.08,10.115,10.115,0,0,0-1.474-.118,7.853,7.853,0,0,0-1.624.164,10.307,10.307,0,0,0-1.977.622,8.782,8.782,0,0,0-3.029,2.19,10.164,10.164,0,0,0-1.512-1.346,8.961,8.961,0,0,0,2.024-2.086,19.52,19.52,0,0,0,1.837-3.273l.012-.028.017-.038q1.594-3.683,2.386-5.554c.918-2.184,1.571-3.888,2-5.25a16.642,16.642,0,0,0,.788-4.049c.012-.258.017-.51.012-.764a4.749,4.749,0,0,0-1.173-3.036,5.488,5.488,0,0,0-2.336-1.536,7.534,7.534,0,0,0-2.228-.442,8.1,8.1,0,0,0-1.12.017,7.907,7.907,0,0,0-2.895.709,5.224,5.224,0,0,0-1.011.641,4.791,4.791,0,0,0-.951-.477,6.307,6.307,0,0,0-1.885-.366,9.858,9.858,0,0,0-1.258.022,10.006,10.006,0,0,0-3.055.729l-.035.014-.038.017a6.178,6.178,0,0,0-2.025,1.353,4.779,4.779,0,0,0-.892,1.279,4.544,4.544,0,0,0-.422,1.685,4.335,4.335,0,0,0,.009.591c.015.188.033.377.055.563-.235-.021-.472-.038-.712-.05a11.971,11.971,0,0,0-5.193.876,12.783,12.783,0,0,0-.216-1.809,7.431,7.431,0,0,0-.56-1.733,5.426,5.426,0,0,0-.84-1.28,8.335,8.335,0,0,0-2.955-2.6,13.492,13.492,0,0,0-4.23-1.357,18.1,18.1,0,0,0-2.062-.23,12.269,12.269,0,0,0-3.233.237,8.324,8.324,0,0,0-2.995,1.293,5.784,5.784,0,0,0-1.548,1.583l-.23.392a6.808,6.808,0,0,0-.743-1.27,5.941,5.941,0,0,0-4.18-2.558,14.775,14.775,0,0,0-1.935-.088,19.713,19.713,0,0,0-4.676.676,17.4,17.4,0,0,0-4.4,1.661,8.441,8.441,0,0,0-1.8,1.353,6.292,6.292,0,0,0-1.381,2.039,9.348,9.348,0,0,0-.627,3.074,30.73,30.73,0,0,0,1.174,8.542,44.044,44.044,0,0,0,1.726,5.573,13.084,13.084,0,0,0,2.119,3.729,8.255,8.255,0,0,0-1.782.8c-.149.092-.294.185-.434.28a4.148,4.148,0,0,0-.968-.8,4.45,4.45,0,0,0-1.633-.567,7.287,7.287,0,0,0-1.144-.074,8.892,8.892,0,0,0-4.476,1.356l-.143.085-.131.1c-.266.206-.519.418-.766.641a6.949,6.949,0,0,0-1.208-1.044l-.045-.036-.048-.028a9.262,9.262,0,0,0-4.941-1.64h-.651a9.081,9.081,0,0,0-5.5,2.043l-.1.078-.1.093a10.6,10.6,0,0,0-2.329,3.041,8.117,8.117,0,0,0-.864,3.639v.631a9.091,9.091,0,0,0,2.039,5.5l.081.1.092.1a10.648,10.648,0,0,0,3.043,2.328,8.117,8.117,0,0,0,3.617.864h.67a9.584,9.584,0,0,0,2.978-.589l.173-.059.161-.081c.434-.216.833-.432,1.206-.66a5.2,5.2,0,0,0,.881.741,4.536,4.536,0,0,0,2.47.722h.009a4.895,4.895,0,0,0,3.152-1.151,4.508,4.508,0,0,0,1.025-1.222,4.446,4.446,0,0,0,.778.938,5.414,5.414,0,0,0,1.28.874,4.506,4.506,0,0,0,2.02.479,4.917,4.917,0,0,0,1.723-.32,8.033,8.033,0,0,0,2.246.327h.617a7.931,7.931,0,0,0,3.912-1.046,9.265,9.265,0,0,0,1.279-.885,4.858,4.858,0,0,0,1.116,1.1,4.573,4.573,0,0,0,2.672.829,5.072,5.072,0,0,0,3.092-1.042,4.492,4.492,0,0,0,1.151-1.306l.242.371a4.82,4.82,0,0,0,1.821,1.505,5.113,5.113,0,0,0,2.2.506,4.651,4.651,0,0,0,.994-.105,4.739,4.739,0,0,0,1.8-.833,4.965,4.965,0,0,0,1.248-1.35l.076-.123a4.348,4.348,0,0,0,1.882,1.844,5.015,5.015,0,0,0,2.288.543c.171,0,.345-.01.522-.023a4.917,4.917,0,0,0,2.117-.75,4.592,4.592,0,0,0,2.57.762A5.077,5.077,0,0,0,595.2,427.2a4.468,4.468,0,0,0,1.151-1.306l.242.371a4.818,4.818,0,0,0,1.821,1.505,5.113,5.113,0,0,0,2.2.506,4.639,4.639,0,0,0,.994-.105,4.74,4.74,0,0,0,1.8-.833,5.049,5.049,0,0,0,1.249-1.35l.074-.123a4.343,4.343,0,0,0,1.88,1.844,5.021,5.021,0,0,0,2.29.543c.173,0,.346-.01.52-.023a4.9,4.9,0,0,0,3.135-1.617l.1-.124a8.794,8.794,0,0,0,1.059.712,7.909,7.909,0,0,0,3.909,1.046h.617a8.151,8.151,0,0,0,2.246-.323,5,5,0,0,0,1.723.316,4.532,4.532,0,0,0,2.02-.475c.164-.085.33-.178.5-.283l.169.118a4.53,4.53,0,0,0,2.468.722h.009a4.9,4.9,0,0,0,3.154-1.151,4.547,4.547,0,0,0,1.137-1.431,4.332,4.332,0,0,0,.465-1.958v-3.669l.024-.3c.11-.023.242-.05.4-.086a5.492,5.492,0,0,0,.923-.283,4.674,4.674,0,0,0,2.309-2.022,4.164,4.164,0,0,0,.529-2.018v-.328Z" transform="translate(-530.875 -384.116)" fill="#1c161d"/>
  <path id="패스_51935" data-name="패스 51935" d="M558.363,400.855h.591a6.074,6.074,0,0,1,3.909,1.581,6.112,6.112,0,0,1,3.94-1.581h.56a6.217,6.217,0,0,1,5.974,5.976c0,1.434.043,2.872.028,4.31a2.014,2.014,0,0,1-.468,1.531,2.219,2.219,0,0,1-1.415.736,2.061,2.061,0,0,1-2.12-1.016,4.022,4.022,0,0,1-.256-1.761v-3.75a2.1,2.1,0,0,0-3.15-1.522,2.366,2.366,0,0,0-.921,1.363l-.054,1.1v3.776a1.909,1.909,0,0,1-.835,1.438,2.034,2.034,0,0,1-.776.368,2.226,2.226,0,0,1-2.6-1.512,7.434,7.434,0,0,1-.05-1.258v-3.75a2.119,2.119,0,0,0-3.071-1.576,2.265,2.265,0,0,0-1.026,1.248,8.751,8.751,0,0,0-.029,1.267v3.776c0,1.547-2.143,2.305-3.3,1.483a1.959,1.959,0,0,1-.88-1.476c0-1.593,0-3.183,0-4.771a6.178,6.178,0,0,1,5.945-5.976" transform="translate(-515.192 -371.929)" fill="#ffca05"/>
  <path id="패스_51936" data-name="패스 51936" d="M538.651,400.527h.653a6.712,6.712,0,0,1,3.52,1.225c.831.581,1.244,1.148,1.244,1.706v.273a1.748,1.748,0,0,1-.472.968,1.926,1.926,0,0,1-1.071.416A2.331,2.331,0,0,1,541,404.3a3.174,3.174,0,0,0-1.877-.651h-.32a3.342,3.342,0,0,0-3.041,2.133,3.3,3.3,0,0,0-.24,1.147v.318a3.346,3.346,0,0,0,2.117,3.045,3.433,3.433,0,0,0,1.165.235h.32a2.971,2.971,0,0,0,1.8-.61v-.814h-2.471a1.539,1.539,0,0,1-1.322-1.208,1.575,1.575,0,0,1,.748-1.694,2.159,2.159,0,0,1,1.2-.237h3.007c1.04,0,1.688.372,1.937,1.123l.04.277v3.46q0,1.068-2.629,2.373a7.23,7.23,0,0,1-2.136.456h-.653a6.532,6.532,0,0,1-6.247-6.247v-.634a6.542,6.542,0,0,1,6.247-6.249" transform="translate(-529.762 -372.168)" fill="#ffca05"/>
  <path id="패스_51937" data-name="패스 51937" d="M591.471,400.855a2.111,2.111,0,0,1,1.8.591,2.823,2.823,0,0,1,.617,1.766,1.676,1.676,0,0,1-.7,1.31c-.7.56-1.637.434-2.4.843-.37.2-.935.684-.973,1.141l-.107,1.313v3.776a2.085,2.085,0,0,1-3.15,1.6,2.377,2.377,0,0,1-.937-1.286,4.5,4.5,0,0,1-.092-1.32v-3.759a6.175,6.175,0,0,1,5.946-5.976" transform="translate(-491.088 -371.929)" fill="#ffca05"/>
  <path id="패스_51938" data-name="패스 51938" d="M545.709,400.855a2.111,2.111,0,0,1,1.8.591,2.811,2.811,0,0,1,.615,1.766,1.679,1.679,0,0,1-.7,1.31c-.7.56-1.637.434-2.4.843-.37.2-.933.684-.973,1.141l-.106,1.313v3.776a2.086,2.086,0,0,1-3.152,1.6,2.378,2.378,0,0,1-.937-1.286,4.5,4.5,0,0,1-.09-1.32v-3.759a6.175,6.175,0,0,1,5.946-5.976" transform="translate(-524.408 -371.929)" fill="#ffca05"/>
  <path id="패스_51939" data-name="패스 51939" d="M571.094,400.855h.589a6.067,6.067,0,0,1,3.909,1.581,6.114,6.114,0,0,1,3.938-1.581h.563a6.222,6.222,0,0,1,5.974,5.976c0,1.434.04,2.872.026,4.31a2.013,2.013,0,0,1-.468,1.531,2.218,2.218,0,0,1-1.415.736,2.063,2.063,0,0,1-2.122-1.016,4.047,4.047,0,0,1-.252-1.761v-3.75a2.105,2.105,0,0,0-3.154-1.522,2.373,2.373,0,0,0-.921,1.363l-.05,1.1v3.776a1.916,1.916,0,0,1-.836,1.438,2.019,2.019,0,0,1-.781.368,2.226,2.226,0,0,1-2.592-1.512,8.267,8.267,0,0,1-.05-1.258v-3.75a2.117,2.117,0,0,0-3.069-1.576,2.259,2.259,0,0,0-1.027,1.248,8.56,8.56,0,0,0-.031,1.267v3.776c0,1.547-2.144,2.305-3.3,1.483a1.964,1.964,0,0,1-.88-1.476q0-2.39,0-4.771a6.177,6.177,0,0,1,5.948-5.976" transform="translate(-505.924 -371.929)" fill="#ffca05"/>
  <path id="패스_51940" data-name="패스 51940" d="M557.059,406.845a6.2,6.2,0,0,0-3.707-5.438,7.745,7.745,0,0,0-1.467-.463,6.009,6.009,0,0,0-2.181-.019,6.2,6.2,0,0,0-3.612,2.089c-.206.223-.4.454-.581.695a6.145,6.145,0,0,0-1.02,3.137v4.764a1.907,1.907,0,0,0,1.22,1.618,2.346,2.346,0,0,0,2.4-.358,5.671,5.671,0,0,0,2.411.563h.589a6.216,6.216,0,0,0,4.956-2.815,6.3,6.3,0,0,0,.994-3.162Z" transform="translate(-520.96 -371.943)" fill="#fff"/>
  <path id="패스_51941" data-name="패스 51941" d="M577.649,406.845a6.2,6.2,0,0,1,3.707-5.438,7.721,7.721,0,0,1,1.465-.463,6.008,6.008,0,0,1,2.181-.019,6.2,6.2,0,0,1,3.612,2.089q.306.334.581.695a6.14,6.14,0,0,1,1.018,3.137v4.764a1.9,1.9,0,0,1-1.22,1.618,2.347,2.347,0,0,1-2.4-.358,5.67,5.67,0,0,1-2.409.563H583.6a6.216,6.216,0,0,1-4.956-2.815,6.3,6.3,0,0,1-.992-3.162Z" transform="translate(-496.819 -371.943)" fill="#fff"/>
  <path id="패스_51942" data-name="패스 51942" d="M548.847,403.23a2.283,2.283,0,0,0-1.947,1.083l1.947,1.213-1.871,1.325a2.295,2.295,0,1,0,1.871-3.622" transform="translate(-519.207 -370.199)" fill="#1c161d"/>
  <path id="패스_51943" data-name="패스 51943" d="M582.274,407.826a2.3,2.3,0,0,0,1.975-1.03l-1.915-1.265,1.906-1.277a2.3,2.3,0,1,0-1.967,3.572" transform="translate(-495.079 -370.197)" fill="#1c161d"/>
  <path id="패스_51944" data-name="패스 51944" d="M545.883,389.712q.785-1.908,5.276-3.031a14.756,14.756,0,0,1,4.63-.522,3.738,3.738,0,0,1,1.272.216,2.816,2.816,0,0,1,1.854,2.048,1.81,1.81,0,0,1-.335,1.63,1.055,1.055,0,0,1-.57.3,9.85,9.85,0,0,1-1.58.187,10.378,10.378,0,0,0-1.674.209,3.88,3.88,0,0,0-1.875,1.013,1.974,1.974,0,0,0-.548,1.944,1.424,1.424,0,0,0,1,1.17,6.067,6.067,0,0,0,2.908-.114c.626-.116,1.251-.223,1.88-.315a1.832,1.832,0,0,1,1.434.1,2.234,2.234,0,0,1,.807,1.343,1.577,1.577,0,0,1-.138,1.263,2.5,2.5,0,0,1-1.45.652l-.786.2c-.731.181-1.006.252-.823.206a5.828,5.828,0,0,0-1.871.759c-1,.69-.728,1.685.1,2.4a4.266,4.266,0,0,0,2.772.864,11.206,11.206,0,0,0,2.229-.188c.368-.064.734-.145,1.1-.23.615-.149,1.063-.358,1.635.04a2.893,2.893,0,0,1-.014,4.291,14.054,14.054,0,0,1-5.122,2.086q-5.98,1.488-8.136-.807-1.667-1.781-3.252-8.12-1.76-7.043-.722-9.593" transform="translate(-520.228 -382.649)" fill="#fff"/>
  <path id="패스_51945" data-name="패스 51945" d="M558.625,387.035c1.286-.909,3.218-1.146,5.793-.726a9.9,9.9,0,0,1,3.342,1.092,5.252,5.252,0,0,1,1.113.845,4.35,4.35,0,0,1,1.31,2.146,11.83,11.83,0,0,1,.2,3.085,36.363,36.363,0,0,1-.487,4.82,30.4,30.4,0,0,1-.743,3.473,12.352,12.352,0,0,1-.427,1.265,3.777,3.777,0,0,1-.957,1.668,2.285,2.285,0,0,1-1.828.3q-1.441-.238-1.49-1.137a7.314,7.314,0,0,1-2.976.1,7.712,7.712,0,0,1-4.991-2.613,6.642,6.642,0,0,1-.681-4.331,4.01,4.01,0,0,1,1.668-2.855,5.22,5.22,0,0,1,3.862-.871,11.6,11.6,0,0,1,3.453,1.438c.69.111,1.1-.223,1.225-1a2.386,2.386,0,0,0-.256-1.509,2.516,2.516,0,0,0-1.044-1.111,5.765,5.765,0,0,0-1.745-.591,5.171,5.171,0,0,0-2.158.2,5.3,5.3,0,0,1-1.64.287,1.583,1.583,0,0,1-1.329-1,3.222,3.222,0,0,1-.154-1.542,2.1,2.1,0,0,1,.937-1.434m1.453,11.191a1,1,0,0,0,.23.959,2.731,2.731,0,0,0,.916.375,3.219,3.219,0,0,0,1.412.093,1.026,1.026,0,0,0,.926-.88q.2-1.2-1.687-1.787a1.229,1.229,0,0,0-1.184.138,1.624,1.624,0,0,0-.614,1.1" transform="translate(-512.797 -382.665)" fill="#fff"/>
  <path id="패스_51946" data-name="패스 51946" d="M572.976,395.34a1.9,1.9,0,0,0-1.052.173.918.918,0,0,0-.512.864q-.013,1.058,3.238,2.164a5.51,5.51,0,0,1,2.514,1.505,3.762,3.762,0,0,1,.7,2.808,4.051,4.051,0,0,1-3.354,3.838,11.742,11.742,0,0,1-3.935.235,12.482,12.482,0,0,1-3.586-.819,7.2,7.2,0,0,1-2.143-1.3,2.2,2.2,0,0,1-.638-.74,2,2,0,0,1-.038-.918,4.763,4.763,0,0,1,.233-1.1,1.693,1.693,0,0,1,1.816-1.249,5.1,5.1,0,0,1,1.8.8,4.951,4.951,0,0,0,1.847.8c.358.031,1.1-.074,1.2-.513.069-.316-.259-.664-.5-.812a5.976,5.976,0,0,0-1.851-.639,4.4,4.4,0,0,1-2.633-1.619,3.552,3.552,0,0,1-.793-2.578,5.113,5.113,0,0,1,2.749-4.047,8.093,8.093,0,0,1,4.915-1.144c1.714.145,5.317.964,5.328,3.23a2.356,2.356,0,0,1-1.968,2.1c-1.13.2-2.167-.952-3.328-1.047" transform="translate(-506.659 -379.084)" fill="#fff"/>
  <path id="패스_51947" data-name="패스 51947" d="M571.551,389.283c-.045-.567.373-1.039,1.244-1.417a6.55,6.55,0,0,1,2.037-.486q2.118-.163,2.331.836.337,1.488.643,2.62.423,1.563,1.376,1.683c.657-.05,1.056-.641,1.185-1.778.047-.615.135-1.529.263-2.758.135-.655.918-1.032,2.345-1.144a4.5,4.5,0,0,1,1.925.237c.777.277,1.17.726,1.184,1.353a12.114,12.114,0,0,1-.655,3.753q-.555,1.781-1.911,5.008-.8,1.89-2.419,5.63-2.04,4.471-4.025,4.51a3.978,3.978,0,0,1-2.8-.807,1.7,1.7,0,0,1-.691-1.077q-.093-1.268,2-4.932a13.63,13.63,0,0,0,1.464-2.9l-.123-.154a6.684,6.684,0,0,1-4.071-3.721,11.787,11.787,0,0,1-1.307-4.455" transform="translate(-501.261 -382.146)" fill="#fff"/>
</svg>
