<svg xmlns="http://www.w3.org/2000/svg" width="76.467" height="67.698" viewBox="0 0 76.467 67.698">
  <g id="그룹_7211" data-name="그룹 7211" transform="translate(0 0.001)">
    <path id="패스_51793" data-name="패스 51793" d="M679.623,200.327v67.7h76.467v-67.7Z" transform="translate(-679.623 -200.327)" fill="#f89c1c"/>
    <rect id="사각형_4188" data-name="사각형 4188" width="73.507" height="49.968" transform="translate(1.478 16.253)" fill="#fff"/>
    <path id="패스_51794" data-name="패스 51794" d="M702.318,229.212a3.91,3.91,0,0,1-.121,1.027,11.541,11.541,0,0,1-.435,1.208l-4.448,11.437a1.327,1.327,0,0,1-.522.292,2.516,2.516,0,0,1-.684.09,3.083,3.083,0,0,1-.581-.047,5.782,5.782,0,0,1-.581-.156l-2.836-6.546-2.349,6.321a2.285,2.285,0,0,1-3.014-.313l-4.579-14.742h3.463l4.016,12.8.227-.09,1.816-5.347-1.928-7.363h3.454l3.945,12.89h.133l.2-.1,4.035-10.382a1.187,1.187,0,0,0,.119-.489,1.645,1.645,0,0,0-.826-1.341,3.221,3.221,0,0,0-1.9-.579,4.335,4.335,0,0,0-2.233.591,1.506,1.506,0,0,0-.624,2.423,1.52,1.52,0,0,1,.6-1.427,2.684,2.684,0,0,1,1.789-.6,2.14,2.14,0,0,1,1.407.48,1.388,1.388,0,0,1,.581,1.084,1.553,1.553,0,0,1-.536,1.229,2.616,2.616,0,0,1-1.808.562,3.836,3.836,0,0,1-2.3-.607,1.616,1.616,0,0,1-.714-1.585,2.283,2.283,0,0,1,1.158-1.877,4.767,4.767,0,0,1,4.994-.19q1.084.612,1.083,1.351" transform="translate(-677.77 -180.727)" fill="#2a2a85"/>
    <path id="패스_51795" data-name="패스 51795" d="M701.433,239.482v-9.145a.876.876,0,0,0-.613-.785,3.483,3.483,0,0,0-1.474-.285,3.7,3.7,0,0,0-1.547.3.937.937,0,0,0-.65.864v8.965q0,.477.66.738a4.343,4.343,0,0,0,1.6.261,3.993,3.993,0,0,0,1.452-.226c.382-.152.57-.38.57-.683m3.871-4.424A5.408,5.408,0,0,1,703.589,239a5.749,5.749,0,0,1-4.222,1.709,5.7,5.7,0,0,1-5.734-5.653,6.692,6.692,0,0,1,1.317-4.172,5.243,5.243,0,0,1,4.417-2.075,5.5,5.5,0,0,1,4.355,1.961,6.326,6.326,0,0,1,1.583,4.286" transform="translate(-669.422 -179.587)" fill="#2a2a85"/>
    <path id="패스_51796" data-name="패스 51796" d="M711.138,231.964a2.4,2.4,0,0,1-.831,1.766,2.892,2.892,0,0,1-2.065.788h-.385a1.94,1.94,0,0,1-1.517-.62,1.711,1.711,0,0,1-.492-1.343,1.664,1.664,0,0,1,.574-1.049,1.9,1.9,0,0,1,1.274-.41,2.067,2.067,0,0,1,1.063.342c.37.23.572.465.6.707a1.007,1.007,0,0,1-.408.911,1.675,1.675,0,0,1-1.161.434,1.472,1.472,0,0,1-.831-.218,1.781,1.781,0,0,1-.562-.6l-.022.226a1.03,1.03,0,0,0,.515.857,2.029,2.029,0,0,0,1.173.351,2.673,2.673,0,0,0,1.789-.626,1.876,1.876,0,0,0,.741-1.469,1.431,1.431,0,0,0-.786-1.175,3.013,3.013,0,0,0-1.676-.513,5.534,5.534,0,0,0-2.461.56,1.686,1.686,0,0,0-1.142,1.49v9.213h-3.168V230.139h3.168v.845a11.62,11.62,0,0,1,1.552-.752,5.3,5.3,0,0,1,1.8-.32,4.381,4.381,0,0,1,2.257.591,1.705,1.705,0,0,1,1,1.46" transform="translate(-663.799 -178.785)" fill="#2a2a85"/>
    <path id="패스_51797" data-name="패스 51797" d="M715.652,240.529v-8.822c0-.183-.259-.349-.776-.5a5.949,5.949,0,0,0-1.687-.228,3.565,3.565,0,0,0-1.369.228.74.74,0,0,0-.546.683v9.484a.616.616,0,0,0,.33.558,1.665,1.665,0,0,0,.854.194,4.907,4.907,0,0,0,2.1-.513q1.1-.513,1.1-1.082m2.689,1.868h-2.689v-.569a4.56,4.56,0,0,1-1.255.536,5.8,5.8,0,0,1-1.436.171,5.532,5.532,0,0,1-3.988-1.483,4.91,4.91,0,0,1-1.55-3.715,8.329,8.329,0,0,1,1.253-4.628,4.833,4.833,0,0,1,4.286-2.347,5.393,5.393,0,0,1,1.345.159,6.971,6.971,0,0,1,1.346.524v-5.051h2.689Z" transform="translate(-659.382 -181.638)" fill="#2a2a85"/>
    <path id="패스_51798" data-name="패스 51798" d="M725.853,237.522a4.208,4.208,0,0,1-1.55,3.334,6.65,6.65,0,0,1-4.491,1.45,7.019,7.019,0,0,1-3.579-.9,2.792,2.792,0,0,1-1.666-2.39,2.365,2.365,0,0,1,.935-1.8,3.277,3.277,0,0,1,2.216-.809,3.6,3.6,0,0,1,2.017.577,1.682,1.682,0,0,1,.876,1.4,1.884,1.884,0,0,1-.719,1.365,2.39,2.39,0,0,1-1.673.664,2.044,2.044,0,0,1-1.46-.349,1.179,1.179,0,0,1-.161-1.994,1.989,1.989,0,0,1,1.367-.506,2.318,2.318,0,0,1,1.256.327,1,1,0,0,1,.522.881v.313a.765.765,0,0,0,.252-.7,1.6,1.6,0,0,0-.833-1.109,2.585,2.585,0,0,0-1.377-.534,2.723,2.723,0,0,0-1.892.639,2,2,0,0,0-.707,1.536,2.511,2.511,0,0,0,1.379,2.112,5.763,5.763,0,0,0,3.178.883,5.416,5.416,0,0,0,3.069-.786,1.95,1.95,0,0,0,1.056-1.865,2.067,2.067,0,0,0-.693-1.484,5.341,5.341,0,0,0-1.771-1.12l-4.37-1.823a1.676,1.676,0,0,1-1.234-1.571,2.972,2.972,0,0,1,1.54-2.5,6.24,6.24,0,0,1,3.546-1.027,5.593,5.593,0,0,1,2.656.579,1.836,1.836,0,0,1,1.082,1.692,1.5,1.5,0,0,1-.308.809,1.009,1.009,0,0,1-.833.327,2.187,2.187,0,0,1-1.13-.278,1.182,1.182,0,0,1-.581-.76,1.065,1.065,0,0,1,.353-.81,1.294,1.294,0,0,1,.9-.325,3.04,3.04,0,0,1,.568.1,1.732,1.732,0,0,0-.923-.714,4.227,4.227,0,0,0-1.446-.228,6.425,6.425,0,0,0-2.578.482c-.743.323-1.116.724-1.116,1.208a.653.653,0,0,0,.41.726l6.429,2.68a2.254,2.254,0,0,1,1.118.942,2.664,2.664,0,0,1,.365,1.353" transform="translate(-654.18 -178.908)" fill="#2a2a85"/>
    <path id="패스_51799" data-name="패스 51799" d="M683.625,207.28h.415c.522,0,.833-.268.833-.683,0-.432-.289-.657-.771-.657a2.081,2.081,0,0,0-.477.035Zm-1.039-2.039a7.989,7.989,0,0,1,1.4-.105,2.289,2.289,0,0,1,1.5.38,1.2,1.2,0,0,1,.434,1,1.259,1.259,0,0,1-.819,1.165v.022a1.182,1.182,0,0,1,.619.881c.145.544.282,1.166.373,1.35h-1.075a6.434,6.434,0,0,1-.318-1.109c-.131-.6-.33-.755-.764-.762h-.311v1.872h-1.039Z" transform="translate(-677.465 -196.826)" fill="#fff"/>
    <path id="패스_51800" data-name="패스 51800" d="M691.078,207.275a.623.623,0,0,0-.586-.7.7.7,0,0,0-.655.7Zm-1.234.734c.033.451.46.662.95.662a2.713,2.713,0,0,0,.93-.149l.138.729a3.112,3.112,0,0,1-1.22.218,1.637,1.637,0,0,1-1.8-1.766,1.715,1.715,0,0,1,1.7-1.842,1.518,1.518,0,0,1,1.5,1.723,3.046,3.046,0,0,1-.033.43Z" transform="translate(-672.908 -196.297)" fill="#fff"/>
    <path id="패스_51801" data-name="패스 51801" d="M696.972,207.765c-.55,0-.976.133-.976.543a.379.379,0,0,0,.411.41.582.582,0,0,0,.544-.394l.021-.185Zm1.013.8a4.564,4.564,0,0,0,.055.833H697.1l-.062-.346h-.023a1.2,1.2,0,0,1-.962.423,1.044,1.044,0,0,1-1.089-1.058c0-.9.786-1.322,1.977-1.322v-.041c0-.185-.1-.444-.614-.444a1.931,1.931,0,0,0-.93.254l-.19-.686a2.7,2.7,0,0,1,1.3-.309,1.322,1.322,0,0,1,1.477,1.488Z" transform="translate(-668.455 -196.293)" fill="#fff"/>
    <path id="패스_51802" data-name="패스 51802" d="M703.519,208.036l-.014-.2a.625.625,0,0,0-.612-.522c-.484,0-.722.436-.722.98,0,.579.282.947.717.947a.627.627,0,0,0,.612-.517l.019-.24Zm1.047-3.028v3.98c0,.4.014.8.028,1.032h-.93l-.041-.5H703.6a1.171,1.171,0,0,1-1.056.579,1.573,1.573,0,0,1-1.439-1.771,1.624,1.624,0,0,1,1.509-1.835,1.023,1.023,0,0,1,.888.387h.014v-1.87Z" transform="translate(-663.98 -196.918)" fill="#fff"/>
    <path id="패스_51803" data-name="패스 51803" d="M707.648,206.584h1.046v3.453h-1.046Zm.518-.453a.6.6,0,1,1,.007,0Z" transform="translate(-659.263 -196.933)" fill="#fff"/>
    <path id="패스_51804" data-name="패스 51804" d="M712.752,207.044c0-.43-.014-.791-.026-1.1h.907l.048.479h.021a1.2,1.2,0,0,1,1.042-.556c.688,0,1.2.474,1.2,1.488v2.041H714.9v-1.913c0-.446-.151-.748-.529-.748a.579.579,0,0,0-.537.4l-.033.268v1.991h-1.049Z" transform="translate(-655.521 -196.293)" fill="#fff"/>
    <path id="패스_51805" data-name="패스 51805" d="M721.328,207.347l-.021-.2a.577.577,0,0,0-.565-.473c-.387,0-.691.353-.691.982,0,.515.251.918.684.918a.573.573,0,0,0,.556-.43l.036-.29Zm1.045,1.547a1.991,1.991,0,0,1-.517,1.554,2.018,2.018,0,0,1-1.364.422,2.637,2.637,0,0,1-1.211-.261l.206-.817a2.015,2.015,0,0,0,.98.261.812.812,0,0,0,.874-.911v-.219h-.014a1.085,1.085,0,0,1-.911.446,1.5,1.5,0,0,1-1.426-1.681,1.634,1.634,0,0,1,1.529-1.82,1.013,1.013,0,0,1,.924.487h.014l.033-.411h.911c-.014.225-.029.515-.029,1.03Z" transform="translate(-650.958 -196.293)" fill="#fff"/>
    <path id="패스_51806" data-name="패스 51806" d="M700.765,225.85a6.6,6.6,0,0,1-3.078,5.7,12.448,12.448,0,0,1-7.253,1.982,11.376,11.376,0,0,1-5.875-1.448,4.546,4.546,0,0,1-2.613-3.987,4.083,4.083,0,0,1,1.8-2.822,5.908,5.908,0,0,1,3.671-1.258,5.043,5.043,0,0,1,3.372,1.109,3.262,3.262,0,0,1,1.325,2.556A3.006,3.006,0,0,1,691,229.9a4.006,4.006,0,0,1-2.832,1.033,5.09,5.09,0,0,1-2.8-.712,2.445,2.445,0,0,1-1.244-2.138,2.368,2.368,0,0,1,.916-1.813,3.356,3.356,0,0,1,2.288-.8,3.243,3.243,0,0,1,1.88.5,1.785,1.785,0,0,1,.733,1.578,1.981,1.981,0,0,1-.714,1.49,2.5,2.5,0,0,1-1.747.655c-.266,0-.506-.005-.712-.019a2.186,2.186,0,0,1-.657-.159,1.282,1.282,0,0,0,.752.657,3.51,3.51,0,0,0,1.149.171,3.114,3.114,0,0,0,2.195-.931,2.354,2.354,0,0,0-.157-3.928,4.485,4.485,0,0,0-2.813-.874,4.737,4.737,0,0,0-3.081,1.122,3.144,3.144,0,0,0-1.369,2.412q0,1.827,2.226,3.314a8.693,8.693,0,0,0,4.929,1.484h.715a9.884,9.884,0,0,0,4.916-1.092,3.593,3.593,0,0,0,2.115-3.223q0-2.421-3.454-4.018-3.2-1.213-6.406-2.423-3.455-1.568-3.455-3.961a5.412,5.412,0,0,1,2.148-4.255,8.721,8.721,0,0,1,5.846-1.949,10.924,10.924,0,0,1,4.854,1.035q2.361,1.153,2.362,2.924a2.538,2.538,0,0,1-1.2,2.086,4.822,4.822,0,0,1-2.914.869,4.144,4.144,0,0,1-2.639-.828,2.417,2.417,0,0,1-1.059-1.949,2.189,2.189,0,0,1,.919-1.726,3.319,3.319,0,0,1,2.191-.753,3.524,3.524,0,0,1,2.037.679c.655.451.98.914.98,1.388a1.675,1.675,0,0,1-.855,1.386,3.475,3.475,0,0,1-2.037.593,4.63,4.63,0,0,1-1.244-.178,2.98,2.98,0,0,0,1.056.593,3.936,3.936,0,0,0,1.246.209,2.937,2.937,0,0,0,2.006-.755,2.216,2.216,0,0,0,.854-1.671,2.654,2.654,0,0,0-1.787-2.38,9.477,9.477,0,0,0-4.184-.871,9.149,9.149,0,0,0-4.277.931,2.763,2.763,0,0,0-1.789,2.44q0,2.126,3.579,3.427,3.328,1.091,6.688,2.186c2.4,1.021,3.607,2.425,3.607,4.2" transform="translate(-677.931 -191.813)" fill="#00af5d"/>
    <path id="패스_51807" data-name="패스 51807" d="M719.741,231.213h-3.888V219.274a1.311,1.311,0,0,0-.622-1.123,2.678,2.678,0,0,0-1.543-.43,3.1,3.1,0,0,0-2.053.745,2.635,2.635,0,0,0-.888,2.143v10.605H706.5V212.2h4.247v6.024A6.1,6.1,0,0,1,714.439,217a5.561,5.561,0,0,1,3.69,1.36,4.022,4.022,0,0,1,1.612,3.138Z" transform="translate(-660.054 -191.684)" fill="#d963a4"/>
    <path id="패스_51808" data-name="패스 51808" d="M696.37,216.033a.868.868,0,1,1,.869-.869.868.868,0,0,1-.869.869m1.807-2.1a2.782,2.782,0,0,0-1.692-.53,2.725,2.725,0,0,0-1.68.53,1.454,1.454,0,0,0,0,2.5,2.722,2.722,0,0,0,1.68.527,2.78,2.78,0,0,0,1.707-.527,1.448,1.448,0,0,0-.016-2.5" transform="translate(-669.084 -190.809)" fill="#ee3a4f"/>
    <rect id="사각형_4189" data-name="사각형 4189" width="3.917" height="13.935" transform="translate(25.375 27.617)" fill="#ee3a4f"/>
    <path id="패스_51809" data-name="패스 51809" d="M699.328,218.01a3.686,3.686,0,0,1-2.247.693,3.616,3.616,0,0,1-2.246-.693,1.978,1.978,0,0,1,.012-3.347,4.061,4.061,0,0,1,4.512.014,1.959,1.959,0,0,1-.031,3.333m.446-3.638-.313-.207.793-1.262-.062-.278-.276.066-.809,1.284a4.548,4.548,0,0,0-1.782-.427l0-.009-.016-1.5-.2-.2-.2.2.017,1.5,0,0a4.527,4.527,0,0,0-1.827.406l-.7-1.344-.273-.083-.083.271.705,1.341-.356.237a2.345,2.345,0,0,0,.014,4,4.379,4.379,0,0,0,2.677.831,4.439,4.439,0,0,0,2.708-.831,2.333,2.333,0,0,0-.016-4" transform="translate(-669.681 -191.946)" fill="#ee3a4f"/>
    <path id="패스_51810" data-name="패스 51810" d="M707.329,228.8V217.667c0-.183-.2-.335-.614-.453a5.538,5.538,0,0,0-1.522-.181,6.982,6.982,0,0,0-1.911.235c-.543.159-.814.382-.814.676v10.989a.818.818,0,0,0,.439.786,2.515,2.515,0,0,0,1.191.237,6.292,6.292,0,0,0,2.136-.4c.731-.263,1.1-.518,1.1-.76m3.606,3.684a3.875,3.875,0,0,1-2.11,3.392,8.9,8.9,0,0,1-4.7,1.185,10.191,10.191,0,0,1-4.6-1.052c-1.408-.707-2.11-1.555-2.11-2.558a2.773,2.773,0,0,1,1.109-2.132,3.936,3.936,0,0,1,2.66-.952,3.589,3.589,0,0,1,2.43.854,2.134,2.134,0,0,1,.51,1.4,2.289,2.289,0,0,1-.629,1.612,2.316,2.316,0,0,1-1.778.676h-.375a2.146,2.146,0,0,1-1.362-.484,1.4,1.4,0,0,1-.614-1.116,1.429,1.429,0,0,1,.679-.975,2.35,2.35,0,0,1,1.4-.456,3.2,3.2,0,0,1,.722.078c.23.05.524.124.88.228a1.155,1.155,0,0,0-.615-.926,3.157,3.157,0,0,0-3.327.432,2.226,2.226,0,0,0-.759,1.661q0,1.41,1.894,2.3a9.021,9.021,0,0,0,3.878.8,6.34,6.34,0,0,0,2.483-.344,1.048,1.048,0,0,0,.721-.926v-5.535a3.882,3.882,0,0,1-1.241.574,5.78,5.78,0,0,1-1.457.171,6.894,6.894,0,0,1-4.916-1.656,6.446,6.446,0,0,1-1.87-4.97,7.713,7.713,0,0,1,1.737-4.939,5.942,5.942,0,0,1,4.837-2.4,6.251,6.251,0,0,1,2.91.689v-.907h3.606Z" transform="translate(-666.667 -188.764)" fill="#f89c1c"/>
    <path id="패스_51811" data-name="패스 51811" d="M726.108,229.076a2.076,2.076,0,0,0-.9-1.213,2.257,2.257,0,0,0-1.716-.339,3.175,3.175,0,0,0-1.851,1,1.831,1.831,0,0,0-.294.463,2.227,2.227,0,0,0-.233,1.448,1.5,1.5,0,0,0,2.1,1.227,2.283,2.283,0,0,0,1.26-.9,5.917,5.917,0,0,0,.368-.581c.207-.4.012-.778.131-1.144a1.294,1.294,0,0,1,.372,1.139,2.491,2.491,0,0,1-.451,1.227l-.026.04-.035.005a3.911,3.911,0,0,1-1.167.971,3.148,3.148,0,0,1-1.524.359,1.713,1.713,0,0,1-1.084-.3,1.53,1.53,0,0,1-.531-.835V219.6h4.35v-.772h-4.35v-4.457h-3.8v4.457h-1.417v.772h1.417v10.588a2.846,2.846,0,0,0,1.529,2.281,5.917,5.917,0,0,0,3.136,1.02h.029l.247.01a5.887,5.887,0,0,0,2.165-.37,3.587,3.587,0,0,0,2.271-4.054" transform="translate(-653.637 -190.1)" fill="#00bacd"/>
  </g>
</svg>
