<svg id="그룹_7208" data-name="그룹 7208" xmlns="http://www.w3.org/2000/svg" width="89.83" height="65.199" viewBox="0 0 89.83 65.199">
  <path id="패스_45029" data-name="패스 45029" d="M695.257,234.178a5.428,5.428,0,0,0-4.327-5.316v-27.57H622.371v8.088a19.383,19.383,0,0,0,0,38.457v18.582H690.93V239.493a5.43,5.43,0,0,0,4.327-5.316" transform="translate(-605.427 -201.22)" fill="#fd0"/>
  <path id="패스_45030" data-name="패스 45030" d="M652.63,215.832a3,3,0,1,1-3-3,3,3,0,0,1,3,3" transform="translate(-575.426 -192.818)" fill="#00bade" fill-rule="evenodd"/>
  <path id="패스_45031" data-name="패스 45031" d="M648.794,224.437H645.1l.306-1.654h8.31v1.654h-2.77s-1.516,14.509,11.1,15.921v2.471s-13.89.28-13.249-18.392" transform="translate(-576.54 -185.573)" fill="#00bade" fill-rule="evenodd"/>
  <path id="패스_45032" data-name="패스 45032" d="M647.976,209.4l-2.366-.709,2.226-7.441h2.419Z" transform="translate(-576.169 -201.25)" fill="#00bade" fill-rule="evenodd"/>
  <rect id="사각형_4185" data-name="사각형 4185" width="2.471" height="7.958" transform="translate(75.444 0.001)" fill="#00bade"/>
  <path id="패스_45033" data-name="패스 45033" d="M655.761,208.788l-2.395.607-2.02-8.144,2.508.007Z" transform="translate(-571.993 -201.25)" fill="#00bade" fill-rule="evenodd"/>
  <path id="패스_45034" data-name="패스 45034" d="M634.844,223.426s3.036,1.541,4.814,2.492c0,0,3.416,2.236,3.479,5.834,0,0,.539,7.165-6.613,8.45a9.644,9.644,0,0,1-4.338-.3s-2.281,5.978-1.239,8.2l-5.665-2.2s4.718-8.566,6.411-13.4c0,0,3.169-8.775,3.15-9.081" transform="translate(-590.97 -185.105)" fill="#00bade" fill-rule="evenodd"/>
  <path id="패스_45035" data-name="패스 45035" d="M633,226.69s-3,7.21-2.8,7.445c0,0,3.819.971,4.97-1.866A4.113,4.113,0,0,0,633,226.69" transform="translate(-587.397 -182.728)" fill="#fff" fill-rule="evenodd"/>
  <path id="패스_45036" data-name="패스 45036" d="M642.99,225.163s4.083,2.386,4.562,2.342c0,0-6.7,9.6-8.563,13.1l-3.408-1.749s4.882-8.456,5.521-9.695c0,0,1.749-3.755,1.887-4" transform="translate(-583.471 -183.84)" fill="#00bade" fill-rule="evenodd"/>
  <path id="패스_45037" data-name="패스 45037" d="M637.814,234.627a2.294,2.294,0,0,1,.7,3.546s-1.013,2.119-3.473.524c0,0-2.114-.947-.728-3.5,0,0,.959-2.022,3.5-.574" transform="translate(-584.738 -177.329)" fill="#00bade" fill-rule="evenodd"/>
  <path id="패스_45038" data-name="패스 45038" d="M619.663,217.637a12.75,12.75,0,0,1,5.5-.448s-.513-1.911,1.2-1.8c0,0,1.146-.007,1.645,2.917a7.5,7.5,0,0,0-6.874,1.217,3.568,3.568,0,0,0-1.265,3.874s.513,3.06,4.948,2.879c0,0,2.418-.116,3.556-1.313a3.337,3.337,0,0,1-.249,1.317s2.791-1.172,4.244-.569c0,0-.9-4.666-.959-6.264,0,0,.377-7.346-4.709-8,0,0-7.251-.714-7.039,6.192" transform="translate(-595.065 -193.843)" fill="#00bade" fill-rule="evenodd"/>
  <path id="패스_45039" data-name="패스 45039" d="M624.144,216.491s1.792-.359,2.091,1.3c0,0,.365,1.471-2.214,1.79,0,0-1.678.161-1.766-1.3,0,0-.054-1.555,1.889-1.8" transform="translate(-593.175 -190.178)" fill="#fff" fill-rule="evenodd"/>
  <path id="패스_45040" data-name="패스 45040" d="M625.864,209.623a9.583,9.583,0,0,0,4.778-1.111,18.478,18.478,0,0,0-.392,2.554s1.766-3.671,4.906-1.977c0,0,1.949.467,2.426,5.468,0,0-3.708.221-4.376,1.3,0,0-.043-3.779-1.747-3.047,0,0-1.448.131-.415,5.06,0,0,.7,3.743,2.3,5.247,0,0-4.137.181-5.442,1.478a32.993,32.993,0,0,0-.325-9.508s-1.122-4.873-1.714-5.461" transform="translate(-590.547 -195.963)" fill="#00bade" fill-rule="evenodd"/>
  <path id="패스_45041" data-name="패스 45041" d="M610.769,211.929s12.529-1.547,14.964-2.438c0,0-.239,6,.169,6.93,0,0-6.287-.2-8.385,1.037,0,0,.14,5.072.211,5.649,0,0,1.818.461,5.3-1.438a30.723,30.723,0,0,0,.451,4.445s-4.443-.332-5.348.268l.442,3.568s7.263-.6,8.77-1.87l.334,4.267s-10.878.658-13.626,2.174c0,0,.741-13.011-3.282-22.591" transform="translate(-601.537 -195.251)" fill="#00bade" fill-rule="evenodd"/>
  <path id="패스_45042" data-name="패스 45042" d="M638.192,225.766s-2.618-5.549-2.475-7.2c0,0-5.295,5.086-6.513,4.657a16.638,16.638,0,0,0,2,1.073c-1.142,15.333-5.229,13.051-5.229,13.051-4.223-.8,1.552-11.635,1.552-11.635a7.069,7.069,0,0,1-4.248-1.2c-7.6,15.619,1.018,17.278,1.018,17.278,9.983,2.281,12.351-13.9,12.615-16a10.841,10.841,0,0,0,1.275-.022" transform="translate(-594.706 -188.64)" fill="#00bade" fill-rule="evenodd"/>
  <path id="패스_45043" data-name="패스 45043" d="M636.25,218.309a19.555,19.555,0,0,1,3.911-.686s-.524-5.4-4.88-5.243a4.556,4.556,0,0,0-4.432,3.549,7.436,7.436,0,0,0,.2,3.589,3.736,3.736,0,0,0,2.3,2.255s3.3.809,2.941,2.419a1.1,1.1,0,0,1-1.289.446,4.351,4.351,0,0,1-2.54-1.573s-.484,3.667-1.049,4.472c0,0,3.952,2.945,7.3.527a5.205,5.205,0,0,0,1.9-3.228s.482-3.263-2.179-4.153c0,0-4.032-1.329-4.113-2.741,0,0-.363-1.087.363-1.369,0,0,1.37-.565,1.573,1.733" transform="translate(-587.013 -193.149)" fill="#00bade" fill-rule="evenodd"/>
</svg>
