<svg id="그룹_7215" data-name="그룹 7215" xmlns="http://www.w3.org/2000/svg" width="100.319" height="57.162" viewBox="0 0 100.319 57.162">
  <path id="패스_51867" data-name="패스 51867" d="M274.2,316.778a10.981,10.981,0,0,1,.652,9.886,15.726,15.726,0,0,1-7.227,8.029,24.805,24.805,0,0,1-7.488,3.076,16.219,16.219,0,0,1-7.649-.641l-.543-10.68a9.957,9.957,0,0,0,4.9.527,13.255,13.255,0,0,0,5.153-1.645,5.842,5.842,0,0,0,2.063-1.782,1.694,1.694,0,0,0,.081-1.9q-1.283-2.255-5.172-1.624-3.512.806-7.009,1.548-4,.508-5.5-2.108-1.659-2.906.435-6.266a22.721,22.721,0,0,1,5.722-5.677,66.968,66.968,0,0,1,6.657-4.282l3.1,5.419a33.244,33.244,0,0,0-3.793.757,9.715,9.715,0,0,0-2.17.9,3.292,3.292,0,0,0-1.5,1.459,1.989,1.989,0,0,0,.24,1.813q.169.29,4.168-1.369a14.189,14.189,0,0,1,7.061-1.287q4.79.542,7.82,5.843" transform="translate(-245.727 -284.15)" fill="#231f20"/>
  <path id="패스_51868" data-name="패스 51868" d="M274.064,314a7.17,7.17,0,0,1-1.484,2.079,5.936,5.936,0,0,1-2.115,1.225,6.638,6.638,0,0,1-5.661-.531,8.437,8.437,0,0,1-3.89-4.79,10.309,10.309,0,0,1-.384-6.276,5.51,5.51,0,0,1,3.569-4,12.177,12.177,0,0,1,1.593-.472,6.514,6.514,0,0,1,1.5-.012l2.06,5.917a2.319,2.319,0,0,0-1.341.105,3.22,3.22,0,0,0-1.592,1.128,1.7,1.7,0,0,0-.266,1.661,1.583,1.583,0,0,0,1.13.985,3,3,0,0,0,1.892-.09,2.753,2.753,0,0,0,.888-.489,1.475,1.475,0,0,0,.473-.848Z" transform="translate(-235.187 -285.648)" fill="#231f20"/>
  <path id="패스_51869" data-name="패스 51869" d="M280.416,314.53c-1.028-4.526-2.236-5.088-2.236-5.088-1.355-.959-3.952,1.211-3.952,1.211l3.14,5.475-4.7,2.435-8.4-18.731,4.74-3.4,3.75,9.147,3.365-1.377s5.463-1.884,9.667,9.109Z" transform="translate(-232.232 -289.11)" fill="#231f20"/>
  <path id="패스_51870" data-name="패스 51870" d="M283.767,302.464a1.512,1.512,0,0,0-.745-.945,1.563,1.563,0,0,0-1.218-.152,2.723,2.723,0,0,0-1.827,3.332,1.649,1.649,0,0,0,.759,1.032,1.555,1.555,0,0,0,1.251.15,2.42,2.42,0,0,0,1.452-1.358,2.807,2.807,0,0,0,.328-2.058m4.184.315a8.941,8.941,0,0,1,.264,2.291,7.927,7.927,0,0,1-.762,3.667,5.215,5.215,0,0,1-3.432,2.711,6.17,6.17,0,0,1-5-.7,6.71,6.71,0,0,1-3.083-4.128,8.181,8.181,0,0,1,.311-5.587,5.875,5.875,0,0,1,4-3.487,5.431,5.431,0,0,1,4.725.861,7.518,7.518,0,0,1,2.981,4.37" transform="translate(-223.984 -288.449)" fill="#231f20"/>
  <path id="패스_51871" data-name="패스 51871" d="M291.624,301.28a1.464,1.464,0,0,0-.586-1.03,1.577,1.577,0,0,0-1.179-.333,2.6,2.6,0,0,0-1.65.871,2.533,2.533,0,0,0-.679,2.089,1.612,1.612,0,0,0,.586,1.12,1.57,1.57,0,0,0,1.211.339,2.441,2.441,0,0,0,1.647-1.1,2.741,2.741,0,0,0,.65-1.954m4.08.945a8.7,8.7,0,0,1-.1,2.269,7.761,7.761,0,0,1-1.336,3.451,5.236,5.236,0,0,1-3.814,2.113,6.212,6.212,0,0,1-4.83-1.443,6.533,6.533,0,0,1-2.39-4.483,7.966,7.966,0,0,1,1.189-5.385,5.91,5.91,0,0,1,4.5-2.784,5.466,5.466,0,0,1,4.528,1.555,7.334,7.334,0,0,1,2.252,4.706" transform="translate(-218.461 -289.477)" fill="#231f20"/>
  <path id="패스_51872" data-name="패스 51872" d="M296.139,312.021l-5.514-.626,1.852-18.621,4.648.484Z" transform="translate(-213.037 -291.773)" fill="#231f20"/>
  <path id="패스_51873" data-name="패스 51873" d="M281.249,313.708a1.68,1.68,0,0,0-1.115-.76,1.87,1.87,0,0,0-1.384.23,2.9,2.9,0,0,0-1.282,1.668,2.759,2.759,0,0,0,.33,2.426,1.854,1.854,0,0,0,2.578.612,2.732,2.732,0,0,0,1.163-1.9,2.98,2.98,0,0,0-.29-2.274m4.692-1a9.483,9.483,0,0,1,1.013,2.328,8.424,8.424,0,0,1,.321,4.115,5.855,5.855,0,0,1-2.908,3.956,7.32,7.32,0,0,1-5.715.857,7.48,7.48,0,0,1-4.685-3.368,8.675,8.675,0,0,1-1.424-5.988,6.581,6.581,0,0,1,3.289-4.96,6.423,6.423,0,0,1,5.456-.6,8.368,8.368,0,0,1,4.654,3.66" transform="translate(-226.261 -280.178)" fill="#231f20"/>
  <path id="패스_51874" data-name="패스 51874" d="M290.307,311.576a1.594,1.594,0,0,0-.883-.975,1.831,1.831,0,0,0-1.395-.092,2.97,2.97,0,0,0-1.657,1.313,2.715,2.715,0,0,0-.3,2.406,1.736,1.736,0,0,0,.9,1.075,1.854,1.854,0,0,0,1.431.09,2.8,2.8,0,0,0,1.6-1.562,2.945,2.945,0,0,0,.3-2.255m4.78.1a9.194,9.194,0,0,1,.387,2.464,8.4,8.4,0,0,1-.733,4.026,6.069,6.069,0,0,1-3.811,3.149,7.289,7.289,0,0,1-5.73-.463,7.127,7.127,0,0,1-3.667-4.282,8.511,8.511,0,0,1,.147-6.083,6.784,6.784,0,0,1,4.431-4.021,6.4,6.4,0,0,1,5.416.646,7.974,7.974,0,0,1,3.56,4.564" transform="translate(-220.012 -282.046)" fill="#231f20"/>
  <path id="패스_51875" data-name="패스 51875" d="M295.878,326.86l-6.316-.628,1.812-21.318,5.323.476Z" transform="translate(-213.81 -282.934)" fill="#231f20"/>
  <path id="패스_51876" data-name="패스 51876" d="M300.95,294.34l-4.341,4.2-1.79-1.718,2.449-4.632Z" transform="translate(-209.983 -292.195)" fill="#231f20"/>
  <path id="패스_51877" data-name="패스 51877" d="M308.319,308.146a4.731,4.731,0,0,1-3.435,3.242,10.069,10.069,0,0,1-5.853.078,5.624,5.624,0,0,1-2.257-1.108,13.858,13.858,0,0,1-2.1-2.535l3.639-3.667a2.77,2.77,0,0,0,2.272,2.437,3.488,3.488,0,0,0,2.051.031,1.745,1.745,0,0,0,1.092-1.31c.123-.47-.342-1.04-1.395-1.718a25.023,25.023,0,0,1-2.9-2.027,2.982,2.982,0,0,1-1.044-3.045,3.689,3.689,0,0,1,2.855-2.469,9.8,9.8,0,0,1,7.348.918,7.1,7.1,0,0,1,1.82,1.713l-3.251,2.8a2.333,2.333,0,0,0-.366-1.315,1.885,1.885,0,0,0-1.137-.755,2.915,2.915,0,0,0-1.517-.035,1.153,1.153,0,0,0-.862.871q-.148.56,1.438,1.557a11.462,11.462,0,0,1,2.832,2.253,4.407,4.407,0,0,1,.771,4.089" transform="translate(-210.092 -289.652)" fill="#231f20"/>
  <path id="패스_51878" data-name="패스 51878" d="M287.032,328.1q-2.3,5.508-6.682,7.5a9.6,9.6,0,0,1-8.305-.092,13.077,13.077,0,0,1-6.5-6.852,14.16,14.16,0,0,1-.715-10.514,11.389,11.389,0,0,1,6.2-7.334,12.013,12.013,0,0,1,2.371-.836,8.388,8.388,0,0,1,2.426-.092l-.638,6.855a3.838,3.838,0,0,0-3.131-.121,3.46,3.46,0,0,0-1.87,2.82,7.71,7.71,0,0,0,.729,4.531,3.876,3.876,0,0,0,2.252,2.193,4.108,4.108,0,0,0,3.159-.237,4.6,4.6,0,0,0,2.762-4.9Z" transform="translate(-232.322 -279.345)" fill="#231f20"/>
</svg>
