<svg id="그룹_7227" data-name="그룹 7227" xmlns="http://www.w3.org/2000/svg" width="68.127" height="71.69" viewBox="0 0 68.127 71.69">
  <rect id="사각형_4197" data-name="사각형 4197" width="68.127" height="48.204" transform="translate(0 23.487)" fill="#f072ab"/>
  <path id="패스_52140" data-name="패스 52140" d="M597.944,467.4c-2.585-1.688-8.542,2.635-5.338,5.342-.32,1.313-1.948,1.2-3.052,1.783-2.274,1.194-4.925,2.292-7.246,3.382-.76.361-1.343.252-1.906.715-1.569-.315-1.085-1.688-1.718-2.853-.862-1.59-2.571-2.685-3.62-4.094-.689-.921-.8-1.98-1.718-2.673.423-.957,3.558-2.682,2.668-4.275,0-1.965-.736-2.585-1.524-3.74a14.086,14.086,0,0,0-4.386-.712c-.555.489-1.445.674-1.908,1.248a19.4,19.4,0,0,1-1.142,1.782c-.064,2.155.418,3.24,1.906,3.916-.244,2.214-1.624,4.154-2.478,5.879s-1.006,3.838-2.288,5.165l-.192.178c-.793-1.116-2.117-1.7-3.048-2.673-2.046-2.118-3.8-5.12-6.3-6.767a3.756,3.756,0,0,1,.956-2.494c-.022-3.024-2.051-4.891-5.528-4.809-.771.766-1.9,1.2-2.67,1.96-.408.4-.5,1.061-.954,1.426,0,2.274,1.963,3.892,3.624,4.63-.931,4.56-.441,10.581-.954,14.248-.18,1.272.409,3.344-.192,4.275a6.479,6.479,0,0,0,.382,3.028c11.376.74,22.923-.354,34.13-.354,3.985,0,8.912.333,11.634-.178,1.035-.2,2.5.245,3.244-.18.19-.06.378-.121.572-.175a45.376,45.376,0,0,0-.766-9.978c-.3-1.289.249-2.794-.38-3.74.117-2.568,2.314-1.654,3.242-3.206,1.372-2.305-1.528-5.615-3.052-6.055m-45-.892c-.764-.142-.691-.334-1.338-.534a.855.855,0,0,0-.951.176c-.4.344-.283.985-.572,1.427v.18a1.476,1.476,0,0,1-1.146-1.071l-.19-.178c.527-.489.676-1.222,1.142-1.782.446-.3.892-.591,1.336-.888a3.975,3.975,0,0,1,1.718.534,1.978,1.978,0,0,0,.382.89,9.41,9.41,0,0,1-.382,1.246m19.256,0c-.182-.871-.258-2.184-1.144-2.492a3.01,3.01,0,0,0-1.144,1.6h-.382a2.046,2.046,0,0,0-.38-.532c.233-1.441,1.2-1.711,2.1-2.5h1.336c1.688,1.628,1.272,2.222,0,3.919Zm26.505,5.7c-.3.287-.416.631-.762.89v.18c-.47-.266-.534-1.179-.572-1.785l-.19-.176c-1.289-.021-1.635.187-2.1.892l-.952-.18a5.648,5.648,0,0,1,0-1.96c.6-.537,1.318-1.047,1.9-1.6h.762a6.61,6.61,0,0,0,1.529,1.066,6.123,6.123,0,0,1,.378,2.673" transform="translate(-539.844 -460.268)" fill="#ffca05"/>
  <path id="패스_52141" data-name="패스 52141" d="M550.75,489.57l-.366-.192-.342-.1c-.073,0-.086.086-.04.263s.088.354.124.539c.066.3.126.6.187.9s.116.581.171.843a1.2,1.2,0,0,1-.582.389,3.387,3.387,0,0,1-.75.1,5.493,5.493,0,0,1-.487-1.452q-.244-1.058-.456-2.3c-.072-.42-.147-.835-.223-1.249s-.147-.8-.207-1.172-.114-.729-.157-1.059a7.7,7.7,0,0,1-.067-.871,2.4,2.4,0,0,1,1.317-.757,8.042,8.042,0,0,1,2.136-.327,5.618,5.618,0,0,1,1.946.524,1.838,1.838,0,0,1,1.275,1.863,3.391,3.391,0,0,1-.168,1.147,2.065,2.065,0,0,1-.638.814,5.078,5.078,0,0,1-.639.442,8.479,8.479,0,0,1-.9.468c.337.169.7.337,1.082.51s.81.365,1.286.595a1.4,1.4,0,0,1-.368.942.84.84,0,0,1-.557.245,13.618,13.618,0,0,1-1.289-.482,8.5,8.5,0,0,1-1.287-.619m-1.548-4.313a7.437,7.437,0,0,0,.173,1.03c.119.581.2.992.245,1.229a6.8,6.8,0,0,0,1.591-.531,3.534,3.534,0,0,0,1.376-.893l.088-.251.024-.225a.708.708,0,0,0-.584-.764,4.251,4.251,0,0,0-1-.188,6.844,6.844,0,0,0-1.22.124q-.695.132-.689.468" transform="translate(-539.049 -443.629)" fill="#fff"/>
  <path id="패스_52142" data-name="패스 52142" d="M555.518,488.049c-.347.041-.7.071-1.063.092s-.626.031-.8.031a5.32,5.32,0,0,1,.028,1c-.019.334-.024.624-.014.883a9.018,9.018,0,0,1,1.471-.209,10.73,10.73,0,0,1,1.377.01l.37-.01.4-.054c.145-.017.308-.05.487-.085s.4-.067.667-.1a1.365,1.365,0,0,1,.387.733.829.829,0,0,1-.214.7,7.8,7.8,0,0,1-1.474.23,9.749,9.749,0,0,1-1.635.06,3.238,3.238,0,0,0-.985.057c-.34.064-.669.121-.987.174a1.417,1.417,0,0,1-.624-.069.935.935,0,0,1-.577-.363,1.315,1.315,0,0,1-.183-.557,2.5,2.5,0,0,1-.017-.627,5.133,5.133,0,0,0,.062-.847,5.422,5.422,0,0,0-.062-.864c-.021-.156-.04-.283-.059-.4l-.033-.242.016-.349.062-.3a2.423,2.423,0,0,0,.093-.544c.009-.192.009-.38,0-.581-.012-.223-.024-.444-.041-.664a5.207,5.207,0,0,1-.005-.658,1.462,1.462,0,0,1,.254-.969,2.926,2.926,0,0,1,1.438-.216l1.165-.031c.363-.009.636-.012.819-.012a2.043,2.043,0,0,0,.387-.048.836.836,0,0,0,.37-.156.851.851,0,0,1,.653.42.966.966,0,0,1,.131.95,2.072,2.072,0,0,1-.638.216c-.171.021-.342.045-.517.078a6.414,6.414,0,0,1-1.04.055c-.444,0-.81,0-1.1.022l-.249.038-.107.223a2.678,2.678,0,0,0-.04.648,3.375,3.375,0,0,1-.009.627l.047.27.263.055c.112,0,.256,0,.432-.007s.42-.031.74-.067c.387-.045.759-.081,1.106-.119s.669-.054.956-.054a1.254,1.254,0,0,1,.316.722,1.007,1.007,0,0,1-.27.773c-.289.007-.6.031-.947.06s-.613.057-.809.078" transform="translate(-535.782 -443.674)" fill="#fff"/>
  <path id="패스_52143" data-name="패스 52143" d="M563.133,482.967a3.885,3.885,0,0,1,3.092,1.07,3.651,3.651,0,0,1,1.1,2.748,4.679,4.679,0,0,1-.259,1.623,3.276,3.276,0,0,1-.588.983,3.348,3.348,0,0,1-.741.587,9.607,9.607,0,0,0-.812.532c-.138.109-.289.22-.451.34a1.941,1.941,0,0,1-.48.268,3,3,0,0,1-.512.111c-.212.028-.532.054-.957.078a1.353,1.353,0,0,1-.983.173c-.266-.081-.427-.351-.486-.814a9.181,9.181,0,0,1-.043-1.208c.005-.541.016-1.129.028-1.763.021-.606.04-1.232.059-1.87s.019-1.191.009-1.654c-.01-.574.107-.924.354-1.049a1.419,1.419,0,0,1,1.028,0l.256-.061a.931.931,0,0,1,.384-.1m2.089,5.3a1.9,1.9,0,0,0,.346-.776,4.6,4.6,0,0,0,.1-1,.878.878,0,0,0-.114-.347,1.865,1.865,0,0,1-.145-.361,1.381,1.381,0,0,0-.943-1.064,4.811,4.811,0,0,0-1.08-.164,1.189,1.189,0,0,0-.423.061c-.093.04-.155.18-.178.408-.012.149-.026.442-.043.878s-.026.935-.026,1.486V489.7a2.408,2.408,0,0,0,.577-.061,1.11,1.11,0,0,0,.494-.283,3.056,3.056,0,0,1,.735-.52,2.148,2.148,0,0,0,.7-.57" transform="translate(-529.247 -443.745)" fill="#fff"/>
  <path id="패스_52144" data-name="패스 52144" d="M564.8,490.006a3.036,3.036,0,0,1,.847-.206,4.126,4.126,0,0,0,.767-.155,2.259,2.259,0,0,0,.069-.935c-.01-.577-.029-1.07-.052-1.469s-.035-.8-.035-1.211.005-.8.017-1.192c-.012-.079-.133-.107-.361-.076a1.507,1.507,0,0,1-.584-.028,1.109,1.109,0,0,1-.112-.7,1.653,1.653,0,0,1,.2-.707,6.1,6.1,0,0,1,1-.138c.3-.009.586-.033.876-.067a3.108,3.108,0,0,1,1.1.052,1.809,1.809,0,0,1,.893.617,1.38,1.38,0,0,1-.112.612,1,1,0,0,1-.454.387,2.715,2.715,0,0,0-.423-.088c-.162-.019-.254,0-.266.069.026.731.019,1.541-.017,2.423s-.031,1.647,0,2.3l.164.156h.232a1.539,1.539,0,0,1,.47.086,1.113,1.113,0,0,1,.51.325c-.093.283-.168.524-.233.705a1.148,1.148,0,0,1-.282.463,4.325,4.325,0,0,1-1.142.05,4.441,4.441,0,0,0-.938,0c-.259.028-.57.057-.925.105a9.323,9.323,0,0,1-1.132.071,2.352,2.352,0,0,1-.266-.817.894.894,0,0,1,.2-.627" transform="translate(-526.635 -443.648)" fill="#fff"/>
  <path id="패스_52145" data-name="패스 52145" d="M570.1,487.185q-.246-.441-.368-.617c-.014.6-.022,1.232-.028,1.91a11.3,11.3,0,0,0,.06,1.523,1.5,1.5,0,0,0,.107.361.518.518,0,0,1-.468.861,2.422,2.422,0,0,1-.762.169,1.783,1.783,0,0,1-.52-1.02c-.042-.354-.068-.669-.08-.952-.012-.482-.028-.928-.045-1.346a11.527,11.527,0,0,1,.028-1.343c.034-.577.06-1.185.078-1.813a9.867,9.867,0,0,1,.062-1.111.661.661,0,0,1,.634-.492.928.928,0,0,1,.792.176,5.961,5.961,0,0,1,.731.925c.3.439.565.833.8,1.187a8.7,8.7,0,0,0,.652.828c.233.256.458.525.67.805l.207.3.213.3c.083-.4.175-.85.275-1.346s.192-.973.273-1.415a7.777,7.777,0,0,1,.3-1.049,2.791,2.791,0,0,1,.759-1.063,1.341,1.341,0,0,1,.677.4,1.393,1.393,0,0,1,.463.814,4.174,4.174,0,0,0-.439.975c-.092.321-.18.672-.263,1.047-.069.408-.147.836-.232,1.282s-.152.874-.207,1.286a3.9,3.9,0,0,1-.406,1.161.981.981,0,0,1-.809.6,1.047,1.047,0,0,1-.942-.537l-.536-.766q-.5-.627-.862-1.073c-.247-.29-.372-.439-.372-.439s-.145-.176-.439-.527" transform="translate(-524.168 -443.744)" fill="#fff"/>
  <path id="패스_52146" data-name="패스 52146" d="M580.04,487.432a.766.766,0,0,1,.418.581.869.869,0,0,1-.19.7c-.313.021-.525.028-.643.024l-.318-.024-.27-.014-.185.057-.048.176.023.273a2.767,2.767,0,0,0,.254.743,1.6,1.6,0,0,1,.183.688c.038.149-.059.332-.283.544a.7.7,0,0,1-.691.22,1.088,1.088,0,0,1-.235-.489,4.75,4.75,0,0,1-.133-.57,2.365,2.365,0,0,1-.707.731,2.723,2.723,0,0,1-1.542.342,2.434,2.434,0,0,1-2.535-1.526,7.063,7.063,0,0,1-.588-2.575,5.175,5.175,0,0,1,.579-2.269,3.046,3.046,0,0,1,1.64-1.541c.247-.1.522-.2.826-.3a2.637,2.637,0,0,1,.857-.156,4.894,4.894,0,0,1,1.49.283,1.664,1.664,0,0,1,1.139,1.033,1.085,1.085,0,0,1-.19.652.715.715,0,0,1-.619.235,3.1,3.1,0,0,0-.308-.337l-.256-.213a.986.986,0,0,0-.394-.206,2.351,2.351,0,0,0-.665-.078,2.656,2.656,0,0,0-.862.181,4.541,4.541,0,0,0-.776.354,1.934,1.934,0,0,0-.821,1.182,5.7,5.7,0,0,0-.213,1.462,3.542,3.542,0,0,0,.408,1.6,1.383,1.383,0,0,0,1.331.814,1.428,1.428,0,0,0,.842-.233,2.418,2.418,0,0,0,.558-.543l.119-.254.079-.309-.3-.017h-.309c-.161-.01-.316-.017-.461-.021a2.579,2.579,0,0,0-.543.052.785.785,0,0,1-.543-.432c-.157-.261-.092-.52.188-.785a3.173,3.173,0,0,1,1.258-.067c.753.038,1.234.057,1.441.067.19.007.537,0,1.038-.014s.823-.029.954-.029" transform="translate(-520.849 -443.68)" fill="#fff"/>
  <path id="패스_52147" data-name="패스 52147" d="M563.253,489.519c-.18-.648-.34-1.154-.482-1.512-.052-.145-.114-.292-.185-.444a1.619,1.619,0,0,1-.138-.474c-.021-.166-.071-.432-.147-.8a4.984,4.984,0,0,0-.34-1.063c-.076-.181-.736-1.614-.892-1.984,0,0-1.31-.824-2.048.118-.206.2-.868.924-.977,1.08a1.931,1.931,0,0,0-.242.468,9.913,9.913,0,0,0-.52,1.678c-.142.627-.266,1.192-.373,1.7-.066.415-.147.816-.244,1.191s-.026.085-.112.4a1.757,1.757,0,0,0-.09.273,3.554,3.554,0,0,0-.123.776,1.279,1.279,0,0,0,.672.779.914.914,0,0,0,.871-.166,8.492,8.492,0,0,0,.2-.873,4.794,4.794,0,0,1,.09-.572c.086-.4.017-.185.119-.638a4.385,4.385,0,0,1,.219-.779c.043-.047.206-.064.487-.05a4.784,4.784,0,0,0,.715-.007c.218-.031.522-.078.918-.138s.61-.064.641-.007a1.485,1.485,0,0,1,.138.4c.038.173.073.315.107.432.074.244.168.531.284.871a2.208,2.208,0,0,1,.105.994,1.01,1.01,0,0,0,1,.427.975.975,0,0,0,.707-.532c-.066-.379-.187-.892-.365-1.543m-2.463-2.487c-.01.036-.088.067-.235.088s-.4.054-.773.1a5.715,5.715,0,0,1-.729.052c-.152,0-.233-.048-.245-.126a3.4,3.4,0,0,1,.18-.988c.1-.263.2-.557.309-.888l.128-.174c.047-.047.358-.392.569-.62.205.475.48,1.109.491,1.173.085.254.164.513.233.786a1.642,1.642,0,0,1,.073.6" transform="translate(-532.65 -443.784)" fill="#fff"/>
  <path id="패스_52148" data-name="패스 52148" d="M555.518,496.184c0-.148.005-.453.014-.907s-.009-.7-.064-.729c-.093-.054-.512.358-1.248,1.239a5.887,5.887,0,0,1-1.424,1.424c-.2-.028-.517-.311-.947-.85s-.705-.885-.819-1.033c-.2-.261-.436-.574-.7-.945s-.458-.536-.572-.513q-.145.085-.145,1.016c0,.62-.01,1.118-.031,1.484-.031.506-.045.952-.04,1.345s0,.769-.007,1.137a.932.932,0,0,1-1.656.021c0-.219.016-.544.048-.966s.047-.807.047-1.147c0-.776.031-1.586.088-2.426s.124-1.65.2-2.428c.083-.762.289-1.163.612-1.2s.717.2,1.185.705c.18.18.435.477.771.892s.665.823,1,1.222l.546.715a2.764,2.764,0,0,0,.52.594c.105.01.3-.176.574-.563s.465-.672.57-.852a6.189,6.189,0,0,1,.47-.674c.164-.206.325-.4.485-.574a3.327,3.327,0,0,1,.539-.563,1.992,1.992,0,0,1,.43-.278,1.229,1.229,0,0,1,1.177,1.31,12.4,12.4,0,0,0-.057,1.263q-.005.91.01,1.953,0,1.089.009,2.141t-.026,1.671c-.233.465-.52.67-.866.627s-.576-.325-.691-.833c-.012-.474-.014-1.115-.009-1.915s.009-1.251.009-1.364" transform="translate(-538.81 -438.109)" fill="#fff"/>
  <path id="패스_52149" data-name="패스 52149" d="M563.431,494.518a5.322,5.322,0,0,1,1.944.828,2.1,2.1,0,0,1,.812,1.906,2.6,2.6,0,0,1-.344,1.353,6.121,6.121,0,0,1-1.3,1.289,3.345,3.345,0,0,1-1.474.676,7.044,7.044,0,0,1-1.089.166,7.988,7.988,0,0,1-.8-.06,3.482,3.482,0,0,1-.994-.271.714.714,0,0,1-.135-.638,1.123,1.123,0,0,1,.42-.7c.4.021.772.05,1.108.085a2.752,2.752,0,0,0,.963-.054,2.873,2.873,0,0,0,.843-.365,4.269,4.269,0,0,0,.873-.764,1.444,1.444,0,0,0,.23-.368.968.968,0,0,0,.107-.429.737.737,0,0,0-.169-.479,1.392,1.392,0,0,0-.422-.351,3.54,3.54,0,0,0-1.186-.418c-.449-.078-.876-.137-1.281-.169a4.755,4.755,0,0,1-1.583-.468,1.55,1.55,0,0,1-.833-1.49,3.9,3.9,0,0,1,.2-1.3,2.53,2.53,0,0,1,.655-1.108,5.137,5.137,0,0,1,1.153-.731,3.1,3.1,0,0,1,1.312-.361,4.875,4.875,0,0,1,1.9.387,2.523,2.523,0,0,1,1.218.867.969.969,0,0,1,.016.534,1.706,1.706,0,0,1-.557.79,3.35,3.35,0,0,1-.456-.251c-.152-.1-.273-.185-.356-.245a2.7,2.7,0,0,0-.717-.422,2.15,2.15,0,0,0-.809-.152,2.057,2.057,0,0,0-.925.232,2.156,2.156,0,0,0-.746.594,1.247,1.247,0,0,0-.239.567,2.1,2.1,0,0,0-.048.548l.192.269.366.145c.326.045.674.088,1.042.142s.733.124,1.1.209" transform="translate(-530.626 -438.4)" fill="#fff"/>
  <path id="패스_52150" data-name="패스 52150" d="M569.954,492.887c-.14-.014-.385-.034-.734-.054a1.321,1.321,0,0,0-.662.054,7.791,7.791,0,0,0-.086,1.4c-.012.785,0,1.381.033,1.794a6.178,6.178,0,0,1-.024,1.08,8.576,8.576,0,0,0-.062.971,2.873,2.873,0,0,0,.079.354c.042.152.1.342.185.563a1.39,1.39,0,0,1-.76.577,1.1,1.1,0,0,1-.83-.026,1.756,1.756,0,0,1-.32-.665,2.669,2.669,0,0,1-.124-.7c0-.27.019-.584.054-.945a6.5,6.5,0,0,0,.017-1.087c-.022-.425-.022-1.07,0-1.937a3.717,3.717,0,0,0-.071-1.37,1.121,1.121,0,0,0-.6-.035c-.308.035-.593.064-.864.088l-.356.109-.387.192a1.042,1.042,0,0,1-.7-.486,1.075,1.075,0,0,1-.221-.874,1.836,1.836,0,0,1,.655-.425,3.7,3.7,0,0,1,.971-.251c.4-.043.805-.078,1.21-.1s.776-.033,1.108-.043c.282-.01.809-.01,1.581.01s1.429.047,1.97.1a1.766,1.766,0,0,1,.237.648,2.352,2.352,0,0,1-.04.786,5.7,5.7,0,0,1-.734.23,1.965,1.965,0,0,1-.524.036" transform="translate(-527.438 -437.839)" fill="#fff"/>
  <path id="패스_52151" data-name="패스 52151" d="M572.121,496.128c-.359.043-.728.078-1.1.1s-.648.033-.829.033a5.491,5.491,0,0,1,.033,1.026c-.021.344-.026.652-.015.918a9.208,9.208,0,0,1,1.519-.216,11.459,11.459,0,0,1,1.424.007l.382-.007.415-.057c.149-.021.316-.05.5-.088s.418-.067.691-.1a1.4,1.4,0,0,1,.4.759.839.839,0,0,1-.221.722,7.671,7.671,0,0,1-1.519.24,10.448,10.448,0,0,1-1.693.061,3.591,3.591,0,0,0-1.02.057c-.351.071-.691.131-1.018.183a1.5,1.5,0,0,1-.646-.071.949.949,0,0,1-.594-.375,1.379,1.379,0,0,1-.192-.57,2.718,2.718,0,0,1-.016-.655,5.263,5.263,0,0,0,.064-.874,5.614,5.614,0,0,0-.064-.892c-.022-.157-.042-.3-.064-.411l-.033-.256.019-.358.064-.311a2.623,2.623,0,0,0,.093-.563,5.78,5.78,0,0,0,0-.6c-.01-.233-.024-.467-.041-.695a6.229,6.229,0,0,1-.005-.672,1.5,1.5,0,0,1,.263-1,3,3,0,0,1,1.488-.223c.422-.014.824-.021,1.2-.035s.658-.016.852-.016a2.155,2.155,0,0,0,.4-.045.924.924,0,0,0,.382-.161.892.892,0,0,1,.674.429,1.012,1.012,0,0,1,.137.988,2.245,2.245,0,0,1-.662.223c-.173.019-.351.047-.531.078a6.6,6.6,0,0,1-1.075.057c-.463-.007-.845,0-1.137.021l-.257.043-.109.23a2.674,2.674,0,0,0-.04.669,4.372,4.372,0,0,1-.007.65c-.014.15,0,.244.047.282l.271.054c.116,0,.263,0,.444-.007s.435-.031.764-.071c.4-.043.784-.085,1.146-.121a9.461,9.461,0,0,1,.985-.055,1.231,1.231,0,0,1,.325.75,1.031,1.031,0,0,1-.276.793c-.3.01-.624.031-.978.064s-.634.057-.836.078" transform="translate(-523.779 -437.911)" fill="#fff"/>
  <path id="패스_52152" data-name="패스 52152" d="M576.087,497.394a2.672,2.672,0,0,0-.392-.206,1.028,1.028,0,0,0-.359-.107c-.078,0-.093.092-.042.28s.093.375.131.57c.066.318.133.634.2.945s.121.61.18.9a1.322,1.322,0,0,1-.615.406,4.062,4.062,0,0,1-.79.1,5.581,5.581,0,0,1-.513-1.535c-.174-.747-.337-1.554-.484-2.428-.076-.442-.156-.883-.232-1.319s-.157-.848-.223-1.232c-.064-.4-.119-.774-.166-1.122a8.106,8.106,0,0,1-.069-.918,2.473,2.473,0,0,1,1.388-.8,8.654,8.654,0,0,1,2.255-.351,5.96,5.96,0,0,1,2.051.556,1.94,1.94,0,0,1,1.346,1.965,3.6,3.6,0,0,1-.176,1.211,2.2,2.2,0,0,1-.672.857,5.219,5.219,0,0,1-.676.467,8.008,8.008,0,0,1-.947.492c.356.178.735.361,1.141.539s.857.385,1.358.629a1.488,1.488,0,0,1-.391.992.911.911,0,0,1-.584.263c-.235-.067-.688-.238-1.362-.513a8.74,8.74,0,0,1-1.355-.648m-1.638-4.555a7.976,7.976,0,0,0,.18,1.09c.128.613.214,1.045.263,1.293a7.124,7.124,0,0,0,1.678-.558,3.752,3.752,0,0,0,1.452-.942l.1-.27.024-.233a.753.753,0,0,0-.615-.809,4.551,4.551,0,0,0-1.058-.2,7.563,7.563,0,0,0-1.293.131c-.487.092-.729.261-.726.494" transform="translate(-520.732 -438.195)" fill="#fff"/>
  <path id="패스_52153" data-name="패스 52153" d="M561.561,498c-.192-.709-.363-1.262-.512-1.654-.057-.159-.125-.32-.2-.486a1.727,1.727,0,0,1-.149-.517c-.024-.181-.078-.472-.157-.878a5.846,5.846,0,0,0-.363-1.161c-.083-.2-.786-1.757-.954-2.17,0,0-1.4-.9-2.188.137-.219.213-.928,1.006-1.044,1.177a2.188,2.188,0,0,0-.259.51,11.272,11.272,0,0,0-.555,1.837c-.15.681-.283,1.3-.4,1.853-.071.46-.159.892-.261,1.306s-.028.093-.119.432a2.3,2.3,0,0,0-.1.3,4.1,4.1,0,0,0-.13.854,1.376,1.376,0,0,0,.721.85.95.95,0,0,0,.928-.185,9.116,9.116,0,0,0,.216-.956c.064-.358.005-.209.1-.62.092-.437.019-.2.128-.7a4.1,4.1,0,0,1,.237-.85c.043-.054.216-.071.518-.057a4.99,4.99,0,0,0,.764-.007c.23-.035.558-.081.982-.152s.65-.071.684-.007a1.574,1.574,0,0,1,.147.435c.041.185.079.34.116.474.08.263.182.579.3.95a2.427,2.427,0,0,1,.112,1.08,1.039,1.039,0,0,0,1.823-.107c-.069-.415-.2-.98-.391-1.688m-2.63-2.72c-.01.04-.093.074-.252.1s-.432.06-.824.111a5.776,5.776,0,0,1-.781.057c-.161-.007-.247-.05-.259-.138a3.909,3.909,0,0,1,.188-1.08c.107-.287.216-.607.332-.968l.138-.194c.05-.05.382-.425.607-.681.218.522.515,1.215.524,1.286.092.277.176.563.251.861a1.729,1.729,0,0,1,.078.651" transform="translate(-534.226 -438.061)" fill="#fff"/>
</svg>
