<svg xmlns="http://www.w3.org/2000/svg" width="86.179" height="76.76" viewBox="0 0 86.179 76.76">
    <g id="prefix__star" transform="translate(-1.4 -1.73)">
        <path id="prefix__패스_28807" d="M85.5 25.36L65.93 22.5a2.44 2.44 0 0 1-1.82-1.33L55.4 3.37a2.42 2.42 0 0 0-4.35 0l-3.34 6.72a1.31 1.31 0 0 1-2.35 0l-1.48-3a1.28 1.28 0 0 0-2.29 0l-9.79 19.7a2.41 2.41 0 0 1-1.92 1.33c-1.79.18-5.1.54-7.94 1a1.25 1.25 0 0 0-.69 2.14L33.6 43.34a2.42 2.42 0 0 1 .69 2.15l-3.4 19.57a2.42 2.42 0 0 0 3.51 2.55l17.54-9.22a2.44 2.44 0 0 1 2.26 0l17.47 9.24a2.44 2.44 0 0 0 3.54-2.56l-3.29-19.56a2.43 2.43 0 0 1 .71-2.15l14.21-13.85a2.43 2.43 0 0 0-1.34-4.15" data-name="패스 28807" style="fill:#00ccbe"/>
        <path id="prefix__패스_28808" d="M78.77 31.81L60.15 49.9l4.34 25.59-23-12.12-23 12.05L23 49.83 4.4 31.68 30.1 28 41.63 4.73 53.08 28z" data-name="패스 28808" style="fill:none;stroke:#231815;stroke-linecap:round;stroke-linejoin:round;stroke-width:6px"/>
    </g>
</svg>
